<?xml version="1.0" encoding="UTF-8"?>
<!DOCTYPE svg PUBLIC "-//W3C//DTD SVG 1.1//EN" "http://www.w3.org/Graphics/SVG/1.1/DTD/svg11.dtd">
<!-- Creator: CorelDRAW -->
<svg xmlns="http://www.w3.org/2000/svg" xml:space="preserve" width="158.749mm" height="30.6916mm" version="1.1" style="shape-rendering:geometricPrecision; text-rendering:geometricPrecision; image-rendering:optimizeQuality; fill-rule:evenodd; clip-rule:evenodd"
viewBox="0 0 15874.9 3069.16"
 xmlns:xlink="http://www.w3.org/1999/xlink"
 xmlns:xodm="http://www.corel.com/coreldraw/odm/2003"
 zoomAndPan="magnify">
 <defs>
  <style type="text/css">
   <![CDATA[
    .fil0 {fill:#00A1E5;fill-rule:nonzero}
    .fil1 {fill:#BDCAD1;fill-rule:nonzero}
   ]]>
  </style>
 </defs>
 <g id="Camada_x0020_1">
  <metadata id="CorelCorpID_0Corel-Layer"/>
  <g id="_2614198239408">
   <g>
    <path class="fil0" d="M15062.65 2624.66l0 -261.94 116.42 0c60.85,0 95.25,26.46 95.25,68.79 0,34.4 -18.52,50.27 -42.33,60.85l71.44 121.71 -84.67 10.58 -52.92 -119.06 -23.82 0.01 0 116.42 -79.37 -0.01 0 2.65zm79.37 -224.9l0 82.02 21.17 0c26.46,0 37.04,-23.81 37.04,-39.69 0,-31.75 -15.88,-39.69 -39.69,-39.69l-18.52 0.01 0 -2.65zm-137.58 -37.04l0 42.33 -95.25 0 0 63.5 95.25 0 0 37.04 -95.25 0.01 0 74.08 95.25 0 0 42.33 -174.62 0 0 -261.94 174.62 0.01 0 2.64zm-230.19 2.65l0 259.29 -79.37 0 0 -119.06 -76.73 0 0 119.06 -79.38 0 0 -261.94 79.38 0 0 105.83 76.73 0 0 -103.19 79.37 0.01zm-285.75 256.64c-13.23,2.65 -31.75,7.94 -47.63,7.94 -87.31,0 -158.75,-52.92 -158.75,-137.58 0,-79.38 63.5,-132.29 153.46,-132.29 13.23,0 34.4,2.65 52.92,7.94l0 50.27c-13.23,-2.65 -42.33,-7.94 -47.63,-7.94 -37.04,0 -76.73,29.1 -76.73,84.67 0,55.56 37.04,84.67 79.38,84.67 15.88,0 34.4,-5.29 44.98,-7.94l0 50.26zm-365.12 7.94c-79.38,0 -129.65,-60.85 -129.65,-137.58 0,-74.08 55.56,-132.29 129.65,-132.29 74.08,0 129.65,58.21 129.65,132.29 -0.01,76.73 -50.28,137.58 -129.65,137.58l0 0zm0 -47.62c34.4,0 47.63,-42.33 47.63,-89.96 0,-47.63 -13.23,-84.67 -47.63,-84.67 -34.4,0 -47.63,37.04 -47.63,84.67 0,50.27 13.23,89.96 47.63,89.96l0 0zm-304.27 42.33l0 -261.94 79.37 0 0 219.6 95.25 0.01 0 39.69 -174.62 -0.01 0 2.65zm-275.16 0l0 -261.94 116.42 0c60.85,0 95.24,26.46 95.24,68.79 0,34.4 -18.52,50.27 -42.32,60.85l71.43 121.71 -84.66 10.58 -52.92 -119.06 -23.81 0.01 0 116.42 -79.38 -0.01 0 2.65zm76.73 -224.9l0 82.02 21.17 0c26.46,0 37.04,-23.81 37.04,-39.69 0,-31.75 -15.88,-39.69 -39.69,-39.69l-18.52 0.01 0 -2.65zm-756.71 224.9l-108.48 0 0 -261.94 116.42 0c52.92,0 84.67,21.17 84.67,58.21 0,39.69 -34.4,52.92 -50.27,60.85 29.1,2.65 68.79,26.46 68.79,60.85 2.64,50.28 -37.05,82.03 -111.13,82.03l0 0zm-26.46 -116.42l0 82.02 15.88 0c26.46,0 44.98,-15.88 44.98,-44.98 0,-23.81 -10.58,-37.04 -37.04,-37.04l-23.82 0zm0 -108.48l0 74.08 13.23 0.01c29.1,0 39.69,-18.52 39.69,-39.69 0,-26.46 -18.52,-34.4 -31.75,-34.4l-21.17 0zm264.59 -37.04l66.14 0 97.9 261.94 -82.02 0 -21.17 -68.79 -76.73 0 -26.46 68.79 -60.85 0 103.19 -261.94zm-7.94 161.4l58.21 0c-7.94,-31.75 -18.52,-60.85 -26.46,-97.9 -13.23,39.69 -23.81,68.79 -31.75,97.9l0 0zm84.67 -243.42l-373.07 0c0,0 -7.94,-15.88 -5.29,-26.46 2.65,-15.88 10.58,-21.17 29.1,-31.75 18.52,-10.58 113.77,-92.6 142.88,-132.29 29.1,-39.69 100.54,-277.81 127,-370.42 26.46,-89.96 89.96,-259.28 95.25,-277.8 2.65,-18.52 2.65,-39.69 -2.65,-52.92 -7.94,-13.23 -108.48,-63.5 -179.92,-103.19 -71.44,-39.69 -177.27,-108.48 -219.6,-111.13 -42.33,-2.65 -195.79,-5.29 -224.9,-13.23 -29.1,-7.94 -84.67,-60.85 -97.9,-89.96 -10.58,-29.1 -23.81,-63.5 -5.29,-84.67 15.88,-23.81 116.42,-97.9 132.29,-116.42 15.88,-18.52 34.4,-66.15 44.98,-89.96 10.58,-23.81 37.04,-44.98 68.79,-60.85 29.1,-15.88 169.33,-100.54 169.33,-100.54 0,0 -2.65,-103.19 87.31,-121.71 89.96,-15.88 134.94,79.38 134.94,79.38 0,0 185.21,10.58 246.06,2.65 60.85,-7.94 198.44,-23.81 304.27,-10.58 108.47,13.23 272.51,84.67 378.34,95.25 103.19,10.58 362.48,-60.85 523.88,-63.5 161.4,-2.65 351.9,23.81 465.67,108.48 89.96,68.79 119.06,140.23 119.06,140.23 0,0 137.58,60.85 129.65,164.04 -5.29,87.31 -71.44,82.02 -71.44,82.02 0,0 -13.23,158.75 -18.52,211.67 -5.29,52.92 -15.88,84.67 -10.58,105.83 0,0 100.54,224.89 142.88,309.55 42.33,84.67 116.42,227.54 103.19,333.38 -13.23,105.83 -71.44,190.5 -76.73,206.38 -7.94,15.88 -10.58,23.81 -10.58,23.81l-370.41 0c0,0 -2.65,-21.17 5.29,-37.04 10.58,-15.88 74.08,-60.85 66.15,-150.81 -7.94,-89.96 -87.31,-201.08 -111.13,-243.42 -23.81,-44.98 -71.44,-124.35 -119.06,-116.42 -50.27,10.58 -50.27,82.02 -50.27,82.02 0,0 13.23,185.21 2.65,243.42 -10.58,55.56 -13.23,76.73 -50.27,124.35 -37.04,47.63 -124.35,95.25 -124.35,95.25l-320.16 0.01c0,0 -18.52,-18.52 0,-44.98 18.52,-26.46 111.13,-111.13 132.29,-137.58 21.17,-29.1 26.46,-74.08 23.81,-132.29 -2.65,-58.21 -15.88,-227.54 -50.27,-251.35 -31.75,-23.81 -269.88,-145.52 -312.21,-95.25 -21.17,23.81 23.81,156.1 50.27,261.94 18.52,76.73 39.69,142.88 23.81,227.54 -15.88,84.67 -92.6,177.27 -92.6,177.27l-336.01 -0.01c0,0 -10.58,-39.69 18.52,-66.15 29.09,-26.46 92.59,-74.08 103.18,-111.13 10.58,-37.04 0,-50.27 -18.52,-82.02 -18.52,-29.1 -209.01,-359.83 -209.01,-359.83 0,0 -7.94,-23.81 -37.04,-13.23 -15.88,5.29 -34.4,50.27 -34.4,50.27l-203.73 468.31c0,0 -15.88,42.33 -47.63,76.73 -42.33,29.11 -87.3,29.11 -87.3,29.11l0 0zm-423.34 -1436.68c0,21.17 15.88,37.04 37.04,37.04 21.17,0 37.04,-15.88 37.04,-37.04 0,-21.17 -15.88,-37.04 -37.04,-37.04 -21.16,0 -37.04,15.88 -37.04,37.04l0 0zm724.96 1518.7l0 42.33 -95.25 0 0 63.5 95.25 0 0 37.04 -95.25 0.01 0 74.08 95.25 0 0 42.33 -174.63 0 0 -261.94 174.63 0.01 0 2.64zm-664.1 -2362.72l2301.86 0c418.04,0 756.71,338.67 756.71,756.71l0 1555.74c0,418.04 -338.67,756.71 -756.71,756.71l-2301.86 0c-418.04,0 -756.71,-338.67 -756.71,-756.71l0 -1555.74c0,-415.4 338.66,-756.71 756.71,-756.71l0 0zm-185.21 140.23c-243.42,0 -441.85,198.44 -441.85,441.85l0 1889.12c0,243.42 198.44,441.85 441.85,441.85l2677.57 0c243.42,0 441.85,-198.44 441.85,-441.85l0 -1889.12c0,-243.42 -198.44,-441.85 -441.85,-441.85l-2677.57 0z"/>
   </g>
   <g>
    <path class="fil1" d="M1960.52 2018.76l505.36 0 0 261.94 -410.11 0 -95.25 -261.94zm-92.6 -232.83l-100.54 -256.65 701.14 0 0 256.65 -600.6 0zm-492.12 494.77l-296.33 0 449.78 -1103.3c0,0 31.75,-74.08 89.96,-105.83 58.21,-31.75 116.42,-23.81 116.42,-23.81l732.89 -0.01 0 272.52 -748.77 0 -164.04 468.3 312.21 0.01 95.25 235.48 -481.53 -0.01 -105.84 256.65zm8284.08 -1232.95l0 203.73 -455.09 0 0 298.97 455.09 0 0 174.63 -455.09 0 0 354.54 455.09 0 0 203.73 -825.5 0 0 -1235.59 825.5 -0.01zm-1090.09 7.94l0 1227.66 -373.06 0 0 -566.21 -365.12 0 0 566.21 -373.06 0 0 -1235.59 373.06 -0.01 0 502.7 365.12 0 0 -494.76 373.06 0zm-1349.36 1217.07c-66.15,18.52 -148.17,31.75 -227.54,31.75 -412.75,0 -748.77,-246.06 -748.77,-650.88 0,-375.7 306.92,-627.05 727.6,-627.05 63.5,0 166.69,13.23 248.71,37.04l0 235.48c-66.15,-15.88 -195.79,-34.4 -230.19,-34.4 -177.27,0 -359.83,134.94 -359.83,402.16 0,261.94 177.27,396.88 370.42,396.88 68.79,0 158.75,-23.81 216.96,-39.69l-0.01 248.71 2.65 0zm-1733.02 31.75c-381,0 -613.83,-285.75 -613.83,-653.52 0,-346.59 259.29,-624.41 613.83,-624.41 354.54,0 613.83,277.81 613.83,624.41 2.65,370.42 -232.83,653.52 -613.83,653.52l0 0zm0 -222.25c166.69,0 224.9,-193.15 224.9,-431.27 0,-222.24 -66.15,-402.16 -224.9,-402.16 -158.75,0 -224.9,179.92 -224.9,402.16 0,238.13 58.21,431.27 224.9,431.27l0 0zm-1441.97 201.09l0 -1235.59 373.06 -0.01 0 1042.45 452.43 0 0 193.15 -825.49 0zm-1304.4 0l0 -1235.59 550.34 -0.01c291.04,0 447.15,127 449.79,330.73 0,166.68 -89.96,232.82 -206.38,288.39l343.96 582.08 -396.88 50.27 -251.35 -566.21 -116.42 0 0 552.98 -373.06 0 0 -2.64zm370.42 -1063.62l0 386.28 105.83 0c124.35,0 177.27,-108.47 177.27,-193.14 0,-153.46 -79.38,-193.15 -185.21,-193.15l-97.89 0.01zm-2603.49 1063.62l-508 0 0 -1235.59 550.33 -0.01c246.06,0 407.46,100.54 407.46,280.46 0,193.15 -164.04,248.7 -240.77,283.09 142.88,10.58 322.79,121.71 322.79,293.69 -2.64,227.54 -182.56,378.36 -531.81,378.36l0 0zm-134.94 -555.63l0 388.94 71.44 0c129.65,0 214.31,-74.08 214.31,-209.02 0,-108.48 -50.27,-179.92 -177.27,-179.92l-108.48 0zm0 -510.64l0 349.24 66.15 0c134.94,0 182.56,-92.59 182.56,-190.49 0,-124.35 -89.96,-158.75 -145.52,-158.75l-103.19 0zm9943.01 2.65l0 386.28 105.84 0c124.35,0 177.27,-108.47 177.27,-193.14 0,-153.46 -79.38,-193.15 -185.21,-193.15l-97.9 0.01zm-373.06 1063.62l0 -1235.59 550.33 -0.01c291.03,0 447.14,127 449.78,330.73 0,166.68 -92.6,232.82 -206.38,288.39l343.96 582.08 -396.88 50.27 -251.34 -566.21 -116.41 0 0 552.98 -373.06 0 0 -2.64z"/>
   </g>
  </g>
 </g>
</svg>
