<?xml version="1.0" encoding="UTF-8"?>
<!DOCTYPE svg PUBLIC "-//W3C//DTD SVG 1.1//EN" "http://www.w3.org/Graphics/SVG/1.1/DTD/svg11.dtd">
<!-- Creator: CorelDRAW -->
<svg xmlns="http://www.w3.org/2000/svg" xml:space="preserve" width="59.1006mm" height="17.7172mm" version="1.1" style="shape-rendering:geometricPrecision; text-rendering:geometricPrecision; image-rendering:optimizeQuality; fill-rule:evenodd; clip-rule:evenodd"
viewBox="0 0 5910.06 1771.72"
 xmlns:xlink="http://www.w3.org/1999/xlink"
 xmlns:xodm="http://www.corel.com/coreldraw/odm/2003">
 <defs>
  <style type="text/css">
   <![CDATA[
    .fil2 {fill:#466675;fill-rule:nonzero}
    .fil0 {fill:url(#id0);fill-rule:nonzero}
    .fil1 {fill:url(#id1);fill-rule:nonzero}
   ]]>
  </style>
  <linearGradient id="id0" gradientUnits="userSpaceOnUse" x1="4802.7" y1="446.06" x2="5895.28" y2="446.06">
   <stop offset="0" style="stop-opacity:1; stop-color:#F37535"/>
   <stop offset="0.341176" style="stop-opacity:1; stop-color:#F9A02F"/>
   <stop offset="1" style="stop-opacity:1; stop-color:#FFCC29"/>
  </linearGradient>
  <linearGradient id="id1" gradientUnits="userSpaceOnUse" x1="5733.78" y1="487.73" x2="4993.35" y2="1827.12">
   <stop offset="0" style="stop-opacity:1; stop-color:#006CB5"/>
   <stop offset="0.301961" style="stop-opacity:1; stop-color:#0093D3"/>
   <stop offset="1" style="stop-opacity:1; stop-color:#00BBF1"/>
  </linearGradient>
 </defs>
 <g id="Camada_x0020_1">
  <metadata id="CorelCorpID_0Corel-Layer"/>
  <g id="_2529913147328">
   <g>
    <g>
     <path class="fil0" d="M5737.83 846.36c325.24,-300.02 112.97,-843.22 -329.52,-843.22l-559.63 0c-41.78,0 -61.82,51.29 -31.12,79.62l874.04 806.24 46.23 -42.64z"/>
     <path class="fil1" d="M5745.66 938.86l-54.06 -49.86 -334.33 -308.41c152.09,195.04 158.28,469.87 -42.05,655.59l-497.39 458.81c-30.8,28.41 -10.7,79.86 31.21,79.86l569.94 0c438.7,0 649.15,-538.55 326.68,-835.99z"/>
    </g>
   </g>
   <g>
    <path class="fil2" d="M360.75 1331.83l-345.33 0c-15.44,0 -23.74,-8.32 -23.74,-23.74l0 -842.6c0,-15.42 8.3,-23.73 23.74,-23.73l326.35 0c78.32,0 140.04,17.8 186.32,52.22 52.22,39.16 80.7,99.69 80.7,170.89 0,54.59 -18.99,99.69 -52.22,132.92 -13.05,13.05 -27.3,22.55 -42.72,32.04 36.79,10.69 68.84,28.49 93.75,52.22 46.29,42.72 70.03,102.05 70.03,172.08 0,87.82 -32.05,160.21 -92.57,210.06 -55.79,45.09 -131.74,67.64 -224.31,67.64zm-212.43 -753.59l0 0 0 211.25 180.39 0c36.8,0 66.47,-7.13 89.01,-24.93 24.93,-17.8 37.98,-46.29 37.98,-80.7 0,-36.79 -13.05,-64.08 -37.98,-81.89 -22.54,-15.43 -51.03,-23.73 -91.38,-23.73l-178.02 0zm0 339.41l0 0 0 277.7 206.51 0c49.84,0 89,-10.68 117.48,-34.42 32.05,-23.73 48.66,-61.71 48.66,-107.99 0,-45.1 -15.42,-80.7 -45.1,-103.25 -27.29,-22.55 -65.26,-32.04 -112.74,-32.04l-214.81 0z"/>
    <path class="fil2" d="M888.88 1331.83l-105.61 0c-15.43,0 -23.74,-8.32 -23.74,-23.74l0 -404.68c0,-60.52 17.8,-104.43 51.02,-136.47 32.06,-28.49 79.52,-43.92 140.05,-43.92l138.85 0c15.43,0 23.73,8.32 23.73,23.74l0 91.38c0,15.42 -8.3,23.74 -23.73,23.74l-106.81 0c-47.47,0 -70.02,22.55 -70.02,68.82l0 377.39c0,15.42 -8.31,23.74 -23.74,23.74z"/>
    <path class="fil2" d="M1641.29 1242.82c-52.21,66.46 -128.16,106.81 -217.17,106.81 -84.26,0 -157.84,-34.42 -212.43,-98.51 -51.04,-59.33 -77.14,-136.48 -77.14,-224.29 0,-85.44 27.29,-163.77 77.14,-223.11 54.59,-64.08 128.17,-97.31 212.43,-97.31 89.01,0 164.96,39.16 217.17,104.43l8.32 -65.27c3.56,-15.42 10.67,-22.55 24.91,-22.55l79.52 0c15.42,0 23.73,8.32 23.73,23.74l0 561.33c0,15.42 -8.31,23.74 -23.73,23.74l-79.52 0c-14.24,0 -23.73,-7.13 -24.91,-22.55l-8.32 -66.46zm-306.18 -85.45l0 0c32.05,34.42 75.95,54.59 125.8,54.59 49.84,0 93.75,-20.17 125.8,-54.59 29.66,-34.41 47.46,-79.51 47.46,-130.54 0,-49.84 -17.8,-94.94 -47.46,-128.17 -33.23,-34.41 -75.96,-54.59 -125.8,-54.59 -49.85,0 -93.75,18.99 -125.8,53.4 -29.66,34.42 -47.47,79.52 -47.47,129.36 0,51.03 17.81,96.13 47.47,130.54z"/>
    <path class="fil2" d="M1859.68 1308.09l0 -91.38c0,-15.43 8.29,-23.74 23.72,-23.74l252.79 0c17.8,0 32.03,-4.73 41.53,-14.23 5.94,-5.94 10.68,-16.62 10.68,-27.3 0,-10.68 -3.55,-20.17 -11.86,-28.48 -4.76,-4.75 -11.87,-9.5 -20.18,-13.05l-175.64 -75.96c-33.23,-14.25 -59.34,-30.86 -78.33,-49.85 -28.48,-28.47 -41.53,-62.89 -41.53,-104.42 0,-42.73 14.24,-78.33 41.53,-105.63 32.05,-32.04 83.08,-51.03 148.35,-51.03l218.36 0c15.43,0 23.74,8.32 23.74,23.74l0 91.38c0,15.42 -8.31,23.74 -23.74,23.74l-207.68 0c-14.24,0 -24.93,4.75 -30.85,10.67 -4.75,4.75 -7.13,10.69 -7.13,18.99 0,5.93 2.38,13.06 7.13,17.8 4.74,4.75 13.05,9.5 23.72,14.24l156.66 67.65c33.23,14.24 58.15,30.85 77.14,49.84 29.66,29.67 43.91,66.46 43.91,111.55 0,49.85 -18.98,91.39 -48.66,123.43 -34.41,34.41 -87.81,55.78 -149.53,55.78l-250.41 0c-15.43,0 -23.72,-8.32 -23.72,-23.74z"/>
    <path class="fil2" d="M2543.26 1331.83l-105.63 0c-15.42,0 -23.73,-8.32 -23.73,-23.74l0 -842.6c0,-15.42 8.31,-23.73 23.73,-23.73l105.63 0c15.43,0 23.74,8.31 23.74,23.73l0 486.58 13.05 0 194.63 -211.25c10.68,-13.05 17.8,-17.8 35.6,-17.8l134.1 0c9.49,0 15.43,13.05 9.49,21.37l-245.66 261.08 259.9 306.18c5.94,8.31 2.38,20.18 -10.67,20.18l-128.17 0c-22.55,0 -35.6,-5.94 -48.67,-21.37l-196.99 -234.98 -16.61 0 0 232.61c0,15.42 -8.31,23.74 -23.74,23.74z"/>
    <path class="fil2" d="M3280.48 1349.63c-90.19,0 -170.89,-33.23 -230.23,-93.76 -59.34,-60.52 -90.19,-142.41 -90.19,-232.6 0,-85.45 32.04,-164.95 92.56,-224.29 59.34,-60.53 140.04,-92.57 225.48,-92.57 90.19,0 169.71,33.23 226.67,94.94 54.59,60.53 85.46,141.23 85.46,230.23l0 10.68c0,13.06 -9.5,22.55 -20.18,22.55l-469.96 0c5.93,39.16 21.36,71.2 45.1,98.5 32.04,34.41 78.32,53.4 135.29,53.4 64.09,0 123.42,-28.47 153.09,-78.33 5.94,-10.67 14.24,-16.61 27.29,-16.61l93.76 0c15.43,0 24.92,11.86 20.17,29.67 -22.54,60.52 -60.52,111.56 -115.12,145.97 -51.03,34.42 -113.93,52.22 -179.19,52.22zm-170.89 -401.13l0 0 331.11 0c-19,-71.2 -75.96,-111.55 -161.41,-111.55 -54.59,0 -99.69,17.8 -132.91,52.22 -15.43,17.79 -28.49,36.78 -36.79,59.33z"/>
    <path class="fil2" d="M3801.48 1331.83l-105.61 0c-15.43,0 -23.74,-8.32 -23.74,-23.74l0 -561.33c0,-15.42 8.31,-23.74 23.74,-23.74l64.07 0c17.8,0 27.3,8.32 30.87,26.12l11.86 61.7c41.54,-64.08 108,-96.12 200.57,-96.12l28.47 0c65.28,0 118.68,22.54 155.47,65.27 9.49,10.69 17.8,23.73 26.11,37.97 40.34,-68.82 109.18,-103.24 204.12,-103.24l28.48 0c65.28,0 118.68,22.54 155.47,65.27 34.41,39.16 52.21,94.94 52.21,161.4l0 366.7c0,15.42 -8.3,23.74 -23.72,23.74l-106.82 0c-15.42,0 -23.74,-8.32 -23.74,-23.74l0 -335.85c0,-75.95 -37.97,-118.68 -104.43,-118.68l-34.41 0c-74.76,0 -121.05,48.67 -121.05,132.92l0 321.61c0,15.42 -8.31,23.74 -23.74,23.74l-106.8 0c-15.43,0 -23.74,-8.32 -23.74,-23.74l0 -335.85c0,-75.95 -37.98,-118.68 -104.43,-118.68l-34.42 0c-74.76,0 -121.05,48.67 -121.05,132.92l0 321.61c0,15.42 -8.31,23.74 -23.74,23.74z"/>
   </g>
  </g>
 </g>
</svg>
