<svg xmlns="http://www.w3.org/2000/svg" xmlns:xlink="http://www.w3.org/1999/xlink" width="500" zoomAndPan="magnify" viewBox="0 0 375 374.999991" height="500" preserveAspectRatio="xMidYMid meet" version="1.0"><defs><clipPath id="5be065ac2e"><path d="M 320.082031 54.917969 C 284.667969 19.503906 237.582031 0 187.5 0 C 137.417969 0 90.332031 19.503906 54.917969 54.917969 C 19.503906 90.332031 0 137.417969 0 187.5 C 0 237.582031 19.503906 284.667969 54.917969 320.082031 C 90.332031 355.496094 137.417969 375 187.5 375 C 237.582031 375 284.667969 355.496094 320.082031 320.082031 C 355.496094 284.667969 375 237.582031 375 187.5 C 375 137.417969 355.496094 90.332031 320.082031 54.917969 Z M 75 312.5 L 65.042969 312.5 C 64.617188 312.082031 64.179688 311.667969 63.757812 311.242188 C 44.441406 291.929688 30.207031 268.890625 21.703125 243.75 L 75 243.75 Z M 311.242188 311.242188 C 278.191406 344.296875 234.242188 362.5 187.5 362.5 C 151.269531 362.5 116.726562 351.558594 87.628906 331.25 L 118.75 331.25 C 122.203125 331.25 125 328.453125 125 325 L 125.183594 325 C 132.554688 325 139.765625 326.386719 146.613281 329.128906 L 155.503906 332.683594 C 163.496094 335.878906 171.910156 337.5 180.515625 337.5 L 231.25 337.5 C 241.589844 337.5 250 329.089844 250 318.75 C 250 315.410156 249.121094 312.269531 247.585938 309.550781 C 252.792969 306.214844 256.25 300.378906 256.25 293.75 C 256.25 288.953125 254.4375 284.570312 251.464844 281.25 C 254.4375 277.929688 256.25 273.546875 256.25 268.75 C 256.25 263.953125 254.4375 259.570312 251.464844 256.25 C 254.4375 252.929688 256.25 248.546875 256.25 243.75 C 256.25 233.410156 247.839844 225 237.5 225 L 208.855469 225 C 208.582031 225 208.359375 224.890625 208.1875 224.679688 C 208.019531 224.46875 207.964844 224.226562 208.023438 223.960938 L 213.40625 199.738281 C 215.105469 192.089844 213.242188 184.21875 208.296875 178.140625 C 203.351562 172.066406 196.023438 168.632812 188.179688 168.753906 C 181.308594 168.847656 175.210938 173.347656 173.011719 179.945312 L 164.71875 204.828125 C 160.375 217.863281 149.933594 227.691406 136.703125 231.25 L 125 231.25 C 125 227.796875 122.203125 225 118.75 225 L 81.25 225 C 77.796875 225 75 227.796875 75 231.25 L 17.992188 231.25 C 14.375 217.128906 12.5 202.460938 12.5 187.5 C 12.5 140.753906 30.703125 96.808594 63.757812 63.757812 C 96.808594 30.703125 140.757812 12.5 187.5 12.5 C 234.242188 12.5 278.191406 30.703125 311.242188 63.757812 C 344.296875 96.808594 362.5 140.753906 362.5 187.5 C 362.5 234.246094 344.296875 278.191406 311.242188 311.242188 Z M 87.5 318.75 L 87.5 237.5 L 112.5 237.5 L 112.5 318.75 Z M 125 243.75 L 137.5 243.75 C 138.011719 243.75 138.519531 243.6875 139.015625 243.5625 C 156.753906 239.128906 170.796875 226.125 176.578125 208.78125 L 184.871094 183.898438 C 185.390625 182.335938 186.792969 181.273438 188.351562 181.25 C 188.414062 181.25 188.476562 181.25 188.539062 181.25 C 192.464844 181.25 196.121094 182.984375 198.601562 186.03125 C 201.121094 189.125 202.066406 193.132812 201.203125 197.027344 L 195.820312 221.25 C 194.933594 225.222656 195.890625 229.324219 198.4375 232.5 C 200.984375 235.675781 204.78125 237.5 208.855469 237.5 L 237.5 237.5 C 240.945312 237.5 243.75 240.304688 243.75 243.75 C 243.75 247.195312 240.945312 250 237.5 250 C 234.046875 250 231.25 252.796875 231.25 256.25 C 231.25 259.699219 234.046875 262.5 237.5 262.5 C 240.945312 262.5 243.75 265.304688 243.75 268.75 C 243.75 272.195312 240.945312 275 237.5 275 C 234.046875 275 231.25 277.796875 231.25 281.25 C 231.25 284.699219 234.046875 287.5 237.5 287.5 C 240.945312 287.5 243.75 290.304688 243.75 293.75 C 243.75 297.195312 240.945312 300 237.5 300 L 231.25 300 C 227.796875 300 225 302.796875 225 306.25 C 225 309.699219 227.796875 312.5 231.25 312.5 C 234.695312 312.5 237.5 315.304688 237.5 318.75 C 237.5 322.195312 234.695312 325 231.25 325 L 180.515625 325 C 173.507812 325 166.65625 323.679688 160.148438 321.078125 L 151.257812 317.519531 C 142.925781 314.1875 134.15625 312.5 125.183594 312.5 L 125 312.5 Z M 219.246094 91.988281 L 241.78125 70.820312 C 243.53125 69.171875 244.183594 66.664062 243.457031 64.371094 C 242.726562 62.078125 240.75 60.40625 238.367188 60.074219 L 207.035156 55.6875 L 193.0625 28.402344 C 191.992188 26.3125 189.847656 25 187.5 25 C 185.152344 25 183.007812 26.3125 181.9375 28.402344 L 167.964844 55.683594 L 136.632812 60.074219 C 134.25 60.40625 132.273438 62.078125 131.542969 64.371094 C 130.816406 66.664062 131.46875 69.171875 133.21875 70.816406 L 155.753906 91.988281 L 150.445312 121.820312 C 150.03125 124.152344 150.96875 126.519531 152.871094 127.933594 C 154.773438 129.347656 157.308594 129.5625 159.421875 128.492188 L 187.5 114.265625 L 215.578125 128.492188 C 216.46875 128.945312 217.4375 129.167969 218.402344 129.167969 C 219.71875 129.167969 221.03125 128.75 222.128906 127.933594 C 224.03125 126.519531 224.96875 124.15625 224.554688 121.824219 Z M 208.21875 85.195312 C 206.679688 86.640625 205.976562 88.765625 206.347656 90.847656 L 210.054688 111.679688 L 190.324219 101.683594 C 189.4375 101.234375 188.46875 101.007812 187.5 101.007812 C 186.53125 101.007812 185.5625 101.234375 184.675781 101.683594 L 164.945312 111.679688 L 168.652344 90.847656 C 169.023438 88.765625 168.316406 86.640625 166.78125 85.195312 L 151.289062 70.644531 L 172.917969 67.613281 C 174.933594 67.332031 176.683594 66.085938 177.613281 64.273438 L 187.5 44.960938 L 197.386719 64.273438 C 198.316406 66.085938 200.066406 67.332031 202.085938 67.613281 L 223.710938 70.644531 Z M 138.367188 102.152344 L 119.988281 99.578125 L 111.8125 83.609375 C 110.742188 81.523438 108.597656 80.207031 106.25 80.207031 C 103.902344 80.207031 101.757812 81.523438 100.6875 83.609375 L 92.511719 99.578125 L 74.132812 102.152344 C 71.75 102.484375 69.773438 104.15625 69.042969 106.449219 C 68.316406 108.742188 68.96875 111.25 70.71875 112.898438 L 83.878906 125.257812 L 80.78125 142.65625 C 80.367188 144.988281 81.308594 147.355469 83.207031 148.765625 C 85.109375 150.179688 87.648438 150.394531 89.761719 149.324219 L 106.25 140.96875 L 122.738281 149.324219 C 123.632812 149.777344 124.597656 150 125.5625 150 C 126.882812 150 128.191406 149.582031 129.289062 148.765625 C 131.191406 147.355469 132.132812 144.988281 131.714844 142.65625 L 128.621094 125.257812 L 141.777344 112.898438 C 143.53125 111.25 144.183594 108.742188 143.457031 106.449219 C 142.726562 104.15625 140.75 102.484375 138.367188 102.152344 Z M 117.59375 118.464844 C 116.054688 119.914062 115.351562 122.039062 115.722656 124.117188 L 117.214844 132.511719 L 109.074219 128.386719 C 108.1875 127.9375 107.21875 127.714844 106.25 127.714844 C 105.28125 127.714844 104.3125 127.9375 103.425781 128.386719 L 95.285156 132.511719 L 96.777344 124.117188 C 97.148438 122.039062 96.441406 119.914062 94.90625 118.464844 L 88.789062 112.722656 L 97.460938 111.507812 C 99.476562 111.222656 101.230469 109.976562 102.15625 108.164062 L 106.25 100.171875 L 110.34375 108.167969 C 111.269531 109.976562 113.023438 111.226562 115.039062 111.507812 L 123.710938 112.722656 Z M 88.367188 159.445312 L 69.988281 156.871094 L 61.8125 140.902344 C 60.742188 138.8125 58.597656 137.5 56.25 137.5 C 53.902344 137.5 51.757812 138.8125 50.6875 140.902344 L 42.511719 156.871094 L 24.132812 159.441406 C 21.75 159.777344 19.773438 161.449219 19.042969 163.742188 C 18.316406 166.035156 18.96875 168.539062 20.71875 170.1875 L 33.878906 182.550781 L 30.78125 199.945312 C 30.367188 202.277344 31.308594 204.644531 33.207031 206.058594 C 35.109375 207.472656 37.648438 207.6875 39.761719 206.617188 L 56.25 198.261719 L 72.738281 206.617188 C 73.632812 207.070312 74.597656 207.292969 75.5625 207.292969 C 76.882812 207.292969 78.191406 206.875 79.289062 206.058594 C 81.191406 204.644531 82.132812 202.28125 81.714844 199.945312 L 78.621094 182.550781 L 91.777344 170.1875 C 93.53125 168.542969 94.183594 166.035156 93.457031 163.742188 C 92.726562 161.449219 90.75 159.777344 88.367188 159.445312 Z M 67.59375 175.757812 C 66.054688 177.203125 65.351562 179.328125 65.722656 181.410156 L 67.214844 189.804688 L 59.074219 185.679688 C 58.1875 185.230469 57.21875 185.003906 56.25 185.003906 C 55.28125 185.003906 54.3125 185.230469 53.425781 185.679688 L 45.285156 189.804688 L 46.777344 181.410156 C 47.148438 179.328125 46.441406 177.203125 44.90625 175.757812 L 38.789062 170.011719 L 47.460938 168.800781 C 49.476562 168.515625 51.230469 167.269531 52.15625 165.457031 L 56.25 157.464844 L 60.34375 165.457031 C 61.269531 167.269531 63.023438 168.515625 65.039062 168.796875 L 73.710938 170.011719 Z M 288.0625 150 C 289.382812 150 290.691406 149.582031 291.789062 148.765625 C 293.691406 147.355469 294.632812 144.988281 294.214844 142.65625 L 291.121094 125.257812 L 304.277344 112.898438 C 306.03125 111.25 306.683594 108.742188 305.957031 106.449219 C 305.226562 104.15625 303.25 102.484375 300.867188 102.152344 L 282.488281 99.578125 L 274.3125 83.609375 C 273.242188 81.523438 271.09375 80.207031 268.75 80.207031 C 266.402344 80.207031 264.253906 81.523438 263.1875 83.609375 L 255.007812 99.578125 L 236.632812 102.152344 C 234.25 102.484375 232.269531 104.15625 231.542969 106.449219 C 230.8125 108.742188 231.464844 111.25 233.21875 112.898438 L 246.378906 125.257812 L 243.28125 142.65625 C 242.867188 144.988281 243.804688 147.355469 245.707031 148.765625 C 247.609375 150.179688 250.148438 150.394531 252.261719 149.324219 L 268.75 140.96875 L 285.238281 149.324219 C 286.132812 149.777344 287.097656 150 288.0625 150 Z M 278.222656 124.117188 L 279.714844 132.515625 L 271.574219 128.390625 C 270.6875 127.9375 269.71875 127.714844 268.75 127.714844 C 267.78125 127.714844 266.8125 127.9375 265.925781 128.390625 L 257.785156 132.515625 L 259.277344 124.117188 C 259.648438 122.039062 258.941406 119.914062 257.40625 118.46875 L 251.289062 112.722656 L 259.960938 111.507812 C 261.976562 111.226562 263.730469 109.976562 264.65625 108.167969 L 268.75 100.171875 L 272.84375 108.167969 C 273.769531 109.976562 275.523438 111.226562 277.539062 111.507812 L 286.210938 112.722656 L 280.097656 118.46875 C 278.558594 119.914062 277.851562 122.039062 278.222656 124.117188 Z M 355.957031 163.742188 C 355.226562 161.449219 353.25 159.777344 350.867188 159.445312 L 332.488281 156.871094 L 324.3125 140.902344 C 323.242188 138.8125 321.097656 137.5 318.75 137.5 C 316.402344 137.5 314.257812 138.8125 313.1875 140.902344 L 305.011719 156.871094 L 286.632812 159.441406 C 284.25 159.777344 282.273438 161.449219 281.542969 163.742188 C 280.816406 166.035156 281.46875 168.539062 283.21875 170.1875 L 296.378906 182.550781 L 293.28125 199.945312 C 292.867188 202.277344 293.808594 204.644531 295.707031 206.058594 C 297.609375 207.472656 300.148438 207.6875 302.261719 206.617188 L 318.75 198.261719 L 335.238281 206.617188 C 336.132812 207.070312 337.097656 207.292969 338.0625 207.292969 C 339.382812 207.292969 340.691406 206.875 341.789062 206.058594 C 343.691406 204.644531 344.632812 202.28125 344.214844 199.945312 L 341.121094 182.550781 L 354.277344 170.1875 C 356.03125 168.542969 356.683594 166.035156 355.957031 163.742188 Z M 330.09375 175.757812 C 328.554688 177.203125 327.851562 179.328125 328.222656 181.410156 L 329.714844 189.804688 L 321.574219 185.679688 C 320.6875 185.230469 319.71875 185.003906 318.75 185.003906 C 317.78125 185.003906 316.8125 185.230469 315.925781 185.679688 L 307.785156 189.804688 L 309.277344 181.410156 C 309.648438 179.328125 308.941406 177.203125 307.40625 175.757812 L 301.289062 170.011719 L 309.960938 168.800781 C 311.976562 168.515625 313.730469 167.269531 314.65625 165.457031 L 318.75 157.464844 L 322.84375 165.457031 C 323.769531 167.269531 325.523438 168.515625 327.539062 168.796875 L 336.210938 170.011719 Z M 330.09375 175.757812 " clip-rule="nonzero"/></clipPath></defs><g clip-path="url(#5be065ac2e)"><rect x="-37.5" width="450" fill="#2576cc" y="-37.499999" height="449.999989" fill-opacity="1"/></g></svg>