<?xml version="1.0" encoding="UTF-8"?>
<!DOCTYPE svg PUBLIC "-//W3C//DTD SVG 1.1//EN" "http://www.w3.org/Graphics/SVG/1.1/DTD/svg11.dtd">
<!-- Creator: CorelDRAW -->
<svg xmlns="http://www.w3.org/2000/svg" xml:space="preserve" width="116.671mm" height="31.4112mm" version="1.1" style="shape-rendering:geometricPrecision; text-rendering:geometricPrecision; image-rendering:optimizeQuality; fill-rule:evenodd; clip-rule:evenodd"
viewBox="0 0 11667.06 3141.12"
 xmlns:xlink="http://www.w3.org/1999/xlink"
 xmlns:xodm="http://www.corel.com/coreldraw/odm/2003">
 <defs>
  <style type="text/css">
   <![CDATA[
    .fil27 {fill:#014074;fill-rule:nonzero}
    .fil78 {fill:#024478;fill-rule:nonzero}
    .fil60 {fill:#03458C;fill-rule:nonzero}
    .fil8 {fill:#0362A1;fill-rule:nonzero}
    .fil28 {fill:#04336B;fill-rule:nonzero}
    .fil142 {fill:#043F72;fill-rule:nonzero}
    .fil59 {fill:#044373;fill-rule:nonzero}
    .fil139 {fill:#04458C;fill-rule:nonzero}
    .fil58 {fill:#044675;fill-rule:nonzero}
    .fil10 {fill:#05458C;fill-rule:nonzero}
    .fil97 {fill:#0564A1;fill-rule:nonzero}
    .fil61 {fill:#06366B;fill-rule:nonzero}
    .fil86 {fill:#06629D;fill-rule:nonzero}
    .fil63 {fill:#073667;fill-rule:nonzero}
    .fil140 {fill:#07508C;fill-rule:nonzero}
    .fil12 {fill:#0783C0;fill-rule:nonzero}
    .fil2 {fill:#14256A;fill-rule:nonzero}
    .fil19 {fill:#1D1B1D;fill-rule:nonzero}
    .fil22 {fill:#1D1C1D;fill-rule:nonzero}
    .fil18 {fill:#1E1C1D;fill-rule:nonzero}
    .fil16 {fill:#1E1D1D;fill-rule:nonzero}
    .fil3 {fill:#1E1D1E;fill-rule:nonzero}
    .fil21 {fill:#1F1E1E;fill-rule:nonzero}
    .fil50 {fill:#201F1E;fill-rule:nonzero}
    .fil20 {fill:#20201E;fill-rule:nonzero}
    .fil93 {fill:#20211C;fill-rule:nonzero}
    .fil55 {fill:#21211F;fill-rule:nonzero}
    .fil47 {fill:#21221D;fill-rule:nonzero}
    .fil67 {fill:#21221E;fill-rule:nonzero}
    .fil64 {fill:#21231D;fill-rule:nonzero}
    .fil54 {fill:#222220;fill-rule:nonzero}
    .fil68 {fill:#232320;fill-rule:nonzero}
    .fil72 {fill:#23241F;fill-rule:nonzero}
    .fil71 {fill:#23261D;fill-rule:nonzero}
    .fil42 {fill:#406118;fill-rule:nonzero}
    .fil36 {fill:#416318;fill-rule:nonzero}
    .fil75 {fill:#426318;fill-rule:nonzero}
    .fil96 {fill:#426418;fill-rule:nonzero}
    .fil134 {fill:#456618;fill-rule:nonzero}
    .fil135 {fill:#483B14;fill-rule:nonzero}
    .fil89 {fill:#567219;fill-rule:nonzero}
    .fil70 {fill:#577316;fill-rule:nonzero}
    .fil103 {fill:#577317;fill-rule:nonzero}
    .fil69 {fill:#587216;fill-rule:nonzero}
    .fil46 {fill:#587316;fill-rule:nonzero}
    .fil56 {fill:#5A140F;fill-rule:nonzero}
    .fil91 {fill:#5B7919;fill-rule:nonzero}
    .fil32 {fill:#5B7F20;fill-rule:nonzero}
    .fil13 {fill:#5B8021;fill-rule:nonzero}
    .fil45 {fill:#5C100E;fill-rule:nonzero}
    .fil121 {fill:#5E8421;fill-rule:nonzero}
    .fil48 {fill:#5F8322;fill-rule:nonzero}
    .fil83 {fill:#608621;fill-rule:nonzero}
    .fil99 {fill:#698D2B;fill-rule:nonzero}
    .fil109 {fill:#6D1C12;fill-rule:nonzero}
    .fil66 {fill:#701811;fill-rule:nonzero}
    .fil57 {fill:#711511;fill-rule:nonzero}
    .fil9 {fill:#741111;fill-rule:nonzero}
    .fil11 {fill:#81B028;fill-rule:nonzero}
    .fil120 {fill:#901C16;fill-rule:nonzero}
    .fil23 {fill:#90B11A;fill-rule:nonzero}
    .fil62 {fill:#91B21B;fill-rule:nonzero}
    .fil35 {fill:#971016;fill-rule:nonzero}
    .fil87 {fill:#9B9DA1;fill-rule:nonzero}
    .fil1 {fill:#9C9EA1;fill-rule:nonzero}
    .fil76 {fill:#9C9EA2;fill-rule:nonzero}
    .fil107 {fill:#9D9FA2;fill-rule:nonzero}
    .fil30 {fill:#9DA0A2;fill-rule:nonzero}
    .fil74 {fill:#9EA1A3;fill-rule:nonzero}
    .fil65 {fill:#9F2B18;fill-rule:nonzero}
    .fil77 {fill:#9FA1A3;fill-rule:nonzero}
    .fil34 {fill:#A02C19;fill-rule:nonzero}
    .fil92 {fill:#A0A2A4;fill-rule:nonzero}
    .fil95 {fill:#A1A3A5;fill-rule:nonzero}
    .fil108 {fill:#A2A4A6;fill-rule:nonzero}
    .fil126 {fill:#A4A9A5;fill-rule:nonzero}
    .fil105 {fill:#A4AAA5;fill-rule:nonzero}
    .fil138 {fill:#A6ABA7;fill-rule:nonzero}
    .fil53 {fill:#A6ACA6;fill-rule:nonzero}
    .fil145 {fill:#A7ACA7;fill-rule:nonzero}
    .fil52 {fill:#A8ADA9;fill-rule:nonzero}
    .fil125 {fill:#A9ADAB;fill-rule:nonzero}
    .fil81 {fill:#A9AEA9;fill-rule:nonzero}
    .fil73 {fill:#A9AEAB;fill-rule:nonzero}
    .fil44 {fill:#AA7E1C;fill-rule:nonzero}
    .fil127 {fill:#AAADAC;fill-rule:nonzero}
    .fil79 {fill:#AAAFAB;fill-rule:nonzero}
    .fil33 {fill:#AB7D1C;fill-rule:nonzero}
    .fil137 {fill:#ABAEAD;fill-rule:nonzero}
    .fil29 {fill:#ABAFAC;fill-rule:nonzero}
    .fil128 {fill:#ABB0AB;fill-rule:nonzero}
    .fil130 {fill:#ACAFAD;fill-rule:nonzero}
    .fil132 {fill:#ACB0AD;fill-rule:nonzero}
    .fil131 {fill:#AEB1AF;fill-rule:nonzero}
    .fil24 {fill:#AFAFB2;fill-rule:nonzero}
    .fil141 {fill:#B0B0B3;fill-rule:nonzero}
    .fil133 {fill:#B0B1B3;fill-rule:nonzero}
    .fil129 {fill:#B0B2B1;fill-rule:nonzero}
    .fil118 {fill:#B1B1B2;fill-rule:nonzero}
    .fil122 {fill:#B1B1B3;fill-rule:nonzero}
    .fil136 {fill:#B1B2B3;fill-rule:nonzero}
    .fil100 {fill:#B2B2B4;fill-rule:nonzero}
    .fil49 {fill:#B2B3B4;fill-rule:nonzero}
    .fil123 {fill:#B3B3B4;fill-rule:nonzero}
    .fil101 {fill:#B3B4B5;fill-rule:nonzero}
    .fil38 {fill:#B40A1B;fill-rule:nonzero}
    .fil124 {fill:#B4B4B6;fill-rule:nonzero}
    .fil143 {fill:#B5B5B6;fill-rule:nonzero}
    .fil84 {fill:#B6B6B7;fill-rule:nonzero}
    .fil114 {fill:#B73D1F;fill-rule:nonzero}
    .fil116 {fill:#B7B8B9;fill-rule:nonzero}
    .fil144 {fill:#B8B8BA;fill-rule:nonzero}
    .fil41 {fill:#B9321C;fill-rule:nonzero}
    .fil5 {fill:#C0C813;fill-rule:nonzero}
    .fil51 {fill:#C1C913;fill-rule:nonzero}
    .fil7 {fill:#C50A1D;fill-rule:nonzero}
    .fil104 {fill:#C8A515;fill-rule:nonzero}
    .fil115 {fill:#C8C8CB;fill-rule:nonzero}
    .fil94 {fill:#C8C9CA;fill-rule:nonzero}
    .fil31 {fill:#C99E12;fill-rule:nonzero}
    .fil90 {fill:#C9C9CB;fill-rule:nonzero}
    .fil102 {fill:#C9C9CC;fill-rule:nonzero}
    .fil117 {fill:#C9CACB;fill-rule:nonzero}
    .fil39 {fill:#CA9F11;fill-rule:nonzero}
    .fil80 {fill:#CACACC;fill-rule:nonzero}
    .fil112 {fill:#CACBCC;fill-rule:nonzero}
    .fil111 {fill:#CBCBCD;fill-rule:nonzero}
    .fil85 {fill:#CBCCCD;fill-rule:nonzero}
    .fil113 {fill:#CCCCCD;fill-rule:nonzero}
    .fil82 {fill:#CCCCCE;fill-rule:nonzero}
    .fil119 {fill:#CCCDCE;fill-rule:nonzero}
    .fil98 {fill:#CDCDCF;fill-rule:nonzero}
    .fil106 {fill:#CECFD0;fill-rule:nonzero}
    .fil110 {fill:#CFCFD1;fill-rule:nonzero}
    .fil6 {fill:#DE321B;fill-rule:nonzero}
    .fil0 {fill:#F3F3F3;fill-rule:nonzero}
    .fil17 {fill:whitesmoke;fill-rule:nonzero}
    .fil37 {fill:#F5F5F6;fill-rule:nonzero}
    .fil15 {fill:#F6B407;fill-rule:nonzero}
    .fil25 {fill:#F6F6F6;fill-rule:nonzero}
    .fil4 {fill:#F7F7F7;fill-rule:nonzero}
    .fil26 {fill:#F8F8F8;fill-rule:nonzero}
    .fil88 {fill:#F9F9F9;fill-rule:nonzero}
    .fil40 {fill:#FAFAFA;fill-rule:nonzero}
    .fil43 {fill:#FBFBFB;fill-rule:nonzero}
    .fil14 {fill:#FFEB06;fill-rule:nonzero}
   ]]>
  </style>
 </defs>
 <g id="Camada_x0020_1">
  <metadata id="CorelCorpID_0Corel-Layer"/>
  <g id="_2086142222784">
   <path class="fil0" d="M10238.54 6.29l54.09 0 288.46 102.16 60.09 24.04 42.07 48.08 6.01 18.03 0 54.08 -54.09 162.26 168.27 -168.27 48.08 -24.04 54.09 0 48.07 30.05 246.4 246.39 18.02 30.05 0 72.12 -36.06 54.08 -36.05 36.06 42.06 18.03 6.01 6.01 108.18 -36.06 66.1 0 48.08 30.05 24.04 48.07 114.18 318.51 0 54.09 -30.05 48.07 -42.06 24.04 -144.24 54.09 246.4 30.05 36.05 18.02 30.05 36.06 12.02 30.05 -6.01 96.15 -30.05 294.47 -24.04 36.06 -24.04 24.04 -60.09 12.02 -865.38 -84.14 -72.11 0.01 6.01 12.01 -12.02 150.24 -24.04 102.17 6.01 246.39 24.04 655.04 0 120.19 -18.03 36.06 -30.05 30.05 -30.04 12.02 -198.32 12.02 -198.32 0 -36.05 -18.03 -30.05 -36.06 -12.02 -36.06 -12.02 -156.25 -90.14 204.33 -24.04 36.06 -54.09 24.04 -42.07 0 -174.27 -72.12 -150.24 -66.1 -42.07 -24.04 -24.04 -36.06 -6.01 -60.1 42.07 -108.17 -6.01 -6.01 -24.04 12.02 6.01 -24.04 -78.13 72.12 -60.09 48.07 -30.05 12.02 -54.08 0.01 -36.06 -18.03 -48.08 -48.08 -42.06 -48.07 -60.1 -66.11 -42.07 -48.08 -54.08 -60.09 -18.03 -36.06 -6.01 -48.07 18.03 -48.08 102.16 -96.15 24.04 -24.04 -216.34 60.09 -48.08 0 -48.08 -24.04 -24.04 -30.05 -42.06 -126.2 -66.11 -228.36 0 -48.08 18.03 -36.06 30.05 -30.05 150.24 -48.07 18.02 -6.01 -78.12 -18.03 -144.23 -24.04 -48.08 -24.04 -24.04 -30.05 -12.02 -30.04 6.01 -84.14 48.08 -306.49 24.04 -36.06 24.04 -24.03 36.06 -12.02 72.11 6.01 84.13 12.01 30.05 0.01 -120.19 -84.13 -66.1 -48.08 -36.06 -42.07 -6.01 -18.02 0 -48.08 24.04 -48.08 162.26 -240.38 42.06 -54.08 36.06 -18.03 60.1 -0.01 66.1 36.06 54.09 36.06 -6.01 -36.06 0 -18.03 -66.11 -114.18 -12.02 -24.04 0 -66.11 24.04 -36.05 36.06 -30.05 174.28 -102.17 120.19 -72.11 60.09 -6.01 48.08 24.04 30.05 36.06 72.11 120.19 -6.01 -114.18 -6.01 -78.13 0 -66.1 18.03 -36.06 42.07 -36.06 54.08 -12.02 306.49 -30.05 42.07 0.01 48.08 24.04 30.05 36.05 18.02 126.2 6.01 54.09 6.01 6.01 66.11 -180.29 30.05 -60.09 30.05 -24.04 24.03 -12.02zm-703.12 408.65l6.01 12.02 -6.01 -12.02zm1087.74 6.01m510.81 276.44m-2079.31 6.01l6.01 12.02 -6.01 -12.02zm6.01 12.02m-12.02 18.03m24.04 0m6.01 12.02m6 6.01l6.01 12.01 -6.01 -12.01zm1995.18 0m-1989.17 12.02m6.02 6.01m-252.41 498.79m210.34 1069.7m426.68 366.59m-6.01 6.01m-6.01 6.01l-6.01 12.01 12.02 0.01 -6.01 -12.02zm-12.02 12.02m-12.02 6.01l-6.01 12.01 18.03 -6 -12.02 -6.01z"/>
   <path class="fil1" d="M8868.36 661.33l60.1 0 66.1 36.06 54.09 36.06 -6.01 -36.06 18.02 18.03 18.03 6.01 12.02 42.06 30.05 30.05 36.06 66.11 48.07 78.12 234.38 396.64 60.09 102.16 102.17 168.27 78.12 132.21 30.05 24.04 24.04 6.01 -36.06 -60.1 24.04 6.01 84.13 0 96.16 -12.02 6 -6.01 -12.01 -6.01 0 -12.02 -156.25 6.01 -30.05 -18.03 -18.03 -24.04 -12.02 -114.18 48.08 36.06 24.04 0 -6.01 -12.02 6.01 -18.03 -24.04 -12.02 -18.03 -24.04 0 -48.07 30.05 -84.14 12.02 6.01 24.04 48.08 54.08 54.08 -12.02 -24.03 -6 -24.04 12.01 -6.01 -36.05 -36.06 -6.01 -54.09 54.08 -66.1 36.06 -30.05 0 54.08 60.09 168.27 12.02 -30.05 -6.01 -48.07 -30.05 -84.14 0 -54.08 30.05 -30.05 78.13 -30.05 18.03 0.01 -12.02 30.04 -12.02 78.13 -18.03 222.36 -6.01 42.06 0 60.1 18.03 42.06 6.01 18.03 30.05 12.02 108.17 12.02 30.05 6.01 84.13 0 48.08 12.02 54.08 66.1 18.03 24.04 0 42.07 0 18.03 12.02 30.05 12.02 -30.05 6.01 -18.03 0 -48.08 -30.05 -48.07 -18.03 -18.03 0 -12.02 60.1 0 36.06 6.01 -12.02 36.05 6.01 -6.01 12.02 0 6.01 24.04 24.04 -48.07 54.08 0 30.05 6.01 6.01 24.04 -12.02 150.24 -24.04 102.16 6.01 246.39 24.04 655.05 0 120.19 -18.03 36.05 -30.05 30.05 -30.04 12.02 -198.32 12.02 -198.32 0 -36.05 -18.03 -30.05 -36.06 -12.02 -36.06 -12.02 -156.25 -90.14 204.33 -24.04 36.06 -54.09 24.04 -42.07 0 -174.27 -72.12 -150.24 -66.1 -42.07 -24.04 -24.04 -36.06 -6.01 -60.1 42.07 -108.17 -6.01 -6.01 -24.04 12.02 6.01 -24.04 -78.13 72.12 -60.09 48.07 -30.05 12.02 -54.08 0.01 -36.06 -18.03 -48.08 -48.08 -42.06 -48.07 -60.1 -66.11 -42.07 -48.08 -54.08 -60.09 -18.03 -36.06 -6.01 -48.07 18.03 -48.08 102.16 -96.15 24.04 -24.04 -216.34 60.09 -48.08 0 -48.08 -24.04 -24.04 -30.05 -42.06 -126.2 -66.11 -228.36 0 -48.08 18.03 -36.06 30.05 -30.05 150.24 -48.07 18.02 -6.01 -78.12 -18.03 -144.23 -24.04 -48.08 -24.04 -24.04 -30.05 -12.02 -30.04 6.01 -84.14 48.08 -306.49 24.04 -36.06 24.04 -24.03 36.06 -12.02 72.11 6.01 84.13 12.01 30.05 0.01 -120.19 -84.13 -66.1 -48.08 -36.06 -42.07 -6.01 -18.02 0 -48.08 24.04 -48.08 162.26 -240.38 42.06 -54.08 36.06 -18.04zm180.29 72.12m-204.33 534.85m210.34 1069.7m426.68 366.59m-6.01 6.01m-6.01 6.01l-6.01 12.01 12.02 0.01 -6.01 -12.02zm-12.02 12.02m-12.02 6.01l-6.01 12.01 18.03 -6 -12.02 -6.01z"/>
   <polygon class="fil2" points="10088.3,1184.17 10166.43,1184.17 11566.66,1322.38 11602.72,1340.41 11620.74,1364.45 11620.74,1436.57 11590.7,1743.06 11572.67,1773.1 11548.63,1791.13 11482.53,1791.13 10082.29,1652.91 10040.23,1634.89 10022.2,1616.86 10016.19,1568.78 10046.24,1256.28 10058.26,1208.21 "/>
   <polygon class="fil3" points="3730.18,919.74 4108.78,919.74 4144.83,991.86 4283.05,1316.38 4367.19,1514.69 4373.2,1520.7 4577.52,1027.92 4619.59,925.75 4625.6,919.74 4998.19,919.74 5004.2,943.78 4908.05,961.81 4884.01,991.86 4878,1015.9 4878,1761.09 4890.02,1803.15 4944.11,1821.18 5004.2,1827.19 5004.2,1851.23 4517.43,1851.23 4517.43,1827.19 4601.56,1815.17 4631.61,1791.13 4637.62,1773.1 4643.63,1682.96 4643.63,1027.92 4535.45,1280.32 4427.28,1538.73 4313.1,1809.16 4295.07,1851.23 4271.04,1851.23 4150.84,1574.79 4018.63,1268.3 3922.48,1045.94 3922.48,1755.07 3940.51,1785.12 3940.51,1797.14 3970.56,1809.16 4048.68,1827.19 4048.68,1851.23 3730.18,1851.23 3730.18,1827.19 3790.27,1815.17 3832.34,1791.13 3850.36,1755.07 3856.37,1725.03 3856.37,1045.94 3844.35,985.85 3820.32,961.81 3772.24,949.79 3736.18,949.79 "/>
   <path class="fil4" d="M8868.36 661.33l30.05 6.01 -6.01 12.02 6.01 18.03 -42.07 18.02 -42.06 60.1 -156.25 234.37 -12.02 42.07 12.02 30.05 42.06 36.06 162.26 108.17 468.75 318.51 114.18 78.12 36.06 24.04 -6.01 24.04 30.05 36.06 -30.05 -12.02 -318.51 -216.34 -150.24 -102.17 -60.09 -42.06 -84.14 -18.03 -162.25 -24.04 -60.1 0 -30.05 24.04 -18.03 90.14 -42.07 282.45 18.03 42.07 36.06 18.03 318.51 48.07 685.09 108.17 -6.01 30.05 12.02 6.01 -54.09 0 -576.92 -90.14 -66.1 0 -204.33 60.09 -48.07 18.03 -18.03 18.03 -6.01 48.07 102.16 336.54 30.05 30.05 54.08 0 943.51 -276.44 36.05 0 24.04 24.04 -48.07 18.03 -270.43 78.12 -324.52 96.16 -36.06 18.02 -66.11 60.1 -48.07 42.07 -60.1 54.08 -24.04 18.03 -6 18.03 0 42.06 24.03 36.06 84.14 90.14 42.07 48.08 60.09 66.11 36.06 42.06 12.02 6.01 54.08 0.01 66.11 -54.09 84.13 -78.12 66.11 -54.09 90.14 -84.13 48.08 -42.07 60.09 -54.08 48.08 -42.07 60.09 -54.09 48.08 -42.06 84.13 -72.12 72.12 -66.1 24.04 -12.02 6.01 6.01 42.06 -6.01 -30.04 30.05 -90.15 84.13 -66.1 54.08 -90.15 84.14 -48.07 42.07 -60.1 54.08 -48.07 42.07 -60.1 54.08 -60.09 132.21 -48.08 120.19 0 42.07 12.02 24.04 120.19 54.09 216.35 90.14 48.07 0 30.05 -30.05 132.21 -306.49 198.31 -462.74 42.07 -96.15 30.05 -6.01 12.02 -12.01 -6.01 42.06 -72.12 162.26 -138.22 324.52 -18.02 42.06 0 96.16 6.01 162.25 12.01 48.08 18.03 18.03 18.03 6.01 96.15 0 264.43 -12.02 36.05 -12.02 18.03 -24.04 0 -150.24 -24.04 -655.04 0 -156.25 6.01 12.02 12.02 -6.01 12.02 -18.03 6.01 18.03 6.01 150.24 6.01 30.05 24.03 655.04 0 120.19 -18.02 36.06 -30.05 30.05 -30.05 12.02 -198.32 12.02 -198.31 0 -36.05 -18.03 -30.05 -36.06 -12.02 -36.06 -12.02 -156.25 -90.14 204.33 -24.04 36.06 -54.09 24.04 -42.07 0 -174.27 -72.12 -150.24 -66.1 -42.07 -24.04 -24.04 -36.06 -6.01 -60.1 42.07 -108.17 -6.01 -6.01 -24.04 12.02 6.01 -24.04 -78.13 72.12 -60.09 48.07 -30.05 12.02 -54.08 0.01 -36.06 -18.03 -48.08 -48.08 -42.06 -48.07 -60.1 -66.11 -42.07 -48.08 -54.08 -60.09 -18.03 -36.06 -6.01 -48.07 18.03 -48.08 102.16 -96.15 24.04 -24.04 -216.34 60.09 -48.08 0 -48.08 -24.04 -24.04 -30.05 -42.06 -126.2 -66.11 -228.36 0 -48.08 18.03 -36.06 30.05 -30.05 150.24 -48.07 18.02 -6.01 -78.12 -18.03 -144.23 -24.04 -48.08 -24.04 -24.04 -30.05 -12.02 -30.04 6.01 -84.14 48.08 -306.49 24.04 -36.06 24.04 -24.03 36.06 -12.02 72.11 6.01 84.13 12.01 30.05 0.01 -120.19 -84.13 -66.1 -48.08 -36.06 -42.07 -6.01 -18.02 0 -48.08 24.04 -48.08 162.26 -240.38 42.06 -54.08 36.06 -18.04zm-24.04 606.97m210.34 1069.7m426.68 366.59m-6.01 6.01m-6.01 6.01l-6.01 12.01 12.02 0.01 -6.01 -12.02zm-12.02 12.02m-12.02 6.01l-6.01 12.01 18.03 -6 -12.02 -6.01z"/>
   <polygon class="fil5" points="8880.38,661.33 8928.46,661.33 8994.56,697.39 9048.65,733.45 9042.64,697.39 9060.66,715.42 9078.69,721.43 9090.71,763.49 9120.76,793.54 9156.82,859.65 9204.89,937.77 9439.27,1334.41 9499.36,1436.57 9601.53,1604.84 9691.67,1761.09 9709.7,1791.13 9709.7,1803.15 9679.65,1791.13 9571.47,1713.01 9355.13,1568.78 9271,1508.69 9162.82,1436.57 8994.56,1322.39 8676.05,1106.04 8646,1076 8639.99,1039.94 8658.02,997.87 8796.24,793.55 8850.32,715.42 8880.37,697.39 8892.39,691.38 "/>
   <polygon class="fil6" points="10208.49,1995.46 10220.51,2007.48 10154.41,2061.56 10064.26,2139.69 10004.17,2193.77 9920.04,2265.89 9847.92,2331.99 9799.84,2374.06 9739.75,2428.14 9691.67,2470.21 9631.58,2524.3 9583.5,2566.36 9523.41,2620.45 9475.33,2662.52 9391.2,2734.63 9313.07,2806.75 9258.99,2848.81 9204.9,2848.82 9156.82,2806.75 9114.75,2758.68 9006.58,2638.48 8964.51,2590.41 8940.47,2554.35 8940.47,2512.28 8958.5,2482.24 9042.63,2410.12 9126.77,2332 9168.84,2301.95 9427.25,2223.82 9739.74,2133.68 9980.13,2061.56 "/>
   <polygon class="fil7" points="8916.44,1845.22 8982.54,1845.22 9715.71,1959.4 10022.2,2007.48 10028.21,2019.5 9769.8,2091.61 9258.98,2241.85 8826.29,2368.05 8772.21,2368.05 8742.16,2344.01 8706.1,2235.84 8633.99,1995.46 8640,1947.38 8676.05,1917.33 8814.27,1875.27 "/>
   <polygon class="fil8" points="10845.51,264.7 10905.61,264.7 10953.68,306.77 11176.04,529.12 11182.05,541.14 11182.05,583.21 11158.01,619.27 10977.72,799.55 10833.49,853.64 10442.87,991.86 10112.34,1112.05 9956.09,1166.13 9938.07,1160.12 10040.23,1057.96 10088.31,1015.89 10827.48,276.72 "/>
   <polygon class="fil9" points="8640,1286.33 8700.09,1286.33 8928.46,1322.39 8982.54,1352.44 9066.68,1412.53 9156.82,1472.62 9583.5,1761.08 9727.73,1857.24 9847.92,1941.37 9829.9,1947.38 8772.21,1779.11 8603.94,1755.07 8567.89,1737.04 8549.86,1713 8543.85,1682.96 8597.93,1334.4 8615.96,1304.35 "/>
   <polygon class="fil10" points="11326.28,715.42 11368.34,721.43 11398.39,751.48 11506.56,1051.95 11518.58,1088.01 11512.57,1130.08 11488.53,1160.13 11302.24,1226.23 11242.14,1250.27 11170.03,1250.27 10136.38,1148.11 10136.38,1136.09 10376.76,1051.96 10472.91,1015.9 10611.13,967.82 10929.64,853.64 11182.04,763.5 "/>
   <polygon class="fil11" points="9331.1,270.71 9385.18,270.71 9421.24,300.76 9457.3,366.86 9547.44,517.1 9559.46,589.22 9625.57,1292.34 9655.62,1592.82 9655.62,1622.87 9643.59,1622.86 9547.44,1448.59 9469.32,1322.39 9379.18,1166.14 9325.09,1076 9258.98,967.82 9222.93,901.72 9168.84,811.57 9012.59,547.15 9000.57,529.12 9006.58,475.04 9048.65,438.98 9222.93,336.82 "/>
   <polygon class="fil12" points="10250.56,42.35 10292.63,48.36 10611.14,162.54 10635.18,174.56 10653.2,210.62 10647.19,252.68 10575.08,457.01 10557.05,499.07 9829.89,1226.23 9781.82,1262.29 9787.83,1232.24 9877.97,979.84 9998.16,649.31 10124.36,300.76 10202.49,90.42 10226.52,54.37 "/>
   <polygon class="fil13" points="9883.98,78.4 9986.14,78.4 10016.19,102.44 10028.21,150.52 10052.25,396.91 10010.18,523.11 9889.99,853.64 9775.81,1172.14 9685.66,1418.54 9673.65,1430.55 9667.64,1412.53 9637.59,1051.95 9559.46,222.63 9559.46,144.51 9601.53,108.45 9763.79,90.42 "/>
   <polygon class="fil14" points="10496.96,1959.4 10502.97,1959.4 10514.98,2229.83 10539.02,2884.87 10539.02,3035.11 10508.97,3071.17 10478.93,3077.18 10214.5,3089.2 10118.35,3089.2 10088.3,3071.17 10070.28,3047.14 10064.27,3011.08 10058.26,2848.82 10058.26,2752.67 10202.49,2416.13 10226.53,2368.06 10238.54,2368.05 10256.57,2313.97 10292.63,2247.86 10364.74,2163.73 10424.84,2085.6 10460.9,2025.51 10490.94,1965.41 "/>
   <polygon class="fil15" points="10256.57,2163.72 10268.59,2163.72 10262.58,2193.77 10184.46,2380.07 10070.28,2644.49 9944.08,2938.96 9883.98,3077.18 9853.93,3101.22 9805.85,3101.22 9535.42,2987.04 9463.31,2950.98 9451.29,2926.94 9451.29,2884.87 9487.35,2794.73 9517.39,2764.68 9547.44,2740.64 9625.57,2680.55 9667.63,2638.48 9733.74,2584.4 9781.82,2542.33 9847.92,2488.24 9920.04,2422.14 9992.15,2368.05 10028.21,2332 10040.23,2332 10040.23,2319.98 10088.3,2277.91 10184.46,2211.8 "/>
   <polygon class="fil16" points="442.94,901.72 581.16,901.72 683.32,925.76 785.48,961.81 827.55,955.8 851.59,919.75 857.6,901.72 887.65,901.72 887.65,1220.22 857.6,1226.23 821.54,1130.08 779.47,1063.97 725.39,1015.9 653.27,979.84 605.2,967.82 521.06,967.82 442.94,991.86 376.83,1033.93 328.76,1088.01 286.69,1178.16 268.66,1250.27 262.65,1292.34 262.65,1466.62 280.68,1568.78 310.73,1658.92 346.79,1713.01 376.83,1743.06 406.88,1767.1 460.97,1791.13 533.08,1803.15 581.16,1803.15 671.3,1785.12 755.43,1743.06 833.56,1670.94 869.62,1640.89 869.62,1719.02 845.58,1749.07 767.45,1809.16 695.34,1845.22 599.18,1869.26 545.1,1875.27 466.97,1875.27 352.79,1857.24 268.66,1827.19 202.55,1791.13 142.46,1743.06 94.38,1688.97 46.31,1604.84 16.26,1520.7 4.24,1448.59 4.24,1364.45 22.27,1262.29 58.32,1172.15 118.42,1082 190.53,1009.89 274.67,955.8 358.8,919.75 "/>
   <path class="fil17" d="M10238.54 6.29l54.09 0 288.46 102.16 60.09 24.04 42.07 48.08 6.01 18.03 0 54.08 -54.09 162.26 168.27 -168.27 48.08 -24.04 54.09 0 48.07 30.05 246.4 246.39 18.02 30.05 0 42.07 -30.05 6.01 -18.02 -48.08 -252.4 -252.4 -12.02 -6.01 -60.1 0 -60.09 54.08 -625 625 -12.02 0 -6.01 -12.02 -42.07 24.04 12.02 -24.04 444.71 -444.7 72.12 -210.34 18.02 -48.08 -6.01 -42.06 -6 -18.03 -54.09 -18.03 -306.49 -108.17 -36.06 6.01 -24.04 24.04 -42.06 108.17 -132.21 366.59 -120.19 330.52 -66.11 180.29 -12.02 -0.01 0 -12.01 -18.03 0 6.01 -48.08 120.19 -336.54 90.15 -246.39 6.01 -36.06 -24.04 -234.37 -12.02 -48.08 -24.04 -18.02 -102.16 -0.01 -120.19 12.02 -162.26 18.03 -36.06 30.05 0 78.12 84.13 895.43 0 114.18 -24.04 30.05 -12.01 -36.06 -66.11 -691.1 -36.06 -66.1 -78.12 -132.21 -30.05 -48.08 -18.03 -12.02 -54.08 0 -192.31 114.18 -108.17 66.11 -18.03 18.02 -6.01 54.09 96.15 162.26 78.13 132.21 72.11 120.19 84.14 144.23 174.27 294.47 -6.01 36.06 12.02 42.06 -24.04 -24.04 -90.14 -156.25 -48.08 -78.12 -84.13 -144.23 -78.13 -132.21 -42.06 -66.11 -48.08 -84.13 -24.04 -36.06 0 -18.03 -18.03 -6.01 -60.09 -108.17 -36.06 -66.1 0 -66.11 24.04 -36.06 36.06 -30.05 174.28 -102.16 120.19 -72.12 60.09 -6.01 48.08 24.04 30.05 36.06 72.11 120.19 -6.01 -114.18 -6.01 -78.12 0 -66.11 18.03 -36.06 42.07 -36.06 54.08 -12.01 306.49 -30.05 42.07 0.01 48.08 24.04 30.05 36.05 18.02 126.2 6.01 54.09 6.01 6.01 66.11 -180.29 30.05 -60.09 30.05 -24.04 24.03 -12.02zm-703.12 408.65l6.01 12.02 -6.01 -12.02z"/>
   <path class="fil16" d="M5352.76 1190.17l78.12 0 60.1 12.02 48.07 24.04 54.09 48.08 24.04 60.09 6.01 396.63 12.02 30.05 30.05 0 12.02 -12.01 24.04 6 0 18.03 -42.07 48.08 -30.05 24.04 -30.05 12.02 -60.09 6 -54.09 -12.01 -42.07 -36.06 -12.01 -30.05 0 -24.04 -84.14 60.1 -60.09 30.04 -78.13 12.02 -48.07 -12.02 -36.06 -24.04 -24.04 -30.04 -12.02 -36.06 0 -60.1 24.04 -54.08 42.07 -48.08 42.07 -36.06 96.15 -54.08 120.19 -60.09 12.01 0 -6 -144.23 -12.02 -36.06 -30.05 -12.02 -18.03 -6.01 -48.08 0 -42.06 18.03 -12.02 12.02 6.01 36.06 30.04 42.06 0 54.09 -24.03 36.06 -36.06 18.02 -60.1 0.01 -36.05 -18.03 -30.05 -36.06 -6.01 -54.08 24.04 -60.1 48.07 -48.08 72.12 -36.05 66.1 -18.03 42.07 -6.02zm66.11 306.49l-60.1 42.07 -54.08 54.09 -24.04 48.07 0 54.09 24.04 36.05 18.02 12.02 48.08 0.01 48.08 -30.05 6 -6.01 0 -210.34 -6 0z"/>
   <path class="fil16" d="M1278.27 1190.17l72.11 0 72.12 18.03 66.1 36.06 48.08 42.07 42.07 66.1 24.04 66.11 12.01 60.09 0 108.18 -24.04 96.15 -30.04 60.09 -48.08 60.1 -66.11 42.06 -78.12 24.04 -108.17 0.01 -78.13 -24.04 -54.08 -36.06 -42.07 -42.07 -42.06 -72.11 -24.04 -72.12 -6.01 -42.07 0 -96.15 24.04 -96.15 36.05 -72.11 42.07 -54.09 60.1 -42.07 66.1 -24.04 36.06 -6.01zm6.01 54.09l-36.06 30.05 -18.03 42.07 -12.02 96.15 0 270.43 12.02 72.12 24.04 42.06 42.07 24.04 42.06 0 36.06 -24.04 24.04 -48.07 12.02 -84.14 0 -300.48 -18.03 -72.11 -24.04 -36.06 -18.03 -12.02 -66.1 0z"/>
   <path class="fil16" d="M2366 1190.17l72.12 0 72.11 18.03 60.1 30.05 60.09 54.09 36.06 54.08 30.05 78.13 12.02 90.14 -6.01 96.15 -24.04 84.13 -36.06 60.1 -54.09 60.09 -48.07 30.05 -54.09 18.03 -30.05 6.01 -108.17 0.01 -78.12 -24.04 -60.1 -42.07 -42.06 -48.08 -42.07 -84.13 -18.03 -66.11 0 -144.23 30.05 -96.15 36.06 -60.09 54.08 -60.1 48.08 -30.05 54.08 -18.02 36.06 -6.02zm12.02 54.09l-36.06 24.04 -24.04 66.11 -12.02 138.22 0 174.27 12.02 96.16 24.04 48.07 30.05 24.04 12.02 6.01 42.07 0 30.04 -18.03 24.04 -30.05 18.03 -72.11 6.01 -84.13 0 -216.35 -12.02 -84.13 -24.04 -48.08 -30.05 -24.04 -60.09 0z"/>
   <path class="fil18" d="M7053.47 1190.17l60.09 0 60.1 18.03 60.09 36.06 42.07 48.08 36.06 72.11 18.03 84.14 0 60.09 -348.56 0 18.03 102.17 42.07 84.13 30.05 36.06 48.07 24.04 54.09 6.01 54.08 -18.03 48.08 -42.07 30.05 -42.06 24.04 12.01 -6.01 30.05 -48.08 72.12 -54.08 54.08 -60.1 30.05 -42.06 12.02 -102.17 0 -78.12 -24.04 -54.09 -42.07 -42.06 -54.08 -30.05 -66.11 -18.03 -78.13 0 -126.2 24.04 -96.15 30.05 -60.09 54.08 -60.1 54.09 -42.06 60.09 -24.04 36.06 -6.02zm0 48.08l-36.06 30.05 -24.04 48.08 -12.02 42.06 -6 48.08 0 54.08 186.29 0.01 0 -84.14 -12.02 -72.11 -24.04 -42.07 -30.05 -24.04 -42.06 0z"/>
   <polygon class="fil19" points="1692.93,919.74 1963.36,919.74 1969.37,1761.08 1981.39,1803.15 2023.45,1821.18 2041.48,1827.19 2041.48,1851.23 1692.93,1851.23 1692.93,1827.19 1741,1809.16 1759.03,1791.13 1765.04,1761.09 1765.04,1015.9 1753.02,961.81 1698.94,949.79 "/>
   <polygon class="fil20" points="6548.66,973.83 6578.71,979.84 6578.71,1202.2 6728.95,1208.2 6728.95,1280.32 6578.71,1280.32 6584.72,1749.07 6608.76,1773.1 6644.82,1773.1 6692.89,1731.04 6710.92,1713.01 6728.95,1731.04 6704.91,1779.11 6668.85,1821.18 6632.79,1845.22 6596.73,1857.24 6536.64,1863.25 6476.55,1851.23 6428.47,1815.17 6398.42,1779.11 6386.4,1755.07 6380.39,1700.99 6380.39,1280.32 6302.27,1280.32 6296.26,1256.28 6350.35,1208.2 6398.42,1166.14 6428.47,1142.1 6482.56,1075.99 6542.65,985.85 "/>
   <polygon class="fil16" points="5947.71,1190.17 6007.8,1190.17 6085.93,1214.21 6128,1220.22 6152.04,1196.18 6182.08,1196.18 6188.09,1292.34 6188.09,1412.53 6158.04,1406.52 6109.97,1316.38 6067.9,1274.31 6013.81,1250.27 5971.75,1250.27 5941.7,1268.3 5929.68,1298.35 5935.69,1334.41 5995.78,1388.49 6097.95,1460.61 6164.05,1514.69 6206.12,1568.78 6224.15,1622.86 6224.15,1694.98 6200.11,1767.09 6158.04,1821.18 6097.95,1857.24 6055.88,1869.25 5971.75,1869.26 5875.59,1839.21 5845.55,1845.22 5827.52,1869.26 5803.48,1869.26 5797.47,1827.19 5791.46,1640.89 5815.5,1634.88 5869.58,1737.05 5911.65,1779.11 5971.74,1809.16 6025.83,1809.16 6055.88,1791.13 6067.9,1767.1 6067.9,1725.03 6043.86,1682.96 5929.68,1598.83 5851.55,1538.73 5809.49,1490.66 5785.45,1430.56 5785.45,1340.42 5809.49,1280.33 5851.55,1232.25 5899.63,1202.2 "/>
   <polygon class="fil21" points="7858.75,1190.17 7900.82,1190.17 7936.88,1208.2 7954.9,1226.23 7966.92,1268.3 7960.91,1328.39 7936.87,1364.45 7918.85,1376.47 7852.74,1376.47 7816.69,1352.43 7792.65,1334.41 7756.59,1334.41 7726.54,1358.45 7702.5,1406.52 7684.47,1496.66 7684.47,1785.12 7714.52,1815.17 7762.6,1827.19 7762.6,1851.23 7414.04,1851.23 7414.04,1827.19 7468.13,1803.15 7474.14,1785.12 7480.15,1688.97 7480.15,1322.39 7468.13,1262.29 7444.09,1244.27 7414.04,1238.26 7414.04,1208.21 7672.45,1208.2 7678.46,1214.21 7684.47,1334.41 7750.58,1250.27 7804.66,1208.2 "/>
   <polygon class="fil22" points="3249.41,1190.17 3291.48,1190.17 3327.53,1208.2 3351.57,1238.25 3357.58,1256.28 3357.58,1310.36 3333.54,1358.44 3309.5,1376.47 3243.4,1376.47 3183.31,1334.41 3147.25,1334.41 3117.2,1364.45 3093.16,1412.53 3075.13,1502.67 3075.13,1779.11 3093.16,1809.16 3153.25,1827.19 3153.25,1851.23 2804.7,1851.23 2804.7,1827.19 2858.79,1803.15 2870.8,1755.07 2870.8,1292.34 2852.78,1250.27 2804.7,1238.25 2804.7,1208.2 3069.12,1208.2 3075.13,1340.41 3123.21,1274.31 3177.29,1220.22 3225.37,1196.18 "/>
   <polygon class="fil23" points="8922.45,703.4 8988.55,745.47 9150.81,853.64 9192.88,913.73 9246.96,1009.89 9337.11,1160.13 9403.21,1274.31 9457.3,1364.45 9559.46,1538.73 9661.63,1707 9709.7,1791.13 9709.7,1803.15 9679.65,1791.13 9571.48,1713 9427.25,1616.85 9409.22,1562.77 9367.15,1490.65 9337.11,1430.56 9295.04,1364.45 9246.96,1280.32 9210.9,1226.23 9090.71,1015.9 9042.64,937.77 8940.47,733.45 8922.45,715.42 "/>
   <polygon class="fil24" points="10016.19,1178.16 10034.22,1178.16 10022.2,1208.2 10010.18,1286.33 9992.15,1508.69 9986.14,1550.75 9986.14,1610.85 10004.17,1652.91 10010.18,1670.94 10040.23,1682.96 10076.29,1694.98 10076.29,1707 10094.32,1713 10034.22,1791.13 10016.19,1821.18 9932.06,1833.2 9889.99,1833.2 9889.99,1821.18 9998.16,1755.07 9998.16,1749.07 9956.09,1749.07 9853.93,1803.15 9823.88,1821.18 9787.83,1821.18 9751.77,1797.14 9697.68,1713.01 9709.7,1707 9721.72,1713.01 9805.85,1713.01 9902.01,1700.99 9908.01,1694.98 9896,1688.97 9896,1676.95 9739.75,1682.96 9709.7,1664.93 9691.67,1640.89 9679.65,1526.71 9727.73,1562.77 9751.77,1562.77 9745.76,1550.75 9751.77,1532.72 9727.73,1520.7 9709.7,1496.66 9709.7,1448.59 9739.75,1364.45 9751.77,1370.46 9775.81,1418.54 9829.89,1472.62 9817.87,1448.59 9811.87,1424.55 9823.88,1418.54 9787.83,1382.48 9781.82,1328.39 9835.9,1262.29 9871.96,1232.24 9871.96,1286.32 9932.05,1454.59 9944.07,1424.54 9938.06,1376.47 9908.01,1292.33 9908.01,1238.25 9938.06,1208.2 "/>
   <polygon class="fil25" points="10238.54,6.29 10292.63,6.29 10581.09,108.45 10641.18,132.49 10683.25,180.57 10689.26,198.6 10689.26,252.68 10635.17,414.94 10803.44,246.67 10851.52,222.63 10905.61,222.63 10953.68,252.68 11200.08,499.07 11218.1,529.12 11218.1,571.19 11188.05,577.2 11170.03,529.12 10917.63,276.72 10905.61,270.71 10845.51,270.71 10785.42,324.79 10160.42,949.79 10148.4,949.79 10142.39,937.77 10100.32,961.81 10112.34,937.77 10557.05,493.07 10629.17,282.73 10647.19,234.65 10641.18,192.59 10635.18,174.56 10581.09,156.53 10274.6,48.36 10238.54,54.37 10214.5,78.41 10172.44,186.58 10040.23,553.17 9920.04,883.69 9853.93,1063.98 9841.91,1063.97 9841.91,1051.96 9823.88,1051.96 9829.89,1003.88 9950.08,667.34 10040.23,420.95 10046.24,384.89 10028.21,210.62 10028.21,162.54 10040.23,180.57 10064.27,168.55 10070.28,168.55 10082.29,276.72 10088.3,282.73 10154.41,102.44 10184.46,42.35 10214.51,18.31 "/>
   <polygon class="fil8" points="10575.08,354.84 10605.13,354.84 10587.1,420.95 10563.06,493.07 9829.89,1226.23 9781.82,1262.29 9787.83,1232.24 9877.97,979.84 9902.01,925.76 9908.02,943.78 9944.08,931.76 9986.14,889.7 10034.22,847.63 10184.46,697.39 10196.48,697.39 10208.49,673.35 10298.64,589.22 10370.75,511.09 10436.86,444.99 10472.92,402.92 10533.01,360.85 "/>
   <polygon class="fil26" points="10533.01,2061.56 10545.03,2079.59 10551.04,2229.83 10557.05,2259.88 10581.09,2914.92 10581.09,3035.11 10563.06,3071.17 10533.01,3101.22 10502.96,3113.24 10304.65,3125.26 10106.33,3125.26 10070.28,3107.23 10040.23,3071.17 10028.21,3035.11 10016.19,2878.86 9926.05,3083.19 9902.01,3119.25 9847.92,3143.29 9805.85,3143.29 9631.58,3071.17 9481.34,3005.07 9439.27,2981.03 9421.24,2950.98 9451.29,2950.98 9451.29,2938.96 9463.31,2938.96 9481.34,2956.99 9619.56,3017.08 9805.85,3095.21 9853.93,3095.21 9883.98,3065.16 10016.19,2758.67 10214.5,2295.93 10256.57,2199.78 10286.62,2193.77 10298.64,2181.76 10292.63,2223.82 10220.51,2386.08 10082.29,2710.6 10064.27,2752.66 10064.27,2848.82 10070.28,3011.07 10082.29,3059.15 10100.32,3077.18 10118.35,3083.19 10214.5,3083.19 10478.93,3071.17 10514.98,3059.15 10533.01,3035.11 10533.01,2884.87 10508.97,2229.83 10508.97,2073.58 10514.98,2085.6 10527,2079.59 "/>
   <polygon class="fil27" points="11025.8,661.33 11103.92,661.33 11091.9,685.37 10977.72,799.55 10833.49,853.64 10442.87,991.86 10112.34,1112.05 9956.09,1166.14 9938.07,1160.13 10040.23,1057.96 10088.31,1015.9 10136.38,967.82 10160.42,973.83 10250.56,937.77 10376.77,895.7 10514.98,841.62 10713.3,775.51 10887.58,709.41 10947.67,685.37 "/>
   <polygon class="fil28" points="10322.68,1069.98 10352.73,1069.98 10358.73,1075.99 10490.94,1075.99 10671.23,1088.01 10827.48,1106.04 10941.66,1118.06 11127.96,1136.08 11290.22,1154.11 11362.33,1178.15 11404.4,1178.16 11404.4,1190.17 11242.14,1250.27 11170.03,1250.27 10136.38,1148.11 10136.38,1136.09 "/>
   <polygon class="fil29" points="10142.39,931.76 10154.41,955.8 10052.25,1057.97 10004.17,1100.03 9944.08,1160.13 10010.18,1142.1 10292.63,1039.94 10346.72,1045.95 10346.72,1057.96 10358.73,1063.97 10154.41,1136.09 10136.38,1136.09 10136.38,1148.11 10082.3,1154.12 10046.24,1166.14 10046.24,1178.15 9968.11,1202.19 9920.04,1226.23 9914.03,1238.25 9914.03,1292.34 9950.09,1394.5 9950.09,1424.55 9944.08,1430.56 9938.07,1472.62 9926.05,1454.6 9865.96,1286.33 9865.96,1238.25 9793.84,1316.38 9787.83,1358.45 9799.85,1388.49 9829.9,1418.54 9823.89,1430.56 9811.87,1424.55 9841.92,1478.64 9817.88,1466.62 9763.79,1412.53 9745.77,1370.47 9721.73,1430.56 9715.72,1448.59 9715.72,1496.66 9739.76,1526.71 9751.78,1532.72 9757.79,1562.77 9769.8,1574.79 9727.74,1568.78 9685.67,1532.72 9697.69,1640.89 9721.73,1670.94 9739.76,1676.95 9896,1676.95 9896,1688.97 9926.05,1694.98 9902.01,1707 9805.86,1719.01 9721.72,1719.02 9709.7,1719.02 9733.74,1755.07 9733.74,1767.09 9703.69,1761.08 9679.65,1749.07 9577.49,1574.79 9511.38,1466.62 9499.36,1406.52 9517.39,1388.49 9595.52,1526.71 9643.59,1610.85 9643.59,1622.86 9655.62,1622.86 9643.6,1520.7 9619.56,1292.34 9619.56,1244.26 9643.6,1232.24 9649.61,1184.17 9655.62,1184.17 9673.64,1412.53 9679.65,1418.54 9781.82,1136.09 9817.87,1033.93 9823.88,1051.95 9841.91,1051.96 9847.92,1082 9787.83,1244.26 9793.84,1250.27 9883.98,1166.14 10094.31,955.8 10118.35,943.79 "/>
   <polygon class="fil30" points="9475.33,1652.91 9499.37,1658.92 9595.52,1725.03 9697.68,1797.14 9709.7,1803.15 9685.66,1761.09 9691.67,1743.06 9709.7,1761.09 9739.75,1767.1 9763.79,1803.15 9787.83,1815.17 9823.88,1815.17 9956.09,1743.06 10016.19,1743.06 9986.14,1767.1 9902.01,1821.18 9889.99,1821.18 9889.99,1833.2 10004.17,1815.17 10016.19,1821.18 10028.21,1791.13 10088.3,1713.01 10064.26,1707 10070.27,1700.99 10058.25,1688.97 10148.39,1694.98 10172.43,1700.99 10172.43,1755.07 10148.39,1923.34 10130.37,1971.42 10094.31,2001.47 10058.25,2013.48 9986.14,2007.48 9595.51,1947.38 9607.53,1911.32 9679.65,1917.33 9841.91,1941.37 9727.72,1863.25 9505.37,1713.01 9469.31,1664.93 "/>
   <polygon class="fil31" points="10496.96,1959.4 10502.97,1959.4 10508.97,2091.61 10496.96,2079.59 10466.91,2139.69 10436.86,2187.76 10382.77,2301.94 10352.73,2374.06 10322.68,2440.17 10292.63,2512.28 10232.53,2662.52 10190.47,2758.67 10160.42,2818.77 10106.33,2963 10094.32,2993.05 10082.29,2993.05 10076.28,3011.07 10064.27,3011.08 10058.26,2848.82 10058.26,2752.67 10202.49,2416.13 10226.53,2368.06 10238.54,2368.05 10256.57,2313.97 10292.63,2247.86 10364.74,2163.73 10424.84,2085.6 10460.9,2025.51 10490.94,1965.41 "/>
   <polygon class="fil32" points="9451.29,372.87 9475.33,396.91 9547.44,517.1 9559.46,589.22 9625.57,1292.34 9655.62,1592.82 9655.62,1622.87 9643.59,1622.86 9547.44,1448.59 9523.4,1412.53 9523.4,1178.16 9511.39,1051.96 9475.33,739.46 9457.3,505.08 9463.31,426.96 "/>
   <polygon class="fil33" points="10376.77,1905.31 10382.77,1917.33 10274.6,2169.73 10244.55,2175.74 10160.42,2235.84 10088.3,2283.91 10052.25,2319.97 10040.23,2319.97 10040.23,2331.99 9992.15,2374.06 9908.02,2440.17 9835.9,2506.27 9775.81,2554.35 9709.7,2608.43 9613.55,2698.58 9547.44,2746.65 9511.39,2776.7 9493.36,2794.73 9511.39,2740.64 9559.46,2632.47 9607.54,2584.39 9655.61,2542.33 9715.71,2488.24 9763.78,2446.17 9823.88,2392.09 9871.95,2350.02 9956.09,2277.91 10040.22,2199.78 10106.33,2145.7 10208.49,2049.55 10256.57,2007.48 10340.7,1935.36 "/>
   <polygon class="fil34" points="10208.49,1995.46 10220.51,2007.48 10154.41,2061.56 10064.26,2139.69 10022.2,2175.74 9926.04,2181.75 9823.88,2199.78 9661.62,2253.87 9529.41,2295.93 9216.91,2380.07 9156.82,2392.08 9096.73,2386.07 9060.67,2398.09 9090.72,2368.04 9156.82,2307.95 9283.02,2265.88 9571.48,2181.75 9883.98,2091.61 10124.36,2019.49 "/>
   <polygon class="fil35" points="8916.44,1845.22 8982.54,1845.22 9715.71,1959.4 10022.2,2007.48 10028.21,2019.5 9829.89,2073.58 9781.82,2067.57 9679.65,2055.55 9643.59,2037.53 9541.43,2019.5 9174.85,1959.41 8958.5,1923.35 8904.42,1905.32 8886.39,1887.29 8886.39,1875.27 8856.34,1869.27 8874.37,1857.25 "/>
   <polygon class="fil36" points="10028.21,264.7 10040.23,270.71 10052.25,396.91 10010.18,523.11 9889.99,853.64 9775.8,1172.14 9685.66,1418.54 9673.64,1430.55 9667.63,1412.53 9655.62,1232.24 9691.67,1106.04 9751.77,997.87 9787.83,907.72 9829.89,787.53 9902.01,595.23 9950.08,463.02 9986.14,342.83 10022.2,300.76 "/>
   <polygon class="fil37" points="11182.05,553.16 11194.07,571.19 11218.11,571.19 11212.1,613.26 11170.03,667.34 11145.99,691.38 11188.06,709.41 11194.07,715.42 11302.24,679.36 11368.34,679.36 11416.42,709.41 11440.46,757.48 11554.64,1075.99 11554.64,1130.08 11524.59,1178.15 11500.55,1184.16 11470.5,1172.14 11470.5,1160.13 11500.55,1142.1 11512.57,1118.06 11506.56,1075.99 11464.49,949.79 11392.38,751.48 11368.34,727.44 11326.27,721.43 11218.1,757.48 10454.88,1027.92 10376.76,1057.96 10346.72,1057.96 10346.72,1045.95 10310.66,1045.95 10310.66,1033.93 10683.25,901.72 10965.7,799.55 11013.78,757.49 11164.02,607.25 "/>
   <polygon class="fil38" points="8838.31,1869.26 8886.39,1875.27 8916.44,1905.31 9018.6,1929.35 9210.91,1959.4 9541.43,2013.49 9643.6,2031.52 9679.66,2049.54 9781.82,2061.56 9811.87,2067.57 9811.87,2079.59 9739.75,2097.62 9739.75,2085.6 9649.61,2097.62 9565.48,2103.62 9493.36,2097.62 9403.22,2073.58 9126.78,2037.52 8838.32,1977.42 8784.23,1953.38 8766.21,1935.36 8760.2,1911.32 8712.11,1911.32 8736.15,1899.31 "/>
   <polygon class="fil39" points="10256.57,2163.72 10268.59,2163.72 10262.58,2193.77 10238.54,2253.87 10202.49,2277.91 10178.45,2289.93 10178.45,2301.94 10130.37,2338 10088.3,2380.07 10040.23,2422.14 10028.21,2422.14 10028.21,2434.16 10004.17,2452.18 9992.15,2452.19 9992.15,2464.21 9980.13,2464.21 9980.13,2476.22 9932.06,2518.29 9871.96,2572.38 9805.86,2626.46 9787.83,2644.49 9775.81,2644.49 9775.81,2656.51 9727.73,2698.58 9649.61,2758.67 9547.44,2860.83 9511.39,2884.87 9457.3,2896.89 9451.29,2884.87 9487.35,2794.73 9517.4,2764.68 9547.45,2740.64 9625.57,2680.55 9667.64,2638.48 9733.74,2584.4 9781.82,2542.33 9847.93,2488.24 9920.04,2422.14 9992.16,2368.05 10028.21,2332 10040.23,2332 10040.23,2319.98 10088.3,2277.91 10184.46,2211.8 "/>
   <path class="fil40" d="M10004.17 2187.76l12.02 6.01 42.06 -6.01 -30.04 30.05 -90.15 84.14 -66.1 54.08 -90.15 84.14 -48.07 42.06 -60.1 54.09 -48.07 42.06 -60.1 54.09 -60.09 132.21 -48.08 120.19 0 54.09 -18.02 18.02 -24.04 -12.01 -6.01 -60.1 42.06 -108.17 -6.01 -6.01 -24.03 12.02 6 -24.04 -78.12 72.11 -60.09 48.08 -30.05 12.02 -54.09 0.01 -36.06 -18.03 -48.08 -48.08 -42.06 -48.07 -60.1 -66.11 -42.07 -48.08 -54.08 -60.09 -18.03 -36.06 -6.01 -48.07 36.06 -0.01 24.04 60.09 48.07 48.08 42.07 48.08 108.17 120.19 36.06 42.07 12.02 6 54.08 0.01 66.11 -54.09 84.13 -78.12 66.11 -54.09 90.14 -84.13 48.08 -42.07 60.09 -54.08 48.08 -42.07 60.09 -54.09 48.08 -42.06 84.13 -72.12 72.12 -66.1 18.03 -12.03zm-522.83 516.83m-6.01 6.01m-6.01 6.01l-6.01 12.01 12.02 0.01 -6.01 -12.02zm-12.02 12.02m-12.02 6.01l-6.01 12.01 18.03 -6 -12.02 -6.01z"/>
   <polygon class="fil41" points="9974.12,2169.74 10010.18,2169.74 10010.18,2187.76 9950.08,2241.85 9944.08,2229.83 9829.89,2271.9 9703.69,2307.96 9595.52,2344.01 9283.02,2428.15 9102.73,2482.23 9030.62,2500.26 8994.56,2494.25 8994.56,2482.23 8964.51,2494.25 8946.49,2506.27 8958.5,2482.23 9042.64,2410.11 9078.7,2386.07 9108.74,2380.07 9162.83,2386.07 9355.14,2338 9529.41,2289.92 9661.62,2247.86 9823.88,2193.77 9926.04,2175.74 "/>
   <polygon class="fil40" points="9343.12,228.64 9397.2,234.65 9433.26,258.69 9427.25,270.71 9415.23,264.7 9421.24,300.76 9385.18,276.72 9331.1,276.72 9138.79,390.9 9030.62,457.01 9012.59,475.03 9006.58,529.12 9102.73,691.38 9180.86,823.59 9252.97,943.78 9337.11,1088.01 9511.38,1382.48 9505.37,1418.54 9517.39,1460.6 9493.35,1436.56 9403.21,1280.31 9355.13,1202.19 9271,1057.96 9192.87,925.75 9150.81,859.64 9102.73,775.51 9078.69,739.45 9078.69,721.42 9060.66,715.41 9000.57,607.24 8964.51,541.14 8964.51,475.03 8988.55,438.97 9024.61,408.92 9198.89,306.76 9319.08,234.64 "/>
   <polygon class="fil40" points="8868.36,661.33 8898.41,667.34 8892.4,679.36 8898.41,697.39 8856.34,715.41 8814.28,775.51 8658.03,1009.88 8646.01,1051.95 8658.03,1082 8700.09,1118.06 8862.35,1226.23 9331.1,1544.74 9445.28,1622.86 9481.34,1646.9 9475.33,1670.94 9505.38,1707 9475.33,1694.98 9156.82,1478.64 9006.58,1376.47 8946.49,1334.41 8928.46,1328.4 8928.46,1316.38 8898.41,1304.36 8772.21,1220.23 8652.02,1136.09 8609.95,1088.02 8603.94,1069.99 8603.94,1021.91 8627.98,973.84 8790.24,733.45 8832.31,679.37 "/>
   <polygon class="fil4" points="10851.52,222.63 10905.61,222.63 10953.68,252.68 11200.08,499.07 11218.1,529.12 11218.1,571.19 11188.05,577.2 11170.03,529.12 10917.63,276.72 10905.61,270.71 10845.51,270.71 10785.42,324.79 10160.42,949.79 10148.4,949.79 10142.39,937.77 10100.32,961.81 10112.34,937.77 10557.05,493.07 10575.08,469.03 10599.12,457.01 10671.23,378.88 10803.44,246.67 "/>
   <polygon class="fil42" points="9679.65,1526.71 9727.73,1562.77 9986.14,1652.91 10058.25,1688.97 10076.28,1700.99 10076.28,1707 10094.31,1713.01 10034.22,1791.13 10016.19,1821.18 9932.05,1833.2 9889.99,1833.2 9889.99,1821.18 9998.16,1755.07 9998.16,1749.07 9956.09,1749.07 9853.93,1803.15 9823.88,1821.18 9787.83,1821.18 9751.77,1797.14 9697.68,1713.01 9709.7,1707 9721.72,1713.01 9805.85,1713.01 9902.01,1700.99 9908.01,1694.98 9896,1688.97 9896,1676.95 9739.75,1682.96 9709.7,1664.93 9691.67,1640.89 "/>
   <polygon class="fil43" points="10292.63,2181.76 10298.64,2205.79 10172.44,2500.26 10058.25,2764.69 10022.2,2854.83 9992.15,2932.95 9926.04,3083.19 9902,3119.25 9847.92,3143.29 9805.85,3143.29 9631.58,3071.17 9481.34,3005.07 9439.27,2981.03 9421.24,2950.98 9451.29,2950.98 9451.29,2938.96 9463.31,2938.96 9481.34,2956.99 9619.56,3017.08 9805.85,3095.21 9853.93,3095.21 9883.98,3065.16 10016.19,2758.67 10214.5,2295.93 10256.57,2199.78 10286.62,2193.77 "/>
   <polygon class="fil44" points="10496.96,1731.04 10551.04,1731.04 10581.09,1737.05 10587.1,1761.09 10575.08,1911.33 10551.04,2013.49 10551.04,2229.83 10545.03,2229.83 10539.02,2079.59 10514.98,2085.6 10502.97,2067.57 10496.96,1965.41 10442.87,2067.57 10394.8,2133.68 10322.68,2217.81 10280.61,2277.91 10238.55,2368.05 10226.53,2362.04 10364.75,2037.52 10466.91,1797.14 "/>
   <polygon class="fil45" points="8952.49,1382.48 8988.55,1394.5 9036.63,1430.56 9102.73,1466.62 9174.85,1508.68 9174.85,1520.7 9198.89,1532.72 9265,1568.78 9307.06,1586.8 9355.14,1616.85 9397.21,1634.88 9655.62,1809.16 9727.73,1857.23 9847.92,1941.37 9829.9,1947.38 9643.6,1917.33 9619.56,1899.3 9559.46,1869.25 9493.36,1815.17 9493.36,1803.15 9475.33,1797.14 9475.33,1785.12 9463.31,1785.12 9463.31,1773.1 9451.29,1773.1 9409.22,1725.03 9349.13,1676.95 9271,1622.87 9180.86,1556.76 9078.7,1490.65 8976.53,1418.54 8952.49,1394.5 "/>
   <polygon class="fil46" points="10022.2,186.58 10034.22,210.62 10034.22,264.7 10022.2,306.77 9992.15,342.83 9938.07,517.1 9859.94,721.43 9805.86,877.68 9757.78,997.87 9697.69,1106.04 9661.63,1232.24 9655.62,1232.24 9643.6,1100.03 9655.62,1100.03 9673.64,1057.96 9691.67,979.84 9733.74,889.7 9769.8,793.55 9793.84,739.46 9835.9,619.27 9871.96,523.12 9896,463.02 9950.08,282.74 9974.12,234.66 10010.18,210.62 "/>
   <polygon class="fil47" points="6079.92,2031.52 6194.1,2031.52 6224.15,2091.61 6266.21,2193.77 6272.22,2199.78 6338.33,2043.53 6344.34,2031.52 6458.52,2031.52 6440.49,2043.53 6428.48,2049.54 6428.48,2289.93 6458.52,2301.94 6458.52,2307.95 6314.29,2307.96 6338.33,2295.94 6344.34,2289.93 6344.34,2085.6 6254.2,2301.95 6236.17,2301.95 6164.05,2139.69 6140.01,2079.59 6140.01,2277.91 6158.04,2295.94 6176.07,2307.96 6079.92,2307.96 6085.93,2295.94 6109.97,2283.92 6109.97,2049.55 6079.92,2037.53 "/>
   <polygon class="fil30" points="10238.54,1707 10292.63,1707 10310.66,1713.01 10364.74,1779.11 10382.77,1803.15 10382.77,1845.22 10382.77,1863.25 10394.79,1893.3 10406.81,1863.25 10412.81,1845.22 10412.81,1797.14 10382.77,1749.07 10364.74,1731.04 10364.74,1719.02 10424.84,1719.02 10460.9,1725.03 10448.88,1761.08 10454.89,1755.07 10466.91,1755.07 10466.91,1809.16 10364.74,2049.54 10304.65,2193.77 10280.61,2205.79 10256.57,2199.78 10316.67,2055.55 10376.76,1917.33 10358.73,1929.35 10334.69,1935.36 10334.69,1911.32 10304.64,1923.34 10286.62,1935.36 10286.62,1875.26 10238.54,1719.01 "/>
   <polygon class="fil30" points="9649.6,1184.17 9655.62,1184.17 9673.64,1412.53 9679.65,1448.59 9679.65,1508.68 9685.66,1544.74 9697.68,1640.89 9721.72,1670.94 9739.75,1676.95 9896,1676.95 9896,1688.97 9926.05,1694.98 9902.01,1707 9805.86,1719.01 9721.72,1719.02 9709.7,1719.02 9733.74,1755.07 9733.74,1767.09 9703.69,1761.08 9679.65,1749.07 9577.49,1574.79 9511.38,1466.62 9499.36,1406.52 9517.39,1388.49 9595.52,1526.71 9643.59,1610.85 9643.59,1622.86 9655.62,1622.86 9643.6,1520.7 9619.56,1292.34 9619.56,1244.26 9643.6,1232.24 "/>
   <polygon class="fil48" points="9138.79,853.64 9162.83,865.66 9265,1039.93 9361.15,1202.19 9439.27,1334.4 9499.37,1436.57 9601.53,1604.83 9691.67,1761.08 9709.7,1791.13 9709.7,1803.15 9679.65,1791.13 9571.48,1713.01 9541.43,1694.98 9487.35,1550.75 9457.3,1454.6 9433.26,1370.46 9385.18,1280.32 9325.09,1178.16 9222.92,1003.88 9168.84,913.74 9138.79,865.66 "/>
   <polygon class="fil18" points="8135.19,2031.52 8213.32,2031.52 8213.32,2133.68 8255.39,2109.64 8297.45,2115.65 8315.48,2133.68 8321.49,2151.7 8327.5,2289.92 8339.52,2307.95 8243.36,2307.96 8255.38,2289.93 8255.38,2151.71 8237.35,2145.7 8219.33,2157.72 8219.33,2289.93 8231.35,2307.96 8135.19,2307.96 8141.2,2295.94 8153.22,2295.94 8153.22,2043.54 8135.19,2037.53 "/>
   <polygon class="fil49" points="9817.87,1033.93 9823.88,1051.95 9841.91,1051.96 9847.92,1082 9787.83,1244.26 9793.84,1250.27 9829.89,1220.22 9835.9,1232.24 9829.89,1256.28 9841.91,1262.29 9787.83,1328.4 9793.84,1382.48 9829.89,1418.54 9823.88,1430.56 9811.87,1424.55 9841.91,1478.63 9817.87,1466.62 9763.79,1412.53 9745.76,1370.46 9721.72,1430.56 9715.71,1448.59 9715.71,1496.66 9739.75,1526.71 9751.77,1532.72 9757.78,1562.77 9769.8,1574.79 9727.73,1568.78 9685.66,1532.72 9673.65,1508.68 9673.65,1448.59 9697.69,1370.46 9811.87,1051.95 "/>
   <path class="fil50" d="M7359.96 2031.52l78.12 0 0 96.15 36.06 -18.03 36.06 0 36.05 24.04 18.03 30.05 6.01 54.08 -18.03 54.09 -24.04 30.05 -30.04 12.02 -54.09 0 -30.05 -12.02 -30.05 12.02 -6.01 -264.43 -18.02 -18.02zm108.17 102.16l-24.04 12.02 -6.01 12.02 0 108.17 18.03 30.05 30.05 0 12.02 -12.02 6 -24.04 0 -90.14 -12.01 -30.05 -24.04 -6.01z"/>
   <polygon class="fil51" points="10484.94,2049.55 10502.97,2049.55 10508.97,2091.61 10496.96,2079.59 10466.91,2139.69 10436.86,2187.76 10382.77,2301.95 10352.73,2374.06 10322.68,2440.17 10292.63,2512.28 10232.53,2662.52 10190.47,2758.68 10160.42,2818.77 10106.33,2963 10094.32,2993.05 10082.29,2993.05 10076.28,3011.07 10064.27,3011.08 10064.27,2914.93 10070.28,2914.92 10076.28,2963 10094.31,2884.87 10124.36,2812.76 10166.43,2710.59 10214.5,2614.44 10238.54,2560.36 10244.55,2542.33 10256.57,2542.33 10262.58,2506.27 10286.62,2452.19 10298.64,2410.12 10346.72,2319.98 10376.77,2247.86 10412.82,2187.77 10454.89,2103.63 "/>
   <polygon class="fil52" points="10166.43,1707 10172.44,1707 10172.44,1755.07 10148.4,1923.34 10130.37,1971.42 10094.31,2001.47 10058.25,2013.48 9986.14,2007.48 9595.52,1947.38 9607.53,1911.32 9679.65,1917.33 9829.89,1941.37 9859.94,1947.38 9877.97,1953.39 9980.13,1965.41 10058.25,1971.42 10094.31,1953.39 10106.33,1923.34 10136.38,1749.07 10154.41,1743.06 "/>
   <polygon class="fil15" points="10496.96,2073.58 10502.97,2073.58 10502.97,2121.66 10484.94,2139.69 10454.89,2217.81 10424.84,2283.92 10370.76,2404.11 10346.72,2458.19 10322.68,2506.27 10286.62,2590.4 10256.57,2668.53 10226.52,2728.62 10172.44,2854.82 10142.39,2920.93 10112.34,2993.04 10088.3,3053.14 10070.27,3047.13 10070.27,3011.07 10082.29,2993.04 10094.31,2993.05 10100.32,2963 10160.42,2800.74 10202.48,2716.61 10244.55,2620.45 10280.61,2524.3 10310.66,2458.2 10340.7,2386.08 10370.75,2307.96 10424.84,2205.79 10454.89,2145.7 10472.91,2115.65 10490.94,2079.59 "/>
   <polygon class="fil53" points="10496.96,1731.04 10551.04,1731.04 10581.09,1737.05 10587.1,1761.09 10575.08,1911.33 10551.04,2013.49 10551.04,2229.83 10545.03,2229.83 10539.02,2079.59 10514.98,2085.6 10502.97,2067.57 10490.95,1743.06 "/>
   <path class="fil54" d="M7672.45 2109.64l42.07 0 36.06 18.03 12.02 24.04 0 132.21 24.04 -6.01 -12.02 24.04 -24.04 12.02 -36.06 -6.01 -6.01 -18.03 -60.09 24.04 -30.05 -6.01 -18.03 -24.04 6.01 -36.06 42.07 -36.06 48.07 -24.04 0 -48.07 -30.04 -6.01 -12.02 0 12.02 42.07 -12.02 18.02 -36.06 0 -12.02 -18.02 6.01 -36.06 36.06 -24.04 24.03 -6.01zm24.04 96.15l-30.04 30.05 -6.01 24.04 18.02 18.03 24.04 -12.02 0 -60.09 -6.01 -0.01z"/>
   <path class="fil55" d="M6554.67 2109.64l42.07 0 36.06 18.03 12.02 24.04 0 132.21 24.04 -6.01 -12.02 24.04 -24.04 12.02 -36.06 -6.01 -18.03 -18.03 -24.04 18.03 -42.06 6.01 -30.05 -30.05 6.01 -36.06 42.06 -36.06 48.08 -24.04 0 -48.07 -30.05 -6.01 -12.01 0 12.01 42.07 -12.01 18.02 -42.07 -6.01 -6.01 -36.05 30.05 -30.05 36.05 -12.02zm24.04 96.15l-30.05 30.05 -6 24.04 18.02 18.03 24.04 -12.02 0 -60.09 -6.01 -0.01z"/>
   <polygon class="fil56" points="10136.38,1694.98 10172.44,1700.99 10154.41,1743.06 10142.39,1749.07 10112.35,1923.34 10094.32,1959.4 10058.26,1977.43 9980.14,1971.42 9944.08,1959.4 9974.13,1935.36 10010.18,1887.28 "/>
   <polygon class="fil57" points="10178.45,1700.99 10226.52,1707 10220.52,1749.07 10256.57,1881.28 10256.57,1917.33 10232.53,1953.39 10124.36,1989.45 10124.36,1971.42 10142.39,1923.34 10172.44,1707 "/>
   <polygon class="fil58" points="9739.75,1364.45 9751.77,1370.46 9775.81,1418.54 9968.11,1610.85 9962.11,1622.86 9914.03,1598.83 9739.75,1532.72 9709.7,1496.66 9709.7,1448.59 "/>
   <polygon class="fil59" points="9865.95,1232.24 9871.96,1244.26 9871.96,1286.33 9962.1,1538.73 9956.09,1550.75 9787.83,1382.48 9781.82,1328.39 9835.9,1262.29 "/>
   <polygon class="fil60" points="11025.8,661.33 11103.92,661.33 11091.9,685.37 11067.87,691.38 10977.72,703.4 10857.53,745.47 10791.42,775.52 10575.08,847.63 10292.63,949.79 10166.43,991.86 10136.38,1003.88 10112.34,997.87 10136.38,967.82 10160.42,973.83 10250.56,937.77 10376.77,895.71 10514.98,841.62 10713.3,775.52 10887.58,709.41 10947.67,685.37 "/>
   <polygon class="fil61" points="10016.19,1178.16 10034.22,1178.16 10022.2,1208.2 10010.18,1286.33 9992.15,1478.64 9980.14,1496.66 9908.02,1292.34 9908.02,1238.25 9938.07,1208.2 "/>
   <polygon class="fil62" points="10058.26,1688.97 10136.38,1694.98 10124.36,1725.03 10040.23,1851.23 10004.17,1851.23 9992.15,1845.22 9980.13,1875.27 9944.08,1917.34 9932.06,1923.34 9883.98,1923.34 9799.84,1869.26 9793.84,1857.24 9847.92,1845.22 9889.99,1827.19 9968.11,1821.18 10004.17,1815.17 10016.19,1821.18 10028.21,1791.13 10088.3,1713.01 10064.26,1707 10070.27,1700.99 "/>
   <polygon class="fil63" points="10184.46,1021.91 10334.7,1021.91 10328.69,1033.93 9992.15,1154.12 9938.07,1166.14 9974.12,1124.07 10040.23,1057.96 10058.26,1045.94 "/>
   <path class="fil64" d="M7065.49 2109.64l48.07 6.01 30.05 30.05 12.02 30.05 0 30.04 -102.16 0 18.03 54.09 24.04 18.03 30.05 -6.01 18.02 -18.03 12.02 0 -12.02 30.05 -24.04 24.04 -18.02 6.01 -54.09 0 -42.07 -36.06 -12.02 -36.06 0 -48.08 18.03 -48.07 36.06 -30.05 18.03 -6.01zm6.01 18.03l-18.03 18.03 -6.01 42.06 6.01 6.01 48.08 0 0 -54.08 -12.02 -12.02 -18.03 0z"/>
   <polygon class="fil65" points="10238.54,1707 10292.63,1707 10310.66,1713.01 10364.74,1779.11 10382.77,1803.15 10382.77,1845.22 10340.7,1893.3 10292.63,1935.36 10286.62,1917.34 10286.62,1875.27 10238.54,1719.02 "/>
   <polygon class="fil66" points="10208.49,1995.46 10220.51,2007.48 10154.41,2061.56 10082.29,2121.66 9926.04,2121.66 9865.95,2103.63 9883.98,2091.61 10124.36,2019.5 "/>
   <polygon class="fil67" points="8021.01,2109.64 8063.08,2109.64 8099.14,2133.68 8105.14,2175.75 8087.12,2187.76 8057.07,2181.76 8039.04,2133.68 8015,2145.7 8008.99,2193.77 8021.01,2241.85 8033.03,2265.89 8045.05,2271.9 8081.11,2271.9 8111.15,2259.88 8099.14,2283.92 8075.1,2307.96 8057.07,2313.97 8008.99,2313.97 7978.94,2295.94 7954.9,2265.89 7948.89,2247.86 7948.89,2187.77 7972.93,2139.69 8002.98,2115.65 "/>
   <polygon class="fil68" points="6734.96,2109.64 6795.06,2115.65 6813.08,2109.64 6813.08,2181.76 6789.04,2151.71 6765.01,2133.68 6740.97,2139.69 6752.98,2163.73 6807.07,2205.79 6825.1,2229.83 6825.1,2271.9 6801.06,2307.96 6783.03,2313.97 6698.9,2313.97 6692.9,2247.86 6710.92,2253.87 6740.97,2289.93 6771.02,2289.93 6771.02,2253.87 6740.97,2241.85 6704.91,2211.8 6692.9,2187.76 6692.9,2145.7 6716.93,2115.65 "/>
   <polygon class="fil69" points="10376.77,1905.31 10382.77,1917.33 10322.68,2055.55 10298.64,2061.56 10256.57,2097.62 10178.45,2139.69 10112.34,2151.7 10124.36,2127.66 10202.49,2055.55 10262.58,2001.46 10328.69,1947.38 "/>
   <polygon class="fil70" points="9505.38,1472.62 9529.42,1484.64 9631.58,1658.92 9691.67,1761.08 9709.7,1791.13 9709.7,1803.15 9679.65,1791.13 9589.51,1725.03 9559.46,1676.95 9529.41,1574.79 9517.39,1508.68 "/>
   <polygon class="fil71" points="6921.26,2043.53 6933.28,2049.54 6933.28,2115.65 6975.35,2115.65 6975.35,2139.69 6933.28,2139.69 6933.28,2283.92 6963.33,2271.9 6975.35,2265.89 6963.33,2295.94 6933.28,2313.97 6897.22,2307.96 6873.18,2283.92 6873.18,2139.69 6849.14,2139.69 6861.16,2115.65 6903.23,2073.58 "/>
   <polygon class="fil72" points="7876.78,2043.53 7882.79,2043.53 7882.79,2115.65 7930.87,2115.65 7930.87,2139.69 7882.79,2139.69 7888.8,2283.92 7918.85,2271.9 7930.87,2265.89 7918.85,2295.94 7906.83,2307.96 7864.76,2313.97 7834.71,2295.94 7822.7,2253.87 7822.7,2139.69 7798.66,2133.68 7828.7,2103.63 7864.76,2061.57 "/>
   <polygon class="fil67" points="7305.87,2109.64 7341.93,2115.65 7347.94,2151.71 7329.91,2169.73 7281.83,2157.72 7269.82,2175.74 7263.81,2205.79 7263.81,2295.93 7287.85,2307.95 7179.67,2307.96 7191.69,2295.94 7197.7,2271.9 7197.7,2145.7 7179.67,2127.67 7179.67,2115.65 7257.8,2115.65 7263.8,2145.7 "/>
   <polygon class="fil73" points="11182.05,553.16 11194.07,571.19 11218.11,571.19 11212.1,613.26 11170.03,667.34 11145.99,691.38 11188.06,709.41 11182.05,727.44 11055.85,775.51 10989.74,799.55 10977.72,793.54 11164.02,607.24 "/>
   <polygon class="fil74" points="10142.39,931.76 10154.41,955.8 10052.25,1057.97 10004.17,1100.03 9944.08,1160.13 9950.08,1172.15 9908.02,1190.17 9847.92,1256.28 9829.89,1256.28 9835.9,1214.21 10094.31,955.8 10118.35,943.79 "/>
   <polygon class="fil75" points="9679.65,1526.71 9721.72,1562.77 9721.72,1574.79 9775.8,1592.82 9835.9,1622.86 9877.97,1664.93 9895.99,1676.95 9739.74,1682.96 9709.7,1664.93 9691.67,1640.89 "/>
   <polygon class="fil76" points="9511.39,1388.49 9535.42,1418.54 9625.57,1580.8 9643.59,1610.85 9643.59,1622.86 9655.62,1622.86 9679.66,1682.96 9703.69,1707 9733.74,1755.07 9733.74,1767.09 9703.69,1761.08 9679.66,1749.07 9577.49,1574.79 9511.39,1466.62 9499.37,1406.52 "/>
   <polygon class="fil77" points="10184.46,1965.41 10208.5,1971.42 10208.5,2001.47 9962.11,2073.58 9841.91,2109.64 9799.85,2097.62 9787.83,2079.6 10028.21,2013.49 10094.32,1995.46 10124.37,1983.44 "/>
   <polygon class="fil66" points="9667.63,1953.39 9986.14,2001.47 10028.21,2013.48 10010.18,2025.5 9889.99,2055.55 9859.94,2043.53 9787.83,2025.51 9697.68,1977.43 9667.63,1965.41 "/>
   <polygon class="fil78" points="10028.21,1003.88 10040.23,1003.88 10028.21,1027.92 9829.89,1226.24 9781.82,1262.29 9787.83,1232.24 9817.87,1148.11 9847.92,1130.08 9871.96,1100.03 9926.05,1057.97 "/>
   <polygon class="fil75" points="9613.55,1280.32 9625.56,1292.34 9655.61,1592.81 9655.61,1622.86 9643.59,1622.86 9577.49,1502.67 9583.5,1394.5 9607.54,1316.38 "/>
   <polygon class="fil79" points="9553.45,2632.47 9559.46,2644.49 9487.35,2806.75 9457.3,2884.87 9457.3,2938.96 9439.27,2956.99 9415.23,2944.97 9409.22,2884.87 9451.29,2776.7 9445.28,2770.69 9421.24,2782.71 9433.26,2758.67 9463.31,2728.62 9475.33,2728.63 9487.35,2692.57 "/>
   <polygon class="fil79" points="8880.38,661.33 8928.46,661.33 8994.56,697.39 9048.65,733.45 9042.64,697.39 9060.66,715.42 9078.69,721.43 9090.71,763.49 9120.76,793.54 9144.8,835.61 9144.8,847.63 9114.75,835.61 8928.45,709.41 8898.4,697.39 "/>
   <polygon class="fil80" points="9956.09,1160.13 9980.13,1166.14 9962.11,1184.16 9968.11,1202.19 9920.04,1226.23 9914.03,1238.25 9914.03,1292.33 9950.09,1394.5 9950.09,1424.55 9944.08,1430.55 9938.07,1472.62 9926.05,1454.59 9865.96,1286.33 9865.96,1244.26 9883.98,1208.2 9926.05,1172.14 "/>
   <polygon class="fil81" points="9138.79,2307.96 9156.82,2313.97 9084.7,2380.07 9036.63,2422.14 8976.53,2476.22 8952.49,2494.25 8940.48,2524.3 8904.42,2518.29 8910.43,2482.23 8952.49,2434.16 9000.57,2392.09 9066.68,2332 "/>
   <polygon class="fil79" points="10052.25,2764.68 10058.26,2764.68 10064.27,2848.82 10070.28,3011.07 10076.28,3089.2 10046.24,3083.19 10028.21,3035.11 10016.19,2854.83 "/>
   <polygon class="fil82" points="10208.49,1700.99 10262.58,1700.99 10238.54,1707 10286.62,1851.23 10292.63,1875.27 10292.63,1917.34 10274.6,1959.4 10238.54,1989.45 10202.49,1995.46 10208.49,1971.42 10196.48,1965.41 10238.54,1941.37 10250.56,1917.33 10244.55,1863.25 10214.5,1749.07 10220.51,1725.03 10226.52,1707 "/>
   <polygon class="fil83" points="9697.68,1707 9781.82,1719.02 9799.84,1737.04 9859.94,1755.07 9914.02,1761.08 9889.98,1785.12 9823.88,1821.18 9787.83,1821.18 9751.77,1797.14 9697.68,1713.01 "/>
   <polygon class="fil84" points="9415.23,264.7 9445.28,270.71 9541.43,426.96 9553.45,499.07 9553.45,535.13 9535.42,511.09 9487.35,426.96 9433.26,336.82 9421.25,318.79 "/>
   <polygon class="fil85" points="9655.62,1616.86 9685.66,1628.87 9721.72,1670.94 9739.75,1676.95 9896,1676.95 9896,1688.97 9926.05,1694.98 9902.01,1707 9805.86,1719.01 9721.72,1719.02 9673.64,1682.96 9655.62,1646.9 "/>
   <polygon class="fil86" points="9739.75,1364.45 9751.77,1370.46 9763.79,1406.52 9775.8,1436.57 9799.84,1514.69 9817.87,1556.76 9787.82,1550.75 9733.74,1526.71 9709.7,1496.66 9709.7,1448.59 "/>
   <polygon class="fil82" points="11452.48,1166.14 11488.53,1172.15 11506.56,1190.17 11434.45,1220.22 11338.29,1256.28 11188.06,1256.28 11188.06,1250.27 11242.14,1244.26 "/>
   <polygon class="fil85" points="8838.31,1827.19 8910.43,1833.2 8964.51,1839.21 8964.51,1845.22 8898.41,1857.24 8736.15,1905.31 8676.05,1899.3 8676.05,1875.26 "/>
   <polygon class="fil87" points="9751.77,1538.73 9787.83,1544.74 9944.08,1604.83 9962.1,1616.85 9980.13,1616.86 10010.18,1664.93 9950.09,1646.9 9763.79,1580.8 9745.76,1550.75 "/>
   <polygon class="fil82" points="8676.05,1250.27 8760.19,1256.28 8856.34,1268.3 8928.46,1316.38 8928.46,1322.38 8862.35,1316.38 8700.09,1292.34 8676.05,1268.3 "/>
   <polygon class="fil88" points="9992.15,1845.22 10034.22,1845.22 10022.2,1875.27 9986.14,1929.35 9956.09,1953.39 9944.08,1959.4 9877.97,1959.4 9829.89,1935.36 9829.89,1923.34 9871.96,1911.32 9883.98,1917.33 9932.05,1917.33 9962.1,1893.29 "/>
   <polygon class="fil89" points="10076.28,1707 10094.31,1713.01 10034.22,1791.13 10016.19,1821.18 9932.06,1833.2 9889.99,1833.2 9889.99,1821.18 9998.16,1755.07 10016.19,1749.07 10016.19,1737.05 10052.25,1725.03 10076.28,1719.02 "/>
   <polygon class="fil90" points="9817.87,1033.93 9823.88,1051.95 9841.91,1051.96 9847.92,1082 9811.86,1178.16 9787.82,1202.2 9757.77,1274.31 9727.73,1328.4 9721.72,1304.36 "/>
   <polygon class="fil91" points="10442.87,1851.23 10454.89,1851.23 10454.89,1929.35 10430.85,1989.45 10394.79,2049.54 10346.71,2109.64 10340.7,2091.61 "/>
   <polygon class="fil80" points="10028.21,162.54 10040.23,180.57 10064.27,168.55 10070.28,168.55 10082.29,276.72 10088.3,306.77 10058.25,384.89 10046.24,384.89 10028.21,210.62 "/>
   <polygon class="fil92" points="10058.26,1688.97 10136.38,1694.98 10124.36,1725.03 10040.23,1851.23 10004.17,1851.23 9998.16,1839.21 10064.27,1743.06 10088.31,1713.01 10064.27,1707 10070.28,1700.99 "/>
   <polygon class="fil93" points="9721.72,1562.77 9938.06,1634.88 9980.13,1652.91 9980.13,1664.93 9877.97,1670.94 9835.9,1634.88 9835.9,1622.86 9799.84,1610.84 9721.72,1574.79 "/>
   <polygon class="fil94" points="10292.63,1039.93 10346.71,1045.94 10346.71,1057.96 10358.73,1063.97 10202.48,1118.06 10178.44,1112.05 10184.45,1106.04 10154.4,1100.03 10160.41,1088.01 "/>
   <polygon class="fil95" points="9956.09,1743.06 10016.19,1743.06 9986.14,1767.1 9883.98,1833.2 9823.88,1833.2 9793.84,1827.19 9793.84,1821.18 9847.92,1803.15 9944.07,1749.07 "/>
   <polygon class="fil87" points="10166.43,1707 10172.44,1707 10172.44,1755.07 10148.4,1923.34 10136.38,1905.31 10124.36,1905.31 10118.35,1917.33 10112.34,1887.28 10136.38,1749.07 10154.41,1743.06 "/>
   <polygon class="fil37" points="9763.79,1292.34 9787.83,1304.36 9793.84,1316.38 9787.83,1358.44 9799.84,1388.49 9829.89,1418.54 9823.88,1430.56 9811.87,1424.55 9841.91,1478.63 9817.87,1466.62 9763.79,1412.53 9745.76,1370.46 9745.76,1328.4 "/>
   <polygon class="fil70" points="9607.54,1202.19 9619.56,1226.23 9619.56,1280.32 9595.52,1376.47 9589.51,1394.5 9583.5,1484.64 9565.47,1484.65 9559.46,1454.6 9565.47,1376.47 "/>
   <polygon class="fil96" points="10533.01,1737.05 10569.07,1743.06 10575.08,1761.08 10563.06,1911.32 10551.04,1953.39 10545.03,1953.39 10533.01,1821.18 "/>
   <polygon class="fil82" points="10635.18,330.81 10647.19,330.81 10653.2,354.85 10623.15,438.98 10587.1,475.04 10569.07,469.03 10587.1,402.92 10611.14,336.82 10629.17,336.82 "/>
   <polygon class="fil90" points="9679.65,1430.56 9691.67,1436.57 9691.67,1448.59 9709.7,1442.58 9715.71,1496.66 9739.75,1526.71 9751.77,1532.72 9757.77,1562.77 9769.79,1574.79 9727.73,1568.78 9685.66,1532.72 9673.64,1508.68 9673.64,1448.59 "/>
   <polygon class="fil97" points="9811.86,1292.34 9829.89,1292.34 9847.92,1436.57 9805.85,1400.51 9787.83,1382.48 9781.82,1328.4 "/>
   <polygon class="fil98" points="8880.38,661.33 8928.46,661.33 8994.56,697.39 9006.58,739.46 9012.59,757.48 9030.62,763.49 9018.6,769.5 8928.46,709.41 8898.41,697.39 "/>
   <polygon class="fil43" points="10364.74,1731.04 10400.8,1761.09 10418.83,1797.14 10418.83,1845.22 10394.79,1893.3 10382.77,1887.29 10382.77,1863.25 10370.75,1857.24 10376.76,1845.22 10376.76,1803.15 10352.72,1773.1 10352.72,1761.09 10370.75,1761.08 "/>
   <polygon class="fil94" points="9649.6,1184.17 9655.62,1184.17 9661.63,1256.28 9661.63,1346.42 9643.6,1394.5 9631.58,1376.47 9619.56,1292.34 9619.56,1244.26 9643.6,1232.24 "/>
   <polygon class="fil99" points="9138.79,853.64 9162.83,865.66 9265,1039.93 9331.1,1148.11 9331.1,1160.13 9307.06,1148.11 9222.93,1003.88 9168.84,913.73 9138.8,865.66 "/>
   <polygon class="fil100" points="9950.08,1412.53 9962.1,1430.56 9980.13,1478.63 9992.15,1478.63 9986.14,1550.75 9986.14,1628.87 9968.11,1604.83 9962.11,1544.74 9938.07,1490.65 9938.07,1430.56 "/>
   <polygon class="fil98" points="9415.23,264.7 9445.28,270.71 9499.37,360.85 9487.35,366.86 9481.34,396.91 9463.31,390.9 9421.25,318.79 "/>
   <polygon class="fil82" points="10527,1953.39 10539.02,1965.41 10551.04,2067.57 10551.04,2229.83 10545.03,2229.83 10539.02,2079.59 10514.98,2085.6 10508.97,2073.58 10508.97,1959.4 10527,1965.41 "/>
   <polygon class="fil101" points="11350.32,1202.19 11368.34,1208.2 11386.37,1220.22 11386.37,1238.25 11338.29,1256.28 11188.06,1256.28 11188.06,1250.27 11242.14,1244.26 "/>
   <polygon class="fil82" points="10136.38,1899.31 10142.39,1899.31 10142.39,1947.38 10118.35,1983.44 10082.29,2007.48 10046.24,2013.49 10034.22,2001.47 10052.25,1989.45 10040.23,1977.43 10094.31,1953.39 10112.34,1911.33 "/>
   <polygon class="fil102" points="11182.05,553.16 11194.07,571.19 11218.11,571.19 11212.1,613.26 11182.05,655.32 11127.96,667.34 11103.92,673.35 11139.98,631.28 11170.03,595.23 "/>
   <polygon class="fil103" points="9697.68,1707 9781.82,1719.02 9799.84,1737.04 9859.94,1755.07 9914.02,1761.08 9896,1779.11 9823.88,1773.1 9745.76,1749.06 9721.72,1749.07 "/>
   <polygon class="fil82" points="8970.52,2422.14 8982.54,2428.15 8988.55,2440.17 9006.58,2434.16 8994.56,2458.2 8952.49,2494.25 8940.47,2524.3 8904.42,2518.29 8910.42,2482.24 8952.49,2434.16 "/>
   <polygon class="fil87" points="10551.04,1737.05 10581.09,1737.05 10587.1,1761.09 10575.08,1911.33 10551.04,2013.49 10539.02,2025.51 10539.02,1905.32 10551.04,1929.36 10563.06,1857.24 10569.07,1743.06 "/>
   <polygon class="fil104" points="10364.74,1719.02 10424.84,1719.02 10460.9,1725.03 10448.88,1761.08 10424.84,1815.17 10412.82,1797.14 10382.77,1749.07 10364.75,1731.04 "/>
   <polygon class="fil105" points="10496.96,1731.04 10551.04,1731.04 10533.01,1737.05 10539.02,1875.27 10527.01,1857.24 10514.99,1821.18 10508.97,1821.18 10502.97,1863.25 10496.96,1863.25 10490.95,1743.06 "/>
   <polygon class="fil106" points="9475.33,2806.75 9481.34,2824.78 9457.3,2884.87 9457.3,2938.96 9439.27,2956.99 9415.23,2944.97 9409.22,2884.87 9427.25,2854.83 9433.26,2866.84 9457.3,2842.8 "/>
   <polygon class="fil107" points="10208.49,1700.99 10262.58,1700.99 10238.54,1707 10268.59,1797.14 10256.57,1839.21 10238.54,1839.21 10214.5,1749.07 10220.51,1725.03 10226.52,1707 "/>
   <polygon class="fil108" points="9799.84,1676.95 9896,1676.95 9896,1688.97 9926.05,1694.98 9902.01,1707 9859.94,1713 9805.85,1713.01 9781.81,1694.98 9751.77,1688.97 9751.77,1682.96 "/>
   <polygon class="fil109" points="10238.54,1707 10292.63,1707 10310.66,1719.02 10280.61,1719.02 10292.63,1767.09 10286.62,1821.18 10292.63,1845.22 10280.61,1851.23 10238.54,1719.02 "/>
   <polygon class="fil80" points="9607.54,1911.32 9679.65,1917.33 9703.69,1929.35 9709.7,1947.38 9733.74,1959.4 9673.64,1959.4 9595.52,1947.38 "/>
   <polygon class="fil101" points="10142.39,1094.02 10184.46,1100.03 10184.46,1118.06 10166.43,1130.08 10136.38,1136.09 10136.38,1148.1 10082.29,1148.11 10070.28,1142.1 10076.28,1118.06 "/>
   <polygon class="fil110" points="10058.26,2932.95 10064.27,2932.95 10076.28,3047.14 10076.28,3089.2 10046.24,3083.19 10034.22,3059.15 10034.22,2969.01 10046.24,2993.05 10052.25,2987.04 "/>
   <polygon class="fil111" points="10142.39,931.76 10154.41,955.8 10094.32,1015.9 10058.26,1015.9 10034.22,1027.92 10046.24,1003.88 10094.31,955.8 10118.35,943.78 "/>
   <polygon class="fil112" points="9511.39,1388.49 9535.42,1418.54 9559.46,1460.61 9559.46,1514.69 9565.47,1538.73 9553.45,1538.73 9511.39,1466.62 9499.37,1406.52 "/>
   <polygon class="fil113" points="10334.7,2091.61 10340.7,2109.64 10304.65,2193.77 10280.61,2205.79 10256.57,2199.78 10292.63,2115.65 10316.67,2109.64 10328.69,2109.64 "/>
   <polygon class="fil94" points="9811.86,1424.55 9841.91,1430.56 9883.98,1472.62 9889.99,1514.69 9914.03,1550.75 9889.99,1538.73 9835.9,1484.65 9823.88,1454.6 "/>
   <polygon class="fil114" points="10340.71,1767.1 10370.76,1785.12 10382.77,1803.15 10382.77,1845.22 10352.73,1875.27 10340.71,1851.23 "/>
   <polygon class="fil115" points="9829.89,1220.22 9835.9,1232.24 9829.89,1256.28 9841.91,1262.29 9799.84,1310.37 9769.8,1304.36 9763.79,1280.32 9793.84,1250.27 "/>
   <polygon class="fil116" points="8838.31,1827.19 8910.43,1833.2 8964.51,1839.21 8964.51,1845.22 8898.41,1857.24 8862.35,1863.24 8802.25,1863.25 8796.25,1839.21 "/>
   <polygon class="fil1" points="11127.96,697.39 11182.04,703.4 11188.05,715.42 11182.04,727.44 11097.91,757.48 11079.88,751.48 11115.94,709.41 "/>
   <polygon class="fil117" points="9853.93,2061.56 9883.98,2061.56 9908.02,2085.6 9865.95,2103.63 9829.89,2109.64 9799.84,2097.62 9787.83,2079.59 "/>
   <polygon class="fil43" points="9727.73,1815.17 9823.88,1827.19 9871.96,1827.19 9871.96,1839.21 9829.89,1857.24 9781.82,1857.24 9745.76,1839.21 "/>
   <polygon class="fil101" points="9511.39,2722.62 9517.39,2740.64 9487.35,2806.75 9475.33,2806.75 9463.31,2842.81 9445.28,2866.85 9421.24,2860.84 9439.27,2806.75 9457.3,2788.73 9481.34,2794.74 9493.35,2758.68 "/>
   <polygon class="fil85" points="9475.33,1652.91 9499.37,1658.92 9541.43,1688.97 9559.46,1731.04 9571.48,1749.07 9541.43,1737.05 9505.37,1713.01 9469.32,1664.93 "/>
   <polygon class="fil116" points="8832.3,1268.3 8868.36,1274.31 8928.46,1316.38 8928.46,1322.38 8862.35,1316.38 8820.28,1310.37 8814.27,1286.33 8802.25,1280.32 8832.3,1274.31 "/>
   <polygon class="fil118" points="9691.67,1923.34 9751.77,1929.35 9769.79,1941.37 9757.78,1941.37 9757.78,1953.39 9823.88,1965.41 9847.92,1977.43 9793.84,1977.43 9715.71,1965.41 9703.69,1947.38 9703.69,1929.36 "/>
   <polygon class="fil111" points="9685.66,1743.06 9709.7,1761.08 9739.75,1767.09 9763.79,1803.15 9787.83,1821.18 9757.78,1827.19 9721.72,1821.18 9685.66,1761.08 "/>
   <polygon class="fil119" points="10100.32,2133.68 10112.34,2133.68 10100.32,2157.72 10064.27,2187.77 10010.18,2199.79 10016.19,2175.75 10058.26,2139.69 10076.28,2139.69 "/>
   <polygon class="fil120" points="10238.54,1869.26 10250.56,1869.26 10256.57,1881.28 10256.57,1917.33 10232.53,1953.39 10202.48,1965.41 10184.46,1959.4 10208.49,1929.35 "/>
   <polygon class="fil60" points="9829.89,1274.31 9853.93,1280.32 9853.93,1376.47 9865.95,1442.58 9847.92,1442.58 9829.89,1340.41 9829.89,1292.34 9817.87,1286.33 "/>
   <polygon class="fil80" points="9865.95,1791.13 9926.04,1797.14 9902.01,1821.18 9871.96,1833.2 9823.88,1833.2 9793.84,1827.19 9793.84,1821.18 9847.92,1803.15 "/>
   <polygon class="fil98" points="10454.89,1755.07 10466.91,1755.07 10466.91,1809.16 10442.87,1857.24 10418.83,1839.21 10424.84,1803.15 10442.87,1767.09 10454.89,1767.1 "/>
   <polygon class="fil121" points="9938.07,1791.13 9950.08,1797.14 9944.08,1803.15 10004.17,1797.14 10022.2,1791.13 10022.2,1809.16 10016.19,1821.18 9932.05,1833.2 9889.99,1833.2 9889.99,1821.18 "/>
   <polygon class="fil122" points="10052.25,2896.9 10064.26,2902.9 10058.25,2987.04 10040.23,2999.06 10034.22,3035.11 10028.21,3035.11 10028.21,2914.92 10052.25,2914.92 "/>
   <polygon class="fil113" points="9799.84,1875.27 9823.88,1881.28 9865.95,1905.31 9853.93,1923.34 9823.88,1929.35 9769.8,1893.29 9769.8,1881.28 "/>
   <polygon class="fil123" points="8994.56,703.4 9048.65,733.45 9048.65,745.47 9066.67,751.48 9054.66,757.48 9042.64,751.48 9054.66,775.52 9090.71,805.56 9072.69,805.56 9024.61,775.52 9024.61,763.5 8994.56,733.45 "/>
   <polygon class="fil49" points="9024.61,2380.07 9030.62,2398.1 9048.65,2398.1 9036.63,2422.14 9006.58,2440.17 8982.54,2446.17 8976.53,2416.13 9006.58,2386.08 "/>
   <polygon class="fil112" points="10364.74,1863.25 10382.77,1863.25 10388.78,1899.31 10346.72,1935.36 10334.7,1935.36 10328.69,1899.31 "/>
   <polygon class="fil124" points="11139.98,655.32 11176.04,655.32 11139.98,697.39 11115.94,703.4 11097.91,697.39 11073.87,715.42 11079.88,691.38 11097.91,673.35 "/>
   <polygon class="fil125" points="9649.6,1526.71 9661.62,1550.75 9667.63,1568.78 9691.67,1592.82 9691.67,1634.89 9655.61,1616.86 9649.6,1592.82 "/>
   <polygon class="fil126" points="9908.02,1502.67 9950.08,1538.73 9968.11,1544.74 9968.11,1580.8 9938.06,1568.78 9902.01,1526.71 "/>
   <polygon class="fil127" points="10058.26,1009.89 10088.31,1015.9 10058.26,1051.96 10040.23,1045.95 9992.15,1069.99 10004.17,1045.95 10034.22,1021.91 "/>
   <polygon class="fil128" points="10424.84,1827.19 10436.86,1845.22 10442.87,1869.26 10412.82,1929.35 10406.81,1917.33 10400.8,1893.29 10400.8,1875.27 "/>
   <polygon class="fil129" points="9739.75,1833.2 9799.84,1863.25 9799.84,1881.28 9763.79,1887.28 9733.74,1869.26 "/>
   <polygon class="fil130" points="9559.46,1472.62 9583.5,1502.67 9589.51,1580.8 9565.47,1556.76 9553.45,1514.69 9553.45,1478.63 "/>
   <polygon class="fil131" points="10154.41,2091.61 10154.41,2109.64 10112.34,2139.69 10064.27,2151.71 10070.28,2127.67 10088.3,2109.64 10124.36,2103.63 "/>
   <polygon class="fil85" points="10310.66,1713.01 10358.73,1713.01 10370.75,1743.06 10370.75,1761.08 10340.7,1755.07 10310.66,1725.03 "/>
   <polygon class="fil51" points="9938.07,1887.29 9962.11,1893.3 9932.06,1923.34 9883.98,1923.34 9871.96,1911.32 "/>
   <polygon class="fil132" points="10322.68,1905.31 10340.7,1911.32 10340.7,1941.37 10304.65,1971.42 10298.64,1953.39 10292.63,1929.35 "/>
   <polygon class="fil82" points="9944.08,1478.63 9956.09,1490.65 9974.12,1526.71 9986.14,1514.69 9986.14,1628.87 9968.11,1604.83 9962.1,1544.74 9944.08,1502.67 "/>
   <polygon class="fil133" points="9992.15,1148.11 10022.2,1148.11 10004.17,1172.15 10022.2,1178.16 9968.11,1196.18 9956.1,1184.17 9974.12,1154.12 "/>
   <polygon class="fil134" points="9577.49,1586.81 9589.51,1586.81 9661.63,1707 9643.59,1707 9601.53,1640.89 9577.49,1592.82 "/>
   <polygon class="fil82" points="10016.19,1809.16 10058.26,1809.16 10046.24,1839.21 10034.22,1851.23 10004.17,1851.23 9998.16,1839.21 "/>
   <polygon class="fil133" points="9751.77,1538.73 9787.83,1544.74 9805.85,1562.77 9787.83,1562.77 9811.87,1592.82 9763.79,1580.8 9745.76,1550.75 "/>
   <polygon class="fil135" points="10178.45,1700.99 10226.52,1707 10220.52,1731.04 10208.5,1743.06 10202.49,1707 10184.46,1707 10178.45,1785.12 10166.43,1785.12 10172.44,1707 "/>
   <polygon class="fil136" points="10010.18,1977.43 10058.25,1983.44 10046.24,2013.49 9986.14,2007.48 9980.13,1995.46 10010.18,1989.45 "/>
   <polygon class="fil100" points="10136.38,1857.24 10148.4,1857.24 10148.4,1923.34 10136.38,1905.32 10124.36,1905.31 10118.35,1917.33 10112.34,1887.28 "/>
   <polygon class="fil137" points="10250.56,1773.1 10262.58,1779.11 10268.59,1809.16 10256.57,1839.21 10238.54,1839.21 10232.53,1803.15 10244.55,1797.14 "/>
   <polygon class="fil138" points="10142.39,1827.19 10160.42,1833.2 10154.41,1881.28 10148.4,1857.24 10136.38,1857.24 10130.37,1875.27 10118.35,1875.27 10124.36,1833.2 "/>
   <polygon class="fil139" points="9775.81,1442.58 9787.83,1448.59 9811.87,1514.69 9823.88,1556.76 9805.86,1544.74 9781.82,1484.65 "/>
   <polygon class="fil140" points="9805.85,1184.17 9817.87,1190.17 9811.86,1238.25 9781.81,1262.29 9787.82,1232.24 "/>
   <polygon class="fil105" points="9805.85,1556.76 9835.9,1562.77 9829.89,1586.81 9835.9,1598.83 9811.86,1598.83 9787.82,1574.79 9787.82,1562.77 "/>
   <polygon class="fil124" points="10527,1911.32 10539.02,1923.34 10539.02,1965.41 10508.97,1959.4 10508.97,1929.35 10527,1923.34 "/>
   <polygon class="fil107" points="9042.64,697.39 9060.66,715.42 9078.69,721.43 9084.7,763.49 9048.64,745.47 "/>
   <polygon class="fil136" points="9877.97,2055.55 9908.02,2061.56 9950.08,2067.57 9944.08,2079.59 9908.02,2085.6 9877.97,2073.58 "/>
   <polygon class="fil141" points="9883.98,1478.63 9908.02,1496.66 9908.02,1526.71 9920.04,1550.75 9889.99,1526.71 9877.97,1484.64 "/>
   <polygon class="fil87" points="10508.97,1815.17 10520.99,1821.18 10527,1863.25 10508.97,1875.27 10502.97,1863.25 10502.97,1821.18 "/>
   <polygon class="fil123" points="9673.64,1725.03 9709.7,1737.05 9721.72,1737.05 9733.74,1767.1 9703.69,1761.09 9679.65,1749.07 "/>
   <polygon class="fil96" points="10136.38,1694.98 10172.44,1700.99 10154.41,1743.06 10136.38,1749.07 "/>
   <polygon class="fil124" points="9655.62,1316.38 9661.63,1316.38 9655.62,1358.44 9643.6,1394.5 9631.58,1376.47 9637.59,1352.43 "/>
   <polygon class="fil142" points="11314.26,1166.14 11344.31,1172.15 11362.33,1178.16 11404.4,1178.16 11404.4,1190.17 11356.32,1202.19 11356.32,1190.17 11326.28,1178.16 "/>
   <polygon class="fil101" points="10346.72,2061.56 10352.73,2079.59 10328.69,2109.64 10304.65,2115.65 10304.65,2091.61 10334.7,2079.59 "/>
   <polygon class="fil87" points="9463.31,2728.63 9475.33,2728.63 9469.32,2758.68 9421.24,2782.72 9433.26,2758.68 "/>
   <polygon class="fil143" points="10424.84,1827.19 10436.86,1845.22 10442.87,1869.26 10424.84,1887.28 10412.82,1863.24 10418.83,1839.21 "/>
   <polygon class="fil144" points="10496.96,1731.04 10551.04,1731.04 10533.01,1743.06 10527.01,1773.1 10502.97,1755.08 "/>
   <polygon class="fil145" points="9661.63,1707 9703.69,1713.01 9715.71,1737.05 9703.69,1743.06 9667.63,1731.04 "/>
   <polygon class="fil136" points="9541.43,1694.98 9559.46,1700.99 9583.5,1749.07 9595.52,1767.09 9565.47,1755.07 9553.45,1731.03 9541.43,1713.01 "/>
  </g>
 </g>
</svg>
