<?xml version="1.0" encoding="UTF-8"?>
<!DOCTYPE svg PUBLIC "-//W3C//DTD SVG 1.1//EN" "http://www.w3.org/Graphics/SVG/1.1/DTD/svg11.dtd">
<!-- Creator: CorelDRAW -->
<svg xmlns="http://www.w3.org/2000/svg" xml:space="preserve" width="15.7234mm" height="15.7234mm" version="1.1" style="shape-rendering:geometricPrecision; text-rendering:geometricPrecision; image-rendering:optimizeQuality; fill-rule:evenodd; clip-rule:evenodd"
viewBox="0 0 1572.34 1572.34"
 xmlns:xlink="http://www.w3.org/1999/xlink"
 xmlns:xodm="http://www.corel.com/coreldraw/odm/2003">
 <defs>
  <style type="text/css">
   <![CDATA[
    .fil0 {fill:#FEFEFE}
   ]]>
  </style>
 </defs>
 <g id="Camada_x0020_1">
  <metadata id="CorelCorpID_0Corel-Layer"/>
  <g id="_1615546056736">
   <g id="SVGRepo_bgCarrier">
   </g>
   <g id="SVGRepo_tracerCarrier">
   </g>
   <g id="SVGRepo_iconCarrier">
    <path class="fil0" d="M48.37 1.21c-27.41,0 -49.62,21.61 -49.62,48.26l0 36.37c0,26.66 22.21,48.27 49.62,48.27l115.31 0c18.84,0 36.05,10.37 44.43,26.78l62.46 138.62c2.33,4.56 4.17,9.79 7.63,13.27l268.28 622.36c-2.66,1.24 -5.23,2.74 -7.63,4.51 -74.34,54.74 -124.62,125.2 -124.63,196.12 0,41.27 17.71,79.84 53.22,106.48 33.72,25.29 77.8,35.72 125.12,35.72l1.55 0c-30.75,31.39 -49.64,73.89 -49.64,120.67 0,96.63 80.53,174.95 179.87,174.95 99.34,0 179.87,-78.32 179.87,-174.95 0,-46.78 -18.88,-89.28 -49.64,-120.67l235.74 0c-30.76,31.39 -49.65,73.89 -49.65,120.67 0,96.63 80.53,174.95 179.87,174.95 99.35,0 179.88,-78.32 179.88,-174.95 0,-46.78 -18.89,-89.28 -49.65,-120.67l37.24 0c27.4,0 49.62,-21.61 49.62,-48.26l0 -24.13c0,-26.66 -22.22,-48.27 -49.62,-48.27l-795.44 0c-30.22,0 -44.3,-6.8 -49.36,-10.6 -3.26,-2.45 -4.93,-4.81 -4.93,-10.93 0,-16.26 15.11,-53.81 69.41,-95.43 2.39,-1.83 4.62,-3.82 6.67,-5.97 5.44,1.51 11.14,2.31 16.99,2.31l753.74 0c30.31,0 56.19,-21.32 61.17,-50.41l124.02 -723.91c6.3,-36.77 -22.85,-70.24 -61.18,-70.24l-1126.06 0c-9.44,0 -18.03,-5.5 -21.97,-14.09l-69.02 -150.05c-8.38,-16.4 -25.6,-26.78 -44.44,-26.78l-199.23 0zm402.54 311.57c-17.37,0 -29.07,17.75 -22.24,33.72l237.74 554.87c3.81,8.9 12.55,14.67 22.23,14.67l623.49 0c11.79,0 21.86,-8.49 23.84,-20.11l95.06 -554.88c2.54,-14.77 -8.85,-28.27 -23.84,-28.27l-956.28 0zm205.2 1085.86c0,-36.64 30.55,-66.36 68.23,-66.36 37.68,0 68.23,29.72 68.23,66.36 0,36.65 -30.55,66.37 -68.23,66.37 -37.68,0 -68.23,-29.72 -68.23,-66.37zm564.42 -66.36c-37.67,0 -68.22,29.72 -68.22,66.36 0,36.65 30.55,66.37 68.22,66.37 37.68,0 68.23,-29.72 68.23,-66.37 0,-36.64 -30.55,-66.36 -68.23,-66.36z"/>
   </g>
  </g>
 </g>
</svg>
