<?xml version="1.0" encoding="UTF-8"?>
<!DOCTYPE svg PUBLIC "-//W3C//DTD SVG 1.1//EN" "http://www.w3.org/Graphics/SVG/1.1/DTD/svg11.dtd">
<!-- Creator: CorelDRAW -->
<svg xmlns="http://www.w3.org/2000/svg" xml:space="preserve" width="131.074mm" height="38.049mm" version="1.1" style="shape-rendering:geometricPrecision; text-rendering:geometricPrecision; image-rendering:optimizeQuality; fill-rule:evenodd; clip-rule:evenodd"
viewBox="0 0 13107.4 3804.9"
 xmlns:xlink="http://www.w3.org/1999/xlink"
 xmlns:xodm="http://www.corel.com/coreldraw/odm/2003">
 <defs>
  <style type="text/css">
   <![CDATA[
    .fil2 {fill:#001F4B;fill-rule:nonzero}
    .fil1 {fill:#00CFD1;fill-rule:nonzero}
    .fil0 {fill:#E82452;fill-rule:nonzero}
   ]]>
  </style>
 </defs>
 <g id="Camada_x0020_1">
  <metadata id="CorelCorpID_0Corel-Layer"/>
  <g id="_2066147892592">
   <polygon class="fil0" points="6576.53,848.07 6999.36,848.07 6999.36,1270.89 6576.53,1270.89 "/>
   <polygon class="fil1" points="6576.53,2.52 6999.36,2.52 6999.36,425.32 6576.53,425.32 "/>
   <path class="fil2" d="M5301.51 3807.3l-535.81 -711.54 -60.45 -50.74 0 -8.55c285.21,-94.94 491.64,-363.86 491.64,-680.5l0 -354.33c0,-400.9 -326.16,-726.97 -727.06,-726.97l-1210.3 0c-192.98,0 -349.98,157 -349.98,349.98l0 2182.81 422.8 0 0 -2145.78 1126.73 0c170.48,0 312.94,138.69 315.01,305.87l0 431.69c0,172.77 -142.23,313.37 -315.01,313.37l-650.86 0 0 360.9 411.49 0 552.56 733.88 529.24 0 0 -0.09z"/>
   <path class="fil2" d="M344.06 3805.65c-194.14,0 -352.04,-157.91 -352.04,-352.04l0 -1833.4c0,-194.14 157.9,-352.04 352.04,-352.04l1120.23 0c563.4,0 1021.77,458.39 1021.77,1021.86l0 493.86c0,563.4 -458.37,1021.76 -1021.77,1021.76l-1120.23 0zm68.74 -396.62l1015.45 0c193.95,0 374.35,-87.79 494.91,-241.02 90.07,-106.98 140.09,-243.71 140.09,-384.21l0 -493.85c0,-140.41 -50.02,-277.14 -140.75,-385.05 -119.8,-152.33 -300.21,-240.18 -494.19,-240.18l-1015.44 0 0 1744.24 -0.07 0.07z"/>
   <path class="fil2" d="M5876.82 1270.88l506.66 1049.13c43.36,89.83 135.73,147.8 235.41,147.8l338.1 0c99.69,0 192.06,-57.97 235.42,-147.8l506.66 -1049.13 469.45 0 -595.42 1233.06c-107.25,222.13 -329.38,369.77 -573.82,385.22l0 918.21 -422.83 0 0 -918.21c-244.38,-15.45 -466.59,-163 -573.83,-385.22l-595.42 -1233.06 469.46 0 0.16 0z"/>
   <path class="fil2" d="M8803.7 2656.43l0 134.44c0,189.02 153.72,342.74 342.74,342.74l232.5 0 0 -133.77 -232.5 0c-115.21,0 -208.97,-93.78 -208.97,-208.97l0 -134.44c0,-115.28 93.76,-208.99 208.97,-208.99l232.5 0 0 -133.76 -232.5 0c-189.02,0 -342.74,153.8 -342.74,342.75z"/>
   <path class="fil2" d="M11035.87 2927.01l0 -782.07 -133.78 0 0 782.07c0,113.89 92.72,206.6 206.61,206.6l51.74 0 0 -133.77 -51.74 0c-40.16,0 -72.83,-32.68 -72.83,-72.83z"/>
   <path class="fil2" d="M12829.37 2313.68c-81.37,0 -147.47,66.19 -147.47,147.48l0 669.34 133.75 0 0 -669.34c0,-7.55 6.16,-13.71 13.72,-13.71l270.08 0 0 -133.77 -270.08 0z"/>
   <path class="fil2" d="M10144.82 2313.68l0 0 -32.2 0c-207.49,0 -376.24,168.84 -376.24,376.34l0 79.01c0,207.49 168.84,376.33 376.33,376.33l33.75 0c206.79,-0.91 374.79,-169.32 374.79,-376.33l0 -79.01c0,-100.52 -39.18,-195.03 -110.22,-266.15 -71.01,-71.1 -165.54,-110.19 -266.05,-110.19l-0.16 0zm242.49 455.35c0,133.75 -108.64,242.55 -242.4,242.55l-32.36 0c-133.78,0 -242.58,-108.8 -242.58,-242.55l0 -79.01c0,-133.76 108.8,-242.57 242.58,-242.57l32.18 0c64.81,0 125.73,25.3 171.54,71.02 45.84,45.83 71.04,106.76 71.04,171.55l0 79.01z"/>
   <path class="fil2" d="M11929.54 2313.68l0 0 -32.2 0c-207.49,0 -376.24,168.84 -376.24,376.34l0 79.01c0,207.49 168.82,376.33 376.33,376.33l33.75 0c206.77,-0.91 374.79,-169.32 374.79,-376.33l0 -79.01c0,-100.52 -39.18,-195.03 -110.21,-266.15 -71.04,-71.1 -165.55,-110.19 -266.06,-110.19l-0.16 0zm242.58 455.35c0,133.75 -108.64,242.55 -242.42,242.55l-32.36 0c-133.75,0 -242.55,-108.8 -242.55,-242.55l0 -79.01c0,-133.76 108.8,-242.57 242.55,-242.57l32.2 0c64.79,0 125.72,25.3 171.55,71.02 45.81,45.83 71.03,106.76 71.03,171.55l0 79.01z"/>
  </g>
 </g>
</svg>
