<svg xmlns="http://www.w3.org/2000/svg" xmlns:xlink="http://www.w3.org/1999/xlink" width="500" zoomAndPan="magnify" viewBox="0 0 375 374.999991" height="500" preserveAspectRatio="xMidYMid meet" version="1.0"><defs><clipPath id="94eae35448"><path d="M 134 303 L 230 303 L 230 355.6875 L 134 355.6875 Z M 134 303 " clip-rule="nonzero"/></clipPath><clipPath id="4921a66c2e"><path d="M 126 19.6875 L 249 19.6875 L 249 147 L 126 147 Z M 126 19.6875 " clip-rule="nonzero"/></clipPath><clipPath id="2aa662f1c9"><path d="M 153 143 L 156 143 L 156 144.414062 L 153 144.414062 Z M 153 143 " clip-rule="nonzero"/></clipPath><clipPath id="058afca1d8"><path d="M 152 143 L 154 143 L 154 144.414062 L 152 144.414062 Z M 152 143 " clip-rule="nonzero"/></clipPath><clipPath id="9c91f60dc8"><path d="M 150.574219 139 L 153 139 L 153 143 L 150.574219 143 Z M 150.574219 139 " clip-rule="nonzero"/></clipPath><clipPath id="26b232ae13"><path d="M 153 137.664062 L 156 137.664062 L 156 141 L 153 141 Z M 153 137.664062 " clip-rule="nonzero"/></clipPath></defs><path fill="#2576cc" d="M 279.914062 276.925781 C 277.320312 276.925781 275.164062 274.867188 275.070312 272.25 C 274.96875 269.570312 277.066406 267.320312 279.738281 267.226562 C 279.941406 267.21875 300.453125 266.316406 317.882812 255.777344 C 320.175781 254.390625 323.15625 255.128906 324.546875 257.421875 C 325.9375 259.714844 325.195312 262.695312 322.902344 264.085938 C 303.257812 275.964844 281.027344 276.890625 280.089844 276.925781 C 280.03125 276.925781 279.972656 276.925781 279.914062 276.925781 Z M 279.914062 276.925781 " fill-opacity="1" fill-rule="nonzero"/><path fill="#2576cc" d="M 68.851562 271.5 C 67.613281 271.5 66.367188 271.027344 65.421875 270.074219 L 53.265625 257.917969 C 51.371094 256.023438 51.371094 252.949219 53.265625 251.054688 C 55.164062 249.15625 58.238281 249.15625 60.132812 251.054688 L 72.289062 263.210938 C 74.183594 265.105469 74.183594 268.179688 72.289062 270.074219 C 71.335938 271.027344 70.089844 271.5 68.851562 271.5 Z M 68.851562 271.5 " fill-opacity="1" fill-rule="nonzero"/><g clip-path="url(#94eae35448)"><path fill="#2576cc" d="M 160.667969 355.363281 C 154.519531 355.363281 148.367188 353.019531 143.683594 348.335938 L 135.707031 340.359375 C 133.8125 338.464844 133.8125 335.390625 135.707031 333.492188 C 137.601562 331.597656 140.675781 331.597656 142.574219 333.492188 L 150.550781 341.472656 C 156.128906 347.054688 165.210938 347.046875 170.792969 341.472656 C 173.5 338.777344 174.988281 335.1875 174.988281 331.355469 C 174.988281 329.492188 174.636719 327.679688 173.9375 325.960938 C 173.230469 324.191406 172.167969 322.601562 170.792969 321.226562 C 168.898438 319.332031 168.898438 316.257812 170.792969 314.363281 C 172.691406 312.464844 175.765625 312.464844 177.660156 314.363281 L 195.425781 332.121094 C 198.132812 334.824219 201.730469 336.316406 205.542969 336.316406 C 209.359375 336.316406 212.957031 334.824219 215.664062 332.121094 C 218.367188 329.417969 219.859375 325.820312 219.859375 321.996094 C 219.859375 318.167969 218.367188 314.574219 215.671875 311.875 C 213.777344 309.980469 213.777344 306.90625 215.671875 305.011719 C 217.566406 303.117188 220.640625 303.117188 222.535156 305.011719 C 227.070312 309.542969 229.5625 315.574219 229.5625 321.996094 C 229.5625 328.414062 227.0625 334.445312 222.527344 338.984375 C 217.988281 343.519531 211.964844 346.019531 205.542969 346.019531 C 199.125 346.019531 193.101562 343.519531 188.5625 338.984375 L 184.441406 334.867188 C 183.699219 339.964844 181.359375 344.65625 177.652344 348.34375 C 172.96875 353.03125 166.816406 355.363281 160.667969 355.363281 Z M 160.667969 355.363281 " fill-opacity="1" fill-rule="nonzero"/></g><path fill="#2576cc" d="M 240.445312 326.703125 C 234.296875 326.703125 228.148438 324.363281 223.464844 319.675781 L 179.824219 276.039062 C 177.929688 274.144531 177.929688 271.070312 179.824219 269.171875 C 181.722656 267.277344 184.796875 267.277344 186.691406 269.171875 L 230.328125 312.8125 C 235.90625 318.398438 244.988281 318.398438 250.574219 312.8125 C 256.15625 307.234375 256.15625 298.152344 250.574219 292.566406 L 206.933594 248.929688 C 205.039062 247.035156 205.039062 243.960938 206.933594 242.0625 C 208.832031 240.167969 211.90625 240.167969 213.800781 242.0625 L 257.4375 285.703125 C 266.804688 295.070312 266.804688 310.308594 257.4375 319.667969 C 252.746094 324.363281 246.597656 326.703125 240.445312 326.703125 Z M 240.445312 326.703125 " fill-opacity="1" fill-rule="nonzero"/><path fill="#2576cc" d="M 261.003906 293.058594 C 254.851562 293.058594 248.703125 290.714844 244.027344 286.039062 C 242.132812 284.144531 242.132812 281.070312 244.027344 279.171875 C 245.921875 277.277344 248.996094 277.277344 250.894531 279.171875 C 256.476562 284.75 265.550781 284.75 271.128906 279.171875 C 273.269531 277.023438 274.65625 274.304688 275.128906 271.320312 C 275.136719 271.289062 275.136719 271.261719 275.148438 271.230469 C 275.265625 270.5625 275.324219 269.832031 275.324219 269.046875 C 275.324219 265.230469 273.832031 261.632812 271.128906 258.921875 L 201.839844 189.632812 C 196.84375 184.628906 189.511719 182.714844 182.707031 184.628906 C 179.210938 185.613281 176.066406 187.542969 173.625 190.203125 L 152.023438 213.65625 C 151.984375 213.707031 151.933594 213.75 151.890625 213.800781 C 146.9375 218.753906 140.347656 221.484375 133.347656 221.484375 C 126.347656 221.484375 119.75 218.753906 114.796875 213.800781 C 106.585938 205.585938 104.722656 193.1875 110.171875 182.960938 C 117.113281 169.910156 129.121094 152 146.910156 140.796875 C 146.980469 140.753906 147.039062 140.71875 147.105469 140.675781 C 161.738281 131.519531 177.769531 128.4375 194.753906 131.519531 C 197.332031 131.898438 232.535156 137.308594 260.195312 156.238281 L 288.53125 143.980469 C 290.992188 142.917969 293.847656 144.046875 294.910156 146.507812 C 295.972656 148.96875 294.84375 151.824219 292.382812 152.882812 L 261.550781 166.21875 C 259.984375 166.902344 258.164062 166.699219 256.78125 165.699219 C 230.3125 146.558594 193.65625 141.167969 193.289062 141.117188 C 193.21875 141.105469 193.160156 141.097656 193.101562 141.082031 C 178.476562 138.410156 164.6875 141.074219 152.101562 149 C 152.042969 149.035156 151.984375 149.078125 151.925781 149.109375 C 136.027344 159.195312 125.117188 175.554688 118.75 187.515625 C 115.320312 193.960938 116.492188 201.761719 121.664062 206.933594 C 124.78125 210.050781 128.933594 211.769531 133.347656 211.769531 C 137.730469 211.769531 141.855469 210.078125 144.964844 206.992188 L 166.488281 183.625 C 170.144531 179.640625 174.847656 176.757812 180.078125 175.285156 C 190.261719 172.410156 201.230469 175.285156 208.703125 182.765625 L 277.992188 252.054688 C 282.535156 256.605469 285.027344 262.636719 285.027344 269.046875 C 285.027344 270.378906 284.917969 271.667969 284.707031 272.878906 C 283.90625 277.875 281.589844 282.425781 277.992188 286.03125 C 273.308594 290.714844 267.152344 293.058594 261.003906 293.058594 Z M 261.003906 293.058594 " fill-opacity="1" fill-rule="nonzero"/><path fill="#2576cc" d="M 84.371094 155.679688 C 82.152344 155.679688 80.15625 154.15625 79.644531 151.90625 C 79.046875 149.296875 80.679688 146.691406 83.300781 146.09375 C 113.710938 139.160156 148.023438 139.996094 149.617188 140.046875 C 152.246094 140.105469 154.359375 142.253906 154.359375 144.898438 C 154.359375 147.621094 152.101562 149.835938 149.371094 149.75 C 147.964844 149.71875 114.757812 148.882812 85.457031 155.5625 C 85.09375 155.640625 84.730469 155.679688 84.371094 155.679688 Z M 84.371094 155.679688 " fill-opacity="1" fill-rule="nonzero"/><path fill="#2576cc" d="M 79.726562 290.089844 C 75.289062 290.089844 70.847656 288.398438 67.46875 285.019531 C 64.191406 281.742188 62.390625 277.386719 62.390625 272.761719 C 62.390625 268.136719 64.191406 263.773438 67.46875 260.503906 L 82.238281 245.738281 C 85.515625 242.460938 89.863281 240.65625 94.496094 240.65625 C 99.128906 240.65625 103.484375 242.460938 106.753906 245.738281 C 113.507812 252.492188 113.507812 263.496094 106.753906 270.253906 C 104.855469 272.148438 101.78125 272.148438 99.886719 270.253906 C 97.992188 268.355469 97.992188 265.28125 99.886719 263.386719 C 102.859375 260.414062 102.859375 255.570312 99.886719 252.59375 C 98.445312 251.152344 96.527344 250.363281 94.488281 250.363281 C 92.449219 250.363281 90.535156 251.152344 89.085938 252.59375 L 74.320312 267.363281 C 72.878906 268.804688 72.085938 270.714844 72.085938 272.753906 C 72.085938 274.792969 72.878906 276.714844 74.320312 278.152344 C 77.292969 281.128906 82.136719 281.128906 85.109375 278.152344 C 87.007812 276.257812 90.082031 276.257812 91.976562 278.152344 C 93.871094 280.050781 93.871094 283.125 91.976562 285.019531 C 88.605469 288.398438 84.167969 290.089844 79.726562 290.089844 Z M 79.726562 290.089844 " fill-opacity="1" fill-rule="nonzero"/><path fill="#2576cc" d="M 92.128906 312.996094 C 87.6875 312.996094 83.25 311.304688 79.871094 307.925781 C 76.59375 304.648438 74.789062 300.300781 74.789062 295.667969 C 74.789062 291.035156 76.59375 286.679688 79.871094 283.410156 L 99.894531 263.386719 C 103.171875 260.109375 107.519531 258.304688 112.152344 258.304688 C 116.785156 258.304688 121.140625 260.109375 124.410156 263.386719 C 131.167969 270.144531 131.167969 281.144531 124.410156 287.902344 C 122.515625 289.796875 119.441406 289.796875 117.542969 287.902344 C 115.648438 286.003906 115.648438 282.929688 117.542969 281.035156 C 120.519531 278.0625 120.519531 273.21875 117.542969 270.242188 C 116.105469 268.804688 114.183594 268.011719 112.144531 268.011719 C 110.105469 268.011719 108.195312 268.804688 106.746094 270.242188 L 86.71875 290.269531 C 85.277344 291.707031 84.488281 293.628906 84.488281 295.667969 C 84.488281 297.707031 85.277344 299.621094 86.71875 301.066406 C 89.695312 304.042969 94.539062 304.042969 97.511719 301.066406 C 99.40625 299.171875 102.480469 299.171875 104.378906 301.066406 C 106.273438 302.964844 106.273438 306.039062 104.378906 307.933594 C 101.007812 311.3125 96.558594 312.996094 92.128906 312.996094 Z M 92.128906 312.996094 " fill-opacity="1" fill-rule="nonzero"/><path fill="#2576cc" d="M 103.957031 336.46875 C 99.515625 336.46875 95.078125 334.773438 91.699219 331.394531 C 84.941406 324.640625 84.941406 313.636719 91.699219 306.882812 L 117.542969 281.042969 C 124.300781 274.289062 135.304688 274.289062 142.058594 281.042969 C 145.335938 284.320312 147.140625 288.667969 147.140625 293.300781 C 147.140625 297.933594 145.335938 302.289062 142.058594 305.558594 L 116.222656 331.394531 C 112.835938 334.773438 108.394531 336.46875 103.957031 336.46875 Z M 129.800781 285.667969 C 127.847656 285.667969 125.894531 286.410156 124.402344 287.902344 L 98.554688 313.738281 C 95.582031 316.710938 95.582031 321.554688 98.554688 324.53125 C 101.53125 327.503906 106.375 327.503906 109.347656 324.53125 L 135.183594 298.691406 C 136.625 297.253906 137.417969 295.332031 137.417969 293.292969 C 137.417969 291.253906 136.625 289.332031 135.183594 287.894531 C 133.710938 286.410156 131.757812 285.667969 129.800781 285.667969 Z M 129.800781 285.667969 " fill-opacity="1" fill-rule="nonzero"/><path fill="#2576cc" d="M 129.121094 346.628906 C 124.679688 346.628906 120.238281 344.933594 116.863281 341.554688 C 110.097656 334.789062 110.097656 323.789062 116.863281 317.03125 C 118.757812 315.136719 121.832031 315.136719 123.726562 317.03125 C 125.625 318.929688 125.625 322.003906 123.726562 323.898438 C 120.753906 326.871094 120.753906 331.714844 123.734375 334.699219 C 126.710938 337.671875 131.554688 337.671875 134.527344 334.699219 L 152.867188 316.359375 C 154.308594 314.917969 155.101562 312.996094 155.101562 310.957031 C 155.101562 308.917969 154.308594 307.007812 152.867188 305.566406 C 151.425781 304.125 149.507812 303.324219 147.46875 303.324219 C 147.46875 303.324219 147.46875 303.324219 147.460938 303.324219 C 145.421875 303.324219 143.507812 304.117188 142.074219 305.558594 C 140.179688 307.453125 137.105469 307.453125 135.210938 305.558594 C 133.316406 303.664062 133.316406 300.589844 135.210938 298.691406 C 138.480469 295.425781 142.835938 293.621094 147.460938 293.621094 C 147.46875 293.621094 147.46875 293.621094 147.476562 293.621094 C 152.109375 293.621094 156.457031 295.433594 159.734375 298.699219 C 163.011719 301.976562 164.8125 306.324219 164.8125 310.957031 C 164.8125 315.59375 163.011719 319.945312 159.734375 323.214844 L 141.394531 341.554688 C 138 344.933594 133.558594 346.628906 129.121094 346.628906 Z M 129.121094 346.628906 " fill-opacity="1" fill-rule="nonzero"/><path fill="#2576cc" d="M 337.65625 274.75 C 326.710938 274.75 316.671875 267.4375 313.703125 256.378906 L 286.433594 154.601562 C 284.726562 148.226562 285.609375 141.554688 288.929688 135.808594 C 292.246094 130.0625 297.589844 125.953125 303.957031 124.25 L 330.578125 117.113281 C 333.164062 116.425781 335.828125 117.957031 336.519531 120.542969 L 374.105469 260.832031 C 374.796875 263.421875 373.265625 266.082031 370.679688 266.773438 L 344.058594 273.910156 C 341.925781 274.480469 339.777344 274.75 337.65625 274.75 Z M 306.476562 133.617188 C 302.609375 134.652344 299.359375 137.15625 297.335938 140.660156 C 295.316406 144.164062 294.773438 148.226562 295.8125 152.09375 L 323.082031 253.867188 C 325.238281 261.902344 333.527344 266.6875 341.554688 264.53125 L 363.484375 258.652344 L 328.40625 127.738281 Z M 305.222656 128.933594 Z M 305.222656 128.933594 " fill-opacity="1" fill-rule="nonzero"/><path fill="#2576cc" d="M 37.277344 274.707031 C 35.164062 274.707031 33.007812 274.4375 30.867188 273.859375 L 4.246094 266.722656 C 1.660156 266.03125 0.117188 263.371094 0.816406 260.78125 L 38.40625 120.492188 C 38.742188 119.246094 39.550781 118.191406 40.664062 117.542969 C 41.777344 116.902344 43.105469 116.726562 44.34375 117.054688 L 70.964844 124.191406 C 84.167969 127.730469 92.035156 141.351562 88.496094 154.550781 L 61.226562 256.328125 C 58.261719 267.386719 48.21875 274.707031 37.277344 274.707031 Z M 33.378906 264.480469 C 41.40625 266.628906 49.695312 261.84375 51.851562 253.816406 L 79.121094 152.042969 C 81.277344 144.003906 76.492188 135.722656 68.457031 133.566406 L 46.519531 127.6875 L 11.441406 258.601562 Z M 33.378906 264.480469 " fill-opacity="1" fill-rule="nonzero"/><g clip-path="url(#4921a66c2e)"><path fill="#2576cc" d="M 217.332031 146.652344 C 216.132812 146.652344 214.9375 146.210938 214.003906 145.328125 C 212.046875 143.492188 211.964844 140.417969 213.800781 138.46875 C 229.746094 121.554688 238.535156 100.113281 238.535156 78.078125 C 238.535156 69.171875 237.136719 60.386719 234.382812 51.917969 C 216.050781 52.726562 198.535156 45.3125 187.476562 32.566406 C 176.414062 45.3125 158.933594 52.734375 140.566406 51.917969 C 137.804688 60.386719 136.40625 69.171875 136.40625 78.078125 C 136.40625 99.710938 144.90625 120.863281 160.347656 137.621094 C 162.160156 139.589844 162.042969 142.65625 160.070312 144.476562 C 158.097656 146.296875 155.03125 146.160156 153.214844 144.199219 C 136.121094 125.640625 126.703125 102.152344 126.703125 78.078125 C 126.703125 66.804688 128.707031 55.71875 132.667969 45.113281 C 133.441406 43.039062 135.523438 41.757812 137.71875 41.988281 C 139.574219 42.179688 141.453125 42.28125 143.304688 42.28125 C 159.808594 42.28125 175.175781 34.472656 183.414062 21.894531 C 184.308594 20.523438 185.839844 19.703125 187.476562 19.703125 C 189.109375 19.703125 190.632812 20.53125 191.535156 21.894531 C 199.765625 34.472656 215.132812 42.28125 231.644531 42.28125 C 233.496094 42.28125 235.375 42.179688 237.230469 41.988281 C 239.425781 41.757812 241.507812 43.039062 242.285156 45.113281 C 246.242188 55.710938 248.246094 66.804688 248.246094 78.078125 C 248.246094 102.589844 238.527344 126.40625 220.878906 145.125 C 219.910156 146.136719 218.621094 146.652344 217.332031 146.652344 Z M 217.332031 146.652344 " fill-opacity="1" fill-rule="nonzero"/></g><path fill="#2576cc" d="M 176.1875 119.09375 C 174.898438 119.09375 173.667969 118.582031 172.757812 117.671875 L 155.46875 100.382812 C 153.574219 98.488281 153.574219 95.414062 155.46875 93.519531 C 157.367188 91.621094 160.441406 91.621094 162.335938 93.519531 L 176.1875 107.367188 L 212.597656 70.957031 C 214.492188 69.0625 217.566406 69.0625 219.460938 70.957031 C 221.355469 72.851562 221.355469 75.929688 219.460938 77.824219 L 179.625 117.664062 C 178.703125 118.582031 177.476562 119.09375 176.1875 119.09375 Z M 176.1875 119.09375 " fill-opacity="1" fill-rule="nonzero"/><path fill="#2576cc" d="M 156.09375 142.738281 C 156.042969 142.738281 156 142.695312 156 142.644531 C 155.996094 142.59375 156.039062 142.546875 156.089844 142.546875 C 156.09375 142.546875 156.5 142.527344 156.84375 142.320312 C 156.890625 142.292969 156.949219 142.308594 156.976562 142.351562 C 157.003906 142.398438 156.988281 142.457031 156.941406 142.484375 C 156.554688 142.71875 156.117188 142.738281 156.097656 142.738281 C 156.097656 142.738281 156.097656 142.738281 156.09375 142.738281 Z M 156.09375 142.738281 " fill-opacity="1" fill-rule="nonzero"/><path fill="#2576cc" d="M 151.929688 142.628906 C 151.90625 142.628906 151.882812 142.621094 151.863281 142.601562 L 151.625 142.363281 C 151.585938 142.324219 151.585938 142.265625 151.625 142.226562 C 151.660156 142.191406 151.722656 142.191406 151.757812 142.226562 L 152 142.46875 C 152.035156 142.503906 152.035156 142.566406 152 142.601562 C 151.980469 142.621094 151.957031 142.628906 151.929688 142.628906 Z M 151.929688 142.628906 " fill-opacity="1" fill-rule="nonzero"/><g clip-path="url(#2aa662f1c9)"><path fill="#2576cc" d="M 153.742188 144.285156 C 153.621094 144.285156 153.5 144.238281 153.40625 144.144531 L 153.25 143.988281 C 153.210938 143.953125 153.210938 143.890625 153.25 143.855469 C 153.289062 143.816406 153.347656 143.816406 153.386719 143.855469 L 153.542969 144.011719 C 153.652344 144.121094 153.832031 144.121094 153.941406 144.011719 C 153.996094 143.957031 154.023438 143.886719 154.023438 143.8125 C 154.023438 143.773438 154.019531 143.738281 154.003906 143.703125 C 153.988281 143.671875 153.96875 143.640625 153.941406 143.613281 C 153.90625 143.574219 153.90625 143.511719 153.941406 143.476562 C 153.980469 143.4375 154.039062 143.4375 154.078125 143.476562 L 154.429688 143.828125 C 154.480469 143.878906 154.550781 143.910156 154.628906 143.910156 C 154.703125 143.910156 154.773438 143.878906 154.828125 143.828125 C 154.878906 143.773438 154.910156 143.703125 154.910156 143.625 C 154.910156 143.550781 154.878906 143.480469 154.828125 143.425781 C 154.789062 143.390625 154.789062 143.328125 154.828125 143.292969 C 154.863281 143.253906 154.925781 143.253906 154.960938 143.292969 C 155.050781 143.382812 155.101562 143.5 155.101562 143.625 C 155.101562 143.753906 155.050781 143.871094 154.960938 143.960938 C 154.871094 144.050781 154.753906 144.101562 154.628906 144.101562 C 154.5 144.101562 154.382812 144.050781 154.292969 143.960938 L 154.210938 143.878906 C 154.195312 143.980469 154.152344 144.074219 154.078125 144.148438 C 153.984375 144.238281 153.863281 144.285156 153.742188 144.285156 Z M 153.742188 144.285156 " fill-opacity="1" fill-rule="nonzero"/></g><path fill="#2576cc" d="M 155.316406 143.71875 C 155.195312 143.71875 155.074219 143.671875 154.980469 143.582031 L 154.121094 142.71875 C 154.082031 142.683594 154.082031 142.621094 154.121094 142.585938 C 154.15625 142.546875 154.21875 142.546875 154.253906 142.585938 L 155.117188 143.445312 C 155.226562 143.554688 155.40625 143.554688 155.515625 143.445312 C 155.625 143.335938 155.625 143.15625 155.515625 143.046875 L 154.65625 142.183594 C 154.617188 142.148438 154.617188 142.085938 154.65625 142.050781 C 154.691406 142.011719 154.753906 142.011719 154.789062 142.050781 L 155.652344 142.910156 C 155.835938 143.09375 155.835938 143.394531 155.652344 143.582031 C 155.558594 143.671875 155.4375 143.71875 155.316406 143.71875 Z M 155.316406 143.71875 " fill-opacity="1" fill-rule="nonzero"/><path fill="#2576cc" d="M 155.722656 143.054688 C 155.601562 143.054688 155.480469 143.007812 155.386719 142.917969 C 155.347656 142.878906 155.347656 142.820312 155.386719 142.78125 C 155.425781 142.746094 155.484375 142.746094 155.523438 142.78125 C 155.632812 142.890625 155.8125 142.890625 155.921875 142.78125 C 155.964844 142.738281 155.992188 142.6875 156 142.628906 C 156 142.625 156 142.625 156 142.625 C 156.003906 142.613281 156.003906 142.597656 156.003906 142.582031 C 156.003906 142.507812 155.976562 142.4375 155.921875 142.382812 L 154.554688 141.015625 C 154.457031 140.917969 154.3125 140.878906 154.175781 140.917969 C 154.109375 140.9375 154.046875 140.972656 153.996094 141.027344 L 153.570312 141.488281 C 153.570312 141.492188 153.570312 141.492188 153.570312 141.492188 C 153.472656 141.589844 153.339844 141.644531 153.203125 141.644531 C 153.066406 141.644531 152.933594 141.589844 152.835938 141.492188 C 152.675781 141.332031 152.636719 141.085938 152.746094 140.882812 C 152.882812 140.625 153.121094 140.273438 153.472656 140.050781 C 153.472656 140.050781 153.472656 140.050781 153.476562 140.050781 C 153.761719 139.871094 154.078125 139.808594 154.414062 139.871094 C 154.464844 139.875 155.160156 139.984375 155.707031 140.355469 L 156.265625 140.113281 C 156.3125 140.09375 156.371094 140.117188 156.390625 140.164062 C 156.410156 140.214844 156.390625 140.269531 156.339844 140.289062 L 155.730469 140.554688 C 155.703125 140.566406 155.664062 140.5625 155.636719 140.542969 C 155.117188 140.164062 154.394531 140.058594 154.386719 140.058594 C 154.382812 140.058594 154.382812 140.058594 154.382812 140.058594 C 154.09375 140.003906 153.820312 140.058594 153.574219 140.214844 C 153.570312 140.214844 153.570312 140.214844 153.570312 140.214844 C 153.257812 140.414062 153.039062 140.738281 152.914062 140.972656 C 152.847656 141.101562 152.871094 141.253906 152.972656 141.355469 C 153.035156 141.417969 153.117188 141.453125 153.203125 141.453125 C 153.289062 141.453125 153.371094 141.417969 153.433594 141.359375 L 153.855469 140.898438 C 153.929688 140.820312 154.023438 140.761719 154.125 140.734375 C 154.324219 140.675781 154.542969 140.734375 154.691406 140.878906 L 156.058594 142.246094 C 156.144531 142.335938 156.195312 142.457031 156.195312 142.582031 C 156.195312 142.609375 156.195312 142.632812 156.1875 142.65625 C 156.171875 142.757812 156.128906 142.847656 156.058594 142.917969 C 155.964844 143.007812 155.84375 143.054688 155.722656 143.054688 Z M 155.722656 143.054688 " fill-opacity="1" fill-rule="nonzero"/><path fill="#2576cc" d="M 152.238281 140.347656 C 152.191406 140.347656 152.152344 140.316406 152.144531 140.269531 C 152.132812 140.21875 152.164062 140.167969 152.214844 140.15625 C 152.816406 140.019531 153.492188 140.035156 153.523438 140.039062 C 153.574219 140.039062 153.617188 140.082031 153.617188 140.132812 C 153.617188 140.1875 153.574219 140.230469 153.519531 140.230469 C 153.492188 140.226562 152.835938 140.210938 152.257812 140.34375 C 152.25 140.34375 152.246094 140.347656 152.238281 140.347656 Z M 152.238281 140.347656 " fill-opacity="1" fill-rule="nonzero"/><path fill="#2576cc" d="M 152.144531 142.996094 C 152.058594 142.996094 151.96875 142.964844 151.902344 142.898438 C 151.839844 142.832031 151.804688 142.746094 151.804688 142.65625 C 151.804688 142.5625 151.839844 142.476562 151.902344 142.414062 L 152.195312 142.121094 C 152.257812 142.058594 152.34375 142.023438 152.4375 142.023438 C 152.527344 142.023438 152.613281 142.058594 152.679688 142.121094 C 152.8125 142.253906 152.8125 142.472656 152.679688 142.605469 C 152.640625 142.644531 152.582031 142.644531 152.542969 142.605469 C 152.503906 142.570312 152.503906 142.507812 152.542969 142.46875 C 152.601562 142.410156 152.601562 142.316406 152.542969 142.257812 C 152.515625 142.230469 152.476562 142.214844 152.4375 142.214844 C 152.394531 142.214844 152.359375 142.230469 152.332031 142.257812 L 152.039062 142.550781 C 152.011719 142.578125 151.996094 142.613281 151.996094 142.65625 C 151.996094 142.695312 152.011719 142.734375 152.039062 142.761719 C 152.097656 142.820312 152.191406 142.820312 152.25 142.761719 C 152.289062 142.722656 152.351562 142.722656 152.386719 142.761719 C 152.425781 142.800781 152.425781 142.859375 152.386719 142.898438 C 152.320312 142.964844 152.234375 142.996094 152.144531 142.996094 Z M 152.144531 142.996094 " fill-opacity="1" fill-rule="nonzero"/><path fill="#2576cc" d="M 152.390625 143.449219 C 152.300781 143.449219 152.214844 143.414062 152.148438 143.347656 C 152.082031 143.285156 152.046875 143.199219 152.046875 143.105469 C 152.046875 143.015625 152.082031 142.929688 152.148438 142.867188 L 152.542969 142.46875 C 152.609375 142.40625 152.695312 142.371094 152.785156 142.371094 C 152.875 142.371094 152.960938 142.40625 153.027344 142.46875 C 153.160156 142.605469 153.160156 142.820312 153.027344 142.953125 C 152.988281 142.992188 152.929688 142.992188 152.890625 142.953125 C 152.855469 142.917969 152.855469 142.855469 152.890625 142.820312 C 152.949219 142.761719 152.949219 142.664062 152.890625 142.605469 C 152.863281 142.578125 152.824219 142.5625 152.785156 142.5625 C 152.746094 142.5625 152.707031 142.578125 152.679688 142.605469 L 152.285156 143 C 152.253906 143.03125 152.238281 143.066406 152.238281 143.105469 C 152.238281 143.148438 152.253906 143.183594 152.285156 143.214844 C 152.34375 143.273438 152.4375 143.273438 152.496094 143.214844 C 152.535156 143.175781 152.59375 143.175781 152.632812 143.214844 C 152.667969 143.25 152.667969 143.3125 152.632812 143.347656 C 152.566406 143.417969 152.476562 143.449219 152.390625 143.449219 Z M 152.390625 143.449219 " fill-opacity="1" fill-rule="nonzero"/><path fill="#2576cc" d="M 152.625 143.914062 C 152.535156 143.914062 152.449219 143.878906 152.382812 143.8125 C 152.25 143.679688 152.25 143.460938 152.382812 143.328125 L 152.890625 142.820312 C 153.023438 142.6875 153.242188 142.6875 153.375 142.820312 C 153.441406 142.882812 153.476562 142.96875 153.476562 143.0625 C 153.476562 143.152344 153.441406 143.238281 153.375 143.300781 L 152.867188 143.8125 C 152.796875 143.878906 152.710938 143.914062 152.625 143.914062 Z M 153.132812 142.910156 C 153.09375 142.910156 153.054688 142.925781 153.027344 142.953125 L 152.515625 143.464844 C 152.457031 143.523438 152.457031 143.617188 152.515625 143.675781 C 152.574219 143.734375 152.671875 143.734375 152.730469 143.675781 L 153.238281 143.167969 C 153.269531 143.136719 153.285156 143.101562 153.285156 143.058594 C 153.285156 143.019531 153.269531 142.984375 153.238281 142.953125 C 153.210938 142.925781 153.171875 142.910156 153.132812 142.910156 Z M 153.132812 142.910156 " fill-opacity="1" fill-rule="nonzero"/><g clip-path="url(#058afca1d8)"><path fill="#2576cc" d="M 153.121094 144.113281 C 153.03125 144.113281 152.945312 144.078125 152.878906 144.011719 C 152.746094 143.878906 152.746094 143.664062 152.878906 143.527344 C 152.914062 143.492188 152.976562 143.492188 153.011719 143.527344 C 153.050781 143.566406 153.050781 143.625 153.011719 143.664062 C 152.953125 143.722656 152.953125 143.820312 153.011719 143.878906 C 153.074219 143.9375 153.167969 143.9375 153.226562 143.878906 L 153.589844 143.515625 C 153.617188 143.488281 153.632812 143.449219 153.632812 143.410156 C 153.632812 143.367188 153.617188 143.332031 153.589844 143.300781 C 153.558594 143.273438 153.523438 143.257812 153.480469 143.257812 C 153.441406 143.257812 153.402344 143.273438 153.375 143.300781 C 153.339844 143.339844 153.277344 143.339844 153.238281 143.300781 C 153.203125 143.265625 153.203125 143.203125 153.238281 143.167969 C 153.304688 143.101562 153.390625 143.066406 153.480469 143.066406 C 153.574219 143.066406 153.660156 143.101562 153.722656 143.167969 C 153.789062 143.230469 153.824219 143.316406 153.824219 143.410156 C 153.824219 143.5 153.789062 143.585938 153.722656 143.652344 L 153.363281 144.011719 C 153.296875 144.078125 153.207031 144.113281 153.121094 144.113281 Z M 153.121094 144.113281 " fill-opacity="1" fill-rule="nonzero"/></g><path fill="#2576cc" d="M 157.234375 142.695312 C 157.019531 142.695312 156.820312 142.550781 156.761719 142.332031 L 156.222656 140.324219 C 156.191406 140.199219 156.207031 140.066406 156.273438 139.953125 C 156.339844 139.839844 156.441406 139.757812 156.570312 139.726562 L 157.09375 139.585938 C 157.144531 139.570312 157.199219 139.601562 157.210938 139.652344 L 157.953125 142.421875 C 157.964844 142.472656 157.9375 142.523438 157.886719 142.539062 L 157.359375 142.679688 C 157.316406 142.6875 157.277344 142.695312 157.234375 142.695312 Z M 156.617188 139.910156 C 156.542969 139.929688 156.476562 139.980469 156.4375 140.050781 C 156.398438 140.117188 156.386719 140.199219 156.410156 140.273438 L 156.945312 142.28125 C 156.988281 142.441406 157.152344 142.535156 157.3125 142.492188 L 157.742188 142.378906 L 157.050781 139.792969 Z M 156.59375 139.816406 Z M 156.59375 139.816406 " fill-opacity="1" fill-rule="nonzero"/><g clip-path="url(#9c91f60dc8)"><path fill="#2576cc" d="M 151.308594 142.695312 C 151.265625 142.695312 151.222656 142.6875 151.179688 142.675781 L 150.65625 142.535156 C 150.605469 142.523438 150.574219 142.46875 150.589844 142.417969 L 151.332031 139.652344 C 151.335938 139.628906 151.351562 139.605469 151.375 139.59375 C 151.398438 139.582031 151.421875 139.578125 151.449219 139.582031 L 151.972656 139.722656 C 152.234375 139.792969 152.386719 140.0625 152.320312 140.324219 L 151.78125 142.332031 C 151.722656 142.550781 151.523438 142.695312 151.308594 142.695312 Z M 151.230469 142.492188 C 151.390625 142.535156 151.554688 142.441406 151.59375 142.28125 L 152.132812 140.273438 C 152.175781 140.117188 152.082031 139.953125 151.921875 139.910156 L 151.492188 139.792969 L 150.796875 142.375 Z M 151.230469 142.492188 " fill-opacity="1" fill-rule="nonzero"/></g><g clip-path="url(#26b232ae13)"><path fill="#2576cc" d="M 154.859375 140.167969 C 154.835938 140.167969 154.8125 140.160156 154.792969 140.140625 C 154.753906 140.105469 154.753906 140.042969 154.789062 140.007812 C 155.105469 139.671875 155.277344 139.25 155.277344 138.816406 C 155.277344 138.640625 155.25 138.464844 155.195312 138.296875 C 154.835938 138.316406 154.488281 138.167969 154.269531 137.917969 C 154.054688 138.167969 153.707031 138.316406 153.34375 138.296875 C 153.292969 138.464844 153.261719 138.640625 153.261719 138.816406 C 153.261719 139.242188 153.429688 139.660156 153.734375 139.988281 C 153.773438 140.027344 153.769531 140.089844 153.730469 140.125 C 153.691406 140.160156 153.632812 140.15625 153.59375 140.121094 C 153.257812 139.753906 153.070312 139.289062 153.070312 138.816406 C 153.070312 138.59375 153.113281 138.375 153.191406 138.164062 C 153.207031 138.125 153.246094 138.097656 153.289062 138.101562 C 153.324219 138.105469 153.363281 138.109375 153.398438 138.109375 C 153.726562 138.109375 154.027344 137.953125 154.191406 137.707031 C 154.207031 137.679688 154.238281 137.664062 154.269531 137.664062 C 154.304688 137.664062 154.332031 137.679688 154.351562 137.707031 C 154.511719 137.953125 154.816406 138.109375 155.140625 138.109375 C 155.179688 138.109375 155.214844 138.105469 155.253906 138.101562 C 155.296875 138.097656 155.335938 138.125 155.351562 138.164062 C 155.429688 138.375 155.46875 138.59375 155.46875 138.816406 C 155.46875 139.296875 155.277344 139.769531 154.929688 140.136719 C 154.910156 140.15625 154.886719 140.167969 154.859375 140.167969 Z M 154.859375 140.167969 " fill-opacity="1" fill-rule="nonzero"/></g><path fill="#2576cc" d="M 154.046875 139.625 C 154.023438 139.625 154 139.613281 153.980469 139.597656 L 153.640625 139.253906 C 153.601562 139.21875 153.601562 139.15625 153.640625 139.121094 C 153.675781 139.082031 153.738281 139.082031 153.773438 139.121094 L 154.046875 139.394531 L 154.765625 138.675781 C 154.804688 138.636719 154.863281 138.636719 154.902344 138.675781 C 154.941406 138.710938 154.941406 138.773438 154.902344 138.808594 L 154.117188 139.597656 C 154.097656 139.613281 154.074219 139.625 154.046875 139.625 Z M 154.046875 139.625 " fill-opacity="1" fill-rule="nonzero"/></svg>