<?xml version="1.0" encoding="UTF-8"?>
<!DOCTYPE svg PUBLIC "-//W3C//DTD SVG 1.1//EN" "http://www.w3.org/Graphics/SVG/1.1/DTD/svg11.dtd">
<!-- Creator: CorelDRAW -->
<svg xmlns="http://www.w3.org/2000/svg" xml:space="preserve" width="307.34mm" height="85.7672mm" version="1.1" style="shape-rendering:geometricPrecision; text-rendering:geometricPrecision; image-rendering:optimizeQuality; fill-rule:evenodd; clip-rule:evenodd"
viewBox="0 0 30733.98 8576.72"
 xmlns:xlink="http://www.w3.org/1999/xlink"
 xmlns:xodm="http://www.corel.com/coreldraw/odm/2003">
 <defs>
  <style type="text/css">
   <![CDATA[
    .fil8 {fill:#020304}
    .fil0 {fill:#040506}
    .fil29 {fill:#08090A}
    .fil24 {fill:#0A0B0C}
    .fil28 {fill:#0D0E0E}
    .fil23 {fill:#0D0E0F}
    .fil22 {fill:#0E0F0F}
    .fil25 {fill:#0E0F10}
    .fil26 {fill:#0F0F10}
    .fil27 {fill:#101011}
    .fil20 {fill:#151516}
    .fil13 {fill:#18191A}
    .fil31 {fill:#2B2C2D}
    .fil34 {fill:#303132}
    .fil21 {fill:#393A3B}
    .fil39 {fill:#424344}
    .fil30 {fill:#4D4E4F}
    .fil46 {fill:#5F6061}
    .fil32 {fill:#656667}
    .fil10 {fill:#69ACDA}
    .fil1 {fill:#6DB3E2}
    .fil19 {fill:#6E6F70}
    .fil2 {fill:#6EB3E2}
    .fil12 {fill:#6F7070}
    .fil15 {fill:#6F7071}
    .fil16 {fill:#707172}
    .fil3 {fill:#70B5E5}
    .fil17 {fill:#717273}
    .fil41 {fill:#78797A}
    .fil9 {fill:#7D7E7E}
    .fil5 {fill:#878888}
    .fil47 {fill:#878889}
    .fil7 {fill:#8A8B8B}
    .fil6 {fill:#8B8C8C}
    .fil40 {fill:#8F9091}
    .fil35 {fill:#929393}
    .fil45 {fill:#939494}
    .fil42 {fill:#969797}
    .fil43 {fill:#999A9A}
    .fil11 {fill:#9C9D9E}
    .fil18 {fill:#B6D8F1}
    .fil14 {fill:#BCBDBD}
    .fil33 {fill:#BDBEBE}
    .fil4 {fill:#BEBFBF}
    .fil44 {fill:#C4C5C5}
    .fil38 {fill:#D3D4D4;fill-opacity:0.658824}
    .fil37 {fill:#CDCECE;fill-opacity:0.752941}
    .fil36 {fill:#CCCDCD;fill-opacity:0.878431}
   ]]>
  </style>
 </defs>
 <g id="Camada_x0020_1">
  <metadata id="CorelCorpID_0Corel-Layer"/>
  <g id="Logo_CDR.cdr">
   <path class="fil0" d="M13827.81 2575.04c7.23,-5.7 9.97,-13.73 8.04,-24.11 838.56,0 1677.2,0 2515.75,0 -10.53,228.51 -30.62,456.24 -60.28,683.19 -2.97,7.37 -6.99,14.07 -12.05,20.1 -530.48,4.02 -1060.96,5.36 -1591.44,4.02 -4.34,220.54 -20.41,440.23 -48.23,659.07 479.61,-2.67 959.21,0 1438.73,8.04 6.43,11.58 11.81,23.64 16.07,36.17 -18.97,218.62 -40.43,436.98 -64.3,655.06 -490.13,9.87 -980.42,15.23 -1470.87,16.08 -23.23,319.45 -52.65,638.28 -88.42,956.47 392.48,8.03 786.32,10.7 1181.53,8.03 1.69,-13.49 -3.62,-21.53 -16.08,-24.11 -115.18,-132.59 -239.76,-255.83 -373.75,-369.73 -16.71,-20.61 -31.42,-42.05 -44.2,-64.3 2.73,-6.73 8.12,-9.42 16.07,-8.03 186.96,133.75 377.21,263.69 570.67,389.82 71.29,44.44 148.94,67.22 233.09,68.32 5.39,32.15 10.69,64.3 16.08,96.45 885.33,523.04 1804.26,982.52 2756.88,1378.44 2212.74,880.95 4492.75,1116.74 6839.96,707.3 1001.64,-184.76 1982.22,-447.33 2941.75,-787.68 540.2,-189.88 1076.07,-390.82 1607.51,-602.81 175.06,-23 321.1,31.92 438.04,164.77 90.67,166.53 90.67,332.65 0,498.32 -41.15,33.38 -79.97,69.55 -116.54,108.51 -1931.42,845.87 -3951.59,1317.44 -6060.32,1414.61 -1596.66,60.12 -3158.6,-143.55 -4685.9,-610.85 -710.76,-240.16 -1396.6,-537.55 -2057.61,-892.17 -245.15,-145.34 -488.93,-292.69 -731.42,-442.07 -103.76,-71.88 -205.6,-145.56 -305.43,-221.03 -3.77,-11.3 -11.81,-16.66 -24.11,-16.07 -213.4,-149.09 -419.64,-307.16 -618.89,-474.22 -0.48,-4.36 -3.14,-7.04 -8.04,-8.04 -7.63,12.42 -10.37,25.82 -8.04,40.19 -3.85,114.04 -17.28,226.56 -40.18,337.58 -833.26,0 -1666.43,0 -2499.68,0 0,-16.08 0,-32.15 0,-48.23 11.17,-241.52 28.61,-482.65 52.24,-723.38 49.03,-463.28 95.89,-926.79 140.66,-1390.5 -2.49,-24.37 -6.51,-48.48 -12.06,-72.34 -17.2,-20.1 -37.29,-37.51 -60.28,-52.24 -432.74,-276.63 -864.04,-555.26 -1294.05,-835.9 -170.8,-106.19 -343.6,-209.33 -518.42,-309.45 -59.4,629.55 -118.39,1259.16 -176.83,1888.83 -34.56,283.65 -65.34,567.65 -92.43,851.98 519.79,0 1039.5,0 1559.29,0 -18.09,232.52 -44.85,462.94 -80.38,691.23 -822.48,0 -1645.05,0 -2467.53,0 0,-21.44 0,-42.87 0,-64.3 -0.08,-88.58 3.94,-177 12.06,-265.24 106.09,-1125.85 217.33,-2251.11 333.56,-3375.78 7.23,-5.7 9.96,-13.73 8.03,-24.11 12.86,2.15 23.55,-0.53 32.15,-8.04 96.38,-5.67 192.83,-8.35 289.36,-8.03 18.96,1.3 37.69,-0.03 56.26,-4.02 -4.34,-5.77 -9.73,-9.79 -16.08,-12.06 -501.7,-283.02 -1013.37,-549.59 -1535.17,-799.74 -396.49,-171.43 -798.37,-329.51 -1205.63,-474.21 -1481.71,-481.13 -2995.45,-620.45 -4541.23,-417.96 -642.07,83.94 -1279.71,193.79 -1912.93,329.54 -515.68,123.57 -1030.09,252.17 -1543.21,385.81 -173.86,18.2 -319.87,-36.73 -438.05,-164.77 -85.4,-160.23 -90.76,-323.67 -16.08,-490.29 44.91,-61.01 99.84,-110.57 164.77,-148.7 926.49,-246.38 1864.21,-439.29 2813.15,-578.7 427.05,-59.29 855.72,-102.15 1286.01,-128.6 1761.28,-114.61 3443.8,193.5 5047.58,924.31 226.74,112.04 454.45,221.89 683.2,329.55 795.8,427.18 1562.1,898.72 2298.74,1414.6 461.35,332.73 918.13,671.64 1370.4,1016.76 31.43,-380.97 67.6,-761.41 108.51,-1141.34z"/>
   <path class="fil1" d="M4464.05 244.15c1632.37,-86.15 3197.02,196.51 4693.94,847.96 912.99,397.42 1775.66,877 2588.09,1438.73 -23.63,9.03 -47.74,11.71 -72.34,8.03 -208.81,-107.07 -412.48,-222.27 -610.85,-345.61 -593.33,-334.15 -1204.19,-634.22 -1832.56,-900.21 -499.78,-195.17 -1008.8,-361.28 -1527.14,-498.33 -970.13,-227.93 -1953.39,-316.34 -2949.78,-265.24 -693.57,44.17 -1382.12,129.9 -2065.66,257.21 -665.48,133.23 -1327.25,281.92 -1985.27,446.08 -3.87,-103.76 -26.64,-202.89 -68.32,-297.39 -6.18,-20.89 -4.84,-40.98 4.02,-60.28 625.98,-148.77 1255.58,-282.73 1888.82,-401.88 642.9,-108.46 1288.58,-184.82 1937.05,-229.07z"/>
   <path class="fil2" d="M284.52 911.27c126,-11.15 207.71,45.11 245.15,168.79 19.35,89.45 1.94,169.82 -52.24,241.12 -49.37,35.12 -102.96,41.81 -160.76,20.1 -55.53,-52.82 -94.38,-115.78 -116.54,-188.89 -4.14,-51.72 1.22,-102.63 16.07,-152.71 24.51,-28.48 47.28,-57.94 68.32,-88.41z"/>
   <path class="fil3" d="M30730.8 3909.28c0,142 0,283.99 0,425.99 -25.16,309.8 -96.21,609.86 -213,900.21 -327.45,688.76 -872.64,1065.18 -1635.64,1129.27 -104.49,5.36 -208.98,5.36 -313.47,0 -289.67,-17.08 -560.3,-97.45 -811.79,-241.13 -388.94,-275.32 -607.32,-651.74 -655.06,-1129.27 -38.5,-410.83 4.34,-812.7 128.6,-1205.64 78.85,-213.06 183.34,-411.33 313.46,-594.78 103.13,-108.5 206.33,-217.01 309.45,-325.52 420.44,-308.86 892.01,-440.14 1414.61,-393.84 301.25,13.67 579.91,99.41 835.91,257.21 78.76,65.33 155.12,133.65 229.07,204.95 158.58,183.09 271.1,392.07 337.58,626.93 23.95,115.74 44.04,230.95 60.28,345.62zm-1888.83 -739.46c125.95,-1.34 251.9,0 377.77,4.02 150.22,43.11 274.8,124.82 373.74,245.15 37.54,75.01 74.99,150.03 112.53,225.05 22.58,82.17 41.31,165.23 56.26,249.16 34.56,368.85 -0.24,730.53 -104.49,1085.07 -40.19,80.38 -80.37,160.75 -120.56,241.13 -61.41,84.19 -124.34,167.25 -188.88,249.16 -159.55,127.96 -341.76,197.62 -546.56,208.98 -100.79,-2.73 -199.89,-17.47 -297.39,-44.21 -72.42,-41.54 -142.1,-87.09 -208.97,-136.64 -134.39,-161.53 -216.05,-347.74 -245.15,-558.6 -17.84,-291.47 -1.77,-580.82 48.23,-868.06 62.77,-224.68 161.95,-430.98 297.39,-618.89 119.43,-142.6 268.13,-236.37 446.08,-281.32z"/>
   <path class="fil4" d="M11247.75 2518.78c6.35,2.27 11.74,6.29 16.08,12.06 -18.57,3.99 -37.3,5.32 -56.26,4.02 13.42,-5.37 26.76,-10.72 40.18,-16.08z"/>
   <path class="fil5" d="M1466.04 2550.93c-313.46,0 -626.93,0 -940.39,0 0,32.15 0,64.3 0,96.45 -7.91,-33.23 -10.59,-68.06 -8.04,-104.49 317.52,-2.67 633.66,0.01 948.43,8.04z"/>
   <path class="fil6" d="M3097.67 2550.93c314.82,-10.7 630.96,-10.7 948.43,0 -0.99,4.88 -3.67,7.55 -8.04,8.04 -312.09,-8.03 -625.56,-10.71 -940.39,-8.04z"/>
   <path class="fil7" d="M5259.77 2550.93c170.11,-5.36 341.57,-8.04 514.41,-8.04 174.23,0 345.7,5.36 514.4,16.08 -342.35,-7.99 -685.29,-10.68 -1028.81,-8.04z"/>
   <path class="fil7" d="M8860.6 2550.93c-308.08,0 -616.24,0 -924.32,0 1.93,10.38 -0.81,18.41 -8.04,24.11 0,-10.71 0,-21.43 0,-32.15 312.18,-2.67 622.91,0.01 932.36,8.04z"/>
   <path class="fil7" d="M16351.6 2550.93c-838.55,0 -1677.19,0 -2515.75,0 1.93,10.38 -0.81,18.41 -8.04,24.11 0,-10.71 0,-21.43 0,-32.15 842.58,-2.68 1683.87,0.01 2523.79,8.04z"/>
   <path class="fil8" d="M1466.04 2550.93c19.76,52.57 37.17,106.15 52.25,160.75 172.7,776.52 342.83,1553.49 510.38,2330.89 5.36,21.44 10.72,21.44 16.08,0 78.58,-169.94 154.94,-341.42 229.07,-514.4 272.82,-660.72 547.44,-1319.8 823.85,-1977.24 314.83,-2.67 628.3,0.01 940.39,8.04 -496.16,1133.43 -993.15,2266.73 -1490.96,3399.89 -46.06,110.85 -98.3,218.02 -156.74,321.5 -328.62,5.24 -655.48,-0.12 -980.58,-16.08 -299.72,-1204.26 -594.43,-2409.89 -884.13,-3616.9 0,-32.15 0,-64.3 0,-96.45 313.46,0 626.93,0 940.39,0z"/>
   <path class="fil8" d="M5259.77 2550.93c343.52,-2.64 686.46,0.05 1028.81,8.04 25.69,65.03 45.78,132.01 60.28,200.94 214.48,911.5 431.5,1822.43 651.04,2732.77 60.19,256.79 117.79,513.99 172.81,771.6 -316.03,16.03 -634.85,21.39 -956.47,16.08 -48.06,-248.36 -104.32,-494.85 -168.79,-739.46 -385.8,-10.71 -771.6,-10.71 -1157.41,0 -103.15,249.09 -210.31,495.57 -321.5,739.46 -309.47,2.66 -617.58,-0.01 -924.32,-8.04 540.23,-1240.42 1078.75,-2480.88 1615.55,-3721.39zm385.8 1068.99c10.41,6.35 19.79,14.39 28.14,24.12 86.53,373.73 166.9,748.82 241.12,1125.25 4.66,29.77 3.32,59.23 -4.01,88.42 -252.18,3.71 -504.02,-0.31 -755.53,-12.06 13.59,-62.22 33.68,-122.5 60.27,-180.84 145.83,-347.83 289.17,-696.12 430.01,-1044.89z"/>
   <path class="fil8" d="M8860.6 2550.93c-2.01,85.81 -6.03,171.54 -12.06,257.2 -95.08,926.81 -187.51,1853.82 -277.29,2781 514.4,0 1028.8,0 1543.21,0 -4.1,201.63 -18.81,402.57 -44.21,602.81 -3.38,31.28 -10.05,60.75 -20.09,88.42 -827.87,0 -1655.74,0 -2483.61,0 0,-8.04 0,-16.08 0,-24.11 119.51,-1227.22 240.08,-2454.29 361.69,-3681.21 7.23,-5.7 9.97,-13.73 8.04,-24.11 308.08,0 616.24,0 924.32,0z"/>
   <path class="fil3" d="M18272.58 6280.36c-300.04,0 -600.16,0 -900.21,0 0,-66.98 0,-133.96 0,-200.94 81.5,-830.49 163.17,-1661.04 245.15,-2491.64 7.88,-108.34 22.58,-215.5 44.21,-321.51 -369.73,-9.67 -739.46,-17.71 -1109.19,-24.11 7.32,-223.79 28.78,-446.16 64.3,-667.12 18.73,-9.38 37.54,-18.75 56.27,-28.13 994,-5.36 1987.93,-5.36 2981.93,0 26.77,4.9 53.53,8.92 80.38,12.06 -1.45,220.52 -16.16,440.21 -44.21,659.08 -2.98,7.36 -6.99,14.06 -12.06,20.09 -367.07,4.02 -734.07,5.36 -1101.14,4.02 -96.21,1007.48 -193.95,2014.85 -293.37,3022.12 -2.25,7.36 -6.27,12.72 -12.06,16.08z"/>
   <path class="fil3" d="M20217.67 2542.89c241.13,-1.34 482.25,0 723.38,4.02 26.77,4.9 53.53,8.92 80.38,12.06 1.36,56.32 0,112.59 -4.02,168.79 -68.56,691.34 -138.25,1382.57 -208.98,2073.69 -5.39,144.67 -5.39,289.35 0,434.03 18.73,61.62 37.54,123.23 56.26,184.86 29.26,41.33 60.13,81.52 92.44,120.56 61.64,30.81 123.21,61.63 184.86,92.43 70.57,8.9 141.54,12.92 213,12.06 60.27,-1.34 120.56,-2.68 180.84,-4.02 64.3,-18.75 128.6,-37.51 192.9,-56.26 57.47,-44.11 112.45,-90.99 164.77,-140.66 41.07,-63.44 75.96,-130.42 104.49,-200.94 21.46,-91.09 42.84,-182.19 64.3,-273.28 85.44,-803.53 167.18,-1607.28 245.15,-2411.26 24.27,-2.45 48.38,-6.46 72.33,-12.06 251.82,-5.36 503.72,-5.36 755.53,0 29.5,4.4 59,8.42 88.42,12.06 -1.69,88.5 -5.71,176.91 -12.06,265.24 -72.82,728.69 -145.16,1457.42 -217.01,2186.21 -24.12,109.85 -48.23,219.69 -72.34,329.54 -90.51,260.12 -236.55,483.83 -438.05,671.14 -355.9,251.2 -752.39,365.06 -1189.56,341.6 -343.6,21.78 -665.11,-51.9 -964.5,-221.04 -48.55,-45.88 -99.43,-88.76 -152.72,-128.6 -103.36,-97.99 -179.72,-214.53 -229.07,-349.63 -29.18,-89.8 -53.29,-180.9 -72.34,-273.28 -5.38,-168.79 -5.38,-337.58 0,-506.37 75.56,-768.87 150.55,-1537.8 225.06,-2306.78 39.22,-10.08 78.12,-18.12 116.54,-24.11z"/>
   <path class="fil3" d="M23979.25 2542.89c525.09,-1.34 1050.26,0 1575.36,4.02 255.11,-0.43 498.89,50.48 731.42,152.71 86.64,59.88 163,130.87 229.07,213 93.95,180.28 123.37,370.51 88.41,570.67 -42.68,217.98 -143.15,404.18 -301.41,558.61 -83.59,59.42 -169.27,115.68 -257.2,168.79 -9.97,9.27 -18,19.99 -24.11,32.15 197.56,43.17 367.72,135.6 510.38,277.29 132.3,172.76 188.56,368.34 168.79,586.74 -37.05,418.64 -233.97,736.12 -590.76,952.46 -80.37,40.18 -160.75,80.37 -241.13,120.56 -130.85,31.52 -262.1,60.99 -393.84,88.41 -120.48,7.46 -241.04,12.82 -361.69,16.08 -497.52,6.68 -994.57,5.33 -1490.96,-4.02 -7.88,-22.03 -11.9,-44.81 -12.06,-68.32 120,-1206.64 236.55,-2413.62 349.63,-3620.92 1.93,-18.58 8.6,-34.65 20.1,-48.23zm843.94 675.16c182.21,-1.34 364.42,0 546.55,4.01 200.14,30.06 296.59,146.6 289.36,349.64 -6.75,64.65 -16.16,128.95 -28.13,192.9 -74.03,151.44 -195.96,238.51 -365.71,261.22 -168.79,4.02 -337.58,5.36 -506.37,4.02 4.1,-272.37 25.48,-542.97 64.3,-811.79zm-128.6 1430.68c203.67,-1.34 407.26,0 610.86,4.02 64.62,8.99 128.92,19.7 192.9,32.15 44.2,28.82 89.78,55.61 136.63,80.38 64.47,56.4 103.29,127.39 116.55,212.99 28.94,232.38 -50.08,415.91 -237.11,550.58 -96.45,39.3 -195.55,68.77 -297.39,88.41 -206.24,4.02 -412.57,5.36 -618.89,4.02 -1.37,-77.74 0,-155.44 4.02,-233.09 24.11,-222.38 48.22,-444.74 72.34,-667.12 1.6,-25.9 8.27,-50.01 20.09,-72.34z"/>
   <path class="fil9" d="M10918.21 2542.89c-8.6,7.51 -19.29,10.19 -32.15,8.04 1.93,10.38 -0.8,18.41 -8.03,24.11 0,-10.71 0,-21.43 0,-32.15 13.42,0 26.76,0 40.18,0z"/>
   <path class="fil10" d="M11810.38 2591.12c0.48,-4.37 3.14,-7.04 8.04,-8.04 215.97,122.67 422.21,259.31 618.89,409.91 -14.63,19.38 -30.7,20.73 -48.22,4.02 -192.34,-116.89 -381.22,-238.79 -566.65,-365.7 -1.61,-15.13 -5.63,-28.52 -12.06,-40.19z"/>
   <path class="fil11" d="M2028.67 5042.57c5.36,0 10.72,0 16.08,0 -5.36,21.44 -10.72,21.44 -16.08,0z"/>
   <path class="fil12" d="M15234.38 5130.99c-7.95,-1.39 -13.34,1.3 -16.07,8.03 -15.67,-6.06 -22.34,-16.78 -20.1,-32.15 13.27,7.23 25.32,15.27 36.17,24.12z"/>
   <path class="fil13" d="M15636.26 5573.05c12.46,2.58 17.77,10.62 16.08,24.11 -395.21,2.67 -789.05,0 -1181.53,-8.03 391.19,1.34 782.3,0 1173.49,-4.02 -4.5,-3.08 -7.16,-7.1 -8.04,-12.06z"/>
   <path class="fil14" d="M16038.14 5910.63c-5.39,10.71 -10.69,21.44 -16.08,32.15 -2.33,-14.37 0.41,-27.77 8.04,-40.19 4.9,1 7.56,3.68 8.04,8.04z"/>
   <path class="fil15" d="M1409.78 6264.28c325.1,15.96 651.96,21.32 980.58,16.08 -325.49,8.03 -652.35,10.7 -980.58,8.04 0,-8.04 0,-16.08 0,-24.12z"/>
   <path class="fil16" d="M3644.22 6272.32c306.74,8.03 614.85,10.7 924.32,8.04 -309.46,10.7 -620.25,10.7 -932.35,0 0.99,-4.88 3.67,-7.56 8.03,-8.04z"/>
   <path class="fil17" d="M7172.71 6264.28c7.27,5.7 9.95,13.74 8.04,24.12 -322.87,2.66 -644.37,-0.01 -964.51,-8.04 321.62,5.31 640.44,-0.05 956.47,-16.08z"/>
   <path class="fil15" d="M7566.55 6256.25c0,8.03 0,16.07 0,24.11 827.87,0 1655.74,0 2483.61,0 -829.24,8.03 -1659.76,10.71 -2491.64,8.04 -2.16,-12.86 0.52,-23.57 8.03,-32.15z"/>
   <path class="fil16" d="M10532.41 6216.06c0,21.43 0,42.86 0,64.3 822.48,0 1645.05,0 2467.53,0 -823.85,8.03 -1649.07,10.71 -2475.57,8.04 -2.49,-25.83 0.16,-49.94 8.04,-72.34z"/>
   <path class="fil16" d="M13482.2 6232.13c0,16.08 0,32.15 0,48.23 833.25,0 1666.42,0 2499.68,0 -834.54,8.03 -1670.45,10.71 -2507.72,8.04 -2.41,-20.57 0.24,-39.33 8.04,-56.27z"/>
   <path class="fil18" d="M17372.37 6079.42c0,66.98 0,133.96 0,200.94 300.05,0 600.17,0 900.21,0 -301.41,8.02 -604.1,10.7 -908.25,8.04 -2.65,-71.13 0.09,-140.79 8.04,-208.98z"/>
   <path class="fil19" d="M16657.03 6384.85c12.3,-0.59 20.34,4.77 24.11,16.07 -12.3,0.59 -20.33,-4.77 -24.11,-16.07z"/>
   <path class="fil1" d="M30296.77 6553.63c37.94,0.05 75.39,4.07 112.52,12.06 42.52,42.48 78.69,89.36 108.51,140.66 37.38,112.98 11.9,208.1 -76.36,285.33 -117.51,15.44 -196.51,-34.13 -237.1,-148.69 -7,-48.17 -9.65,-96.4 -8.04,-144.68 13.42,-29.47 26.76,-58.94 40.19,-88.41 22.99,-16.09 43.08,-34.85 60.28,-56.27z"/>
   <path class="fil1" d="M29983.3 6714.39c13.43,0 26.77,0 40.19,0 11.09,101.54 39.23,197.99 84.4,289.35 9.96,31.85 0.56,54.63 -28.13,68.32 -1450.3,604.35 -2953.33,1011.6 -4509.08,1221.7 -361.12,36.82 -722.82,66.31 -1085.07,88.42 -2039.93,100.31 -3990.4,-266.69 -5851.34,-1101.15 -238.23,-113.77 -474.05,-231.66 -707.3,-353.65 -10.69,-5.36 -10.69,-10.71 0,-16.07 16.07,-5.37 32.15,-5.37 48.22,0 1246.63,581.59 2551.36,967.39 3914.29,1157.4 927.7,108.99 1857.4,130.45 2789.04,64.31 622.82,-55.78 1238.98,-152.2 1848.63,-289.36 907.44,-216.13 1796.96,-489.4 2668.47,-819.83 264.28,-101.01 526.86,-204.15 787.68,-309.44z"/>
   <path class="fil20" d="M11882.72 6883.18c66.07,7.66 131.74,18.38 196.92,32.14 16.08,-10.71 32.15,-21.43 48.23,-32.14 17.2,5.03 34.56,9.05 52.24,12.05 9.32,8.11 14.63,18.82 16.08,32.15 -4.02,28.13 -8.04,56.26 -12.06,84.4 -26.44,19.25 -54.57,35.33 -84.39,48.22 -40.59,-9.48 -80.78,-20.19 -120.57,-32.15 -42.84,12.07 -85.76,21.45 -128.6,28.13 -23.87,-7.79 -37.29,-23.86 -40.19,-48.22 3.62,-25.52 7.64,-50.98 12.06,-76.36 21.62,-14.98 41.71,-31.06 60.28,-48.22z"/>
   <path class="fil21" d="M3483.47 7156.45c-118.12,-2.14 -236,0.54 -353.65,8.04 6.13,-6.17 14.17,-10.19 24.11,-12.06 111.24,-6.64 221.08,-5.31 329.54,4.02z"/>
   <path class="fil22" d="M1602.68 7341.31c0,-13.39 0,-26.79 0,-40.18 -13.39,0 -26.78,0 -40.18,0 -64.59,0.78 -128.89,-3.23 -192.91,-12.06 -12.24,-23.3 -22.96,-47.41 -32.15,-72.34 15.65,-23.72 34.41,-45.15 56.27,-64.3 198.26,-5.36 396.51,-5.36 594.78,0 42.8,13.27 64.23,42.74 64.3,88.42 -8.68,17.32 -19.4,33.39 -32.15,48.22 -77.66,7.94 -155.35,14.65 -233.09,20.1 -0.17,257.55 -6.87,514.75 -20.1,771.6 -14.02,11.74 -28.76,22.43 -44.2,32.15 -31.86,-7.55 -64.02,-14.23 -96.45,-20.09 -4.02,-4.02 -8.04,-8.04 -12.06,-12.06 -7.56,-246.43 -11.57,-492.92 -12.06,-739.46z"/>
   <path class="fil23" d="M2197.46 7148.41c34.93,-1.33 69.76,0.01 104.49,4.02 9.38,9.38 18.75,18.75 28.13,28.13 5.86,219.69 11.21,439.38 16.08,659.08 6.66,29.43 18.72,56.23 36.17,80.38 44.4,27.16 92.62,37.88 144.67,32.15 100.43,5.33 166.07,-40.22 196.92,-136.64 4.26,-214.65 12.29,-428.99 24.12,-643 19.25,-20.2 43.36,-28.24 72.33,-24.12 34.09,-6.16 60.89,4.56 80.38,32.15 5.36,227.73 5.36,455.47 0,683.2 -47.13,132.86 -139.57,214.6 -277.3,245.14 -109.8,17.04 -214.28,0.97 -313.46,-48.22 -57.09,-51.6 -101.3,-111.89 -132.62,-180.85 -5.36,-235.76 -5.36,-471.54 0,-707.3 8.4,-7.02 15.09,-15.06 20.09,-24.12z"/>
   <path class="fil24" d="M3483.47 7156.45c147.85,1.89 230.91,75.56 249.17,221.03 0.55,98.01 -34.28,181.07 -104.49,249.17 30.81,25.45 61.62,50.9 92.43,76.36 47.45,122.55 30.04,233.74 -52.25,333.55 -42.12,19.78 -84.99,37.14 -128.6,52.25 -131.3,1.36 -262.58,0 -393.84,-4.02 -17.41,-17.44 -34.82,-34.83 -52.24,-52.24 -4.02,-270.59 -5.36,-541.19 -4.02,-811.8 10.34,-21.03 23.74,-39.78 40.19,-56.26 117.65,-7.5 235.53,-10.18 353.65,-8.04zm-233.09 136.64c72.39,-1.33 144.73,0 217.02,4.02 31.5,12.38 59.63,29.79 84.39,52.24 5.36,48.23 5.36,96.45 0,144.68 -22.77,17.41 -45.55,34.82 -68.32,52.24 -80.32,4.02 -160.7,5.36 -241.13,4.02 -2.48,-86.39 0.2,-172.12 8.04,-257.2zm0 401.88c77.74,-1.34 155.44,0 233.09,4.02 31.5,12.37 59.63,29.79 84.4,52.24 5.36,42.87 5.36,85.74 0,128.6 -22.77,22.77 -45.55,45.55 -68.32,68.32 -85.69,4.02 -171.43,5.36 -257.21,4.02 -2.48,-86.39 0.2,-172.12 8.04,-257.2z"/>
   <path class="fil25" d="M4142.55 7148.41c85.78,-1.34 171.52,0 257.2,4.02 34.83,13.4 69.67,26.79 104.49,40.19 32.56,36.93 66.05,73.1 100.47,108.51 74.14,149.54 98.25,307.62 72.34,474.21 -19.85,56.89 -41.29,113.16 -64.3,168.79 -107.48,136 -248.14,190.89 -421.97,164.77 -91.16,-15.43 -167.52,-56.95 -229.07,-124.58 -33.92,-62.46 -63.39,-126.76 -88.42,-192.9 -5.36,-107.17 -5.36,-214.34 0,-321.51 15.42,-87.94 51.59,-165.64 108.51,-233.08 50.19,-37.07 103.77,-66.54 160.75,-88.42zm80.38 128.6c59.84,-1.61 116.1,10.44 168.78,36.17 23.06,25.76 48.51,48.52 76.36,68.32 17.65,39.55 33.73,79.74 48.23,120.57 7.46,86.32 4.78,172.06 -8.04,257.2 -17.65,39.54 -33.73,79.73 -48.22,120.56 -68.96,81.03 -156.03,109.16 -261.23,84.4 -90.41,-42.56 -145.34,-113.56 -164.76,-213 -15.99,-124.36 -2.6,-244.92 40.18,-361.69 44.62,-46.21 94.19,-83.72 148.7,-112.53z"/>
   <path class="fil23" d="M5460.71 7220.75c4.03,37.4 -1.33,72.23 -16.07,104.49 -20.61,3.85 -40.71,9.2 -60.28,16.07 -97.17,-41.39 -197.64,-53.45 -301.41,-36.16 -23.57,2.18 -43.66,11.55 -60.29,28.13 -24.13,77.58 -1.36,135.17 68.32,172.81 83.05,24.11 166.11,48.22 249.17,72.33 160.75,98.33 199.6,233.64 116.54,405.9 -18.19,27.21 -40.96,49.98 -68.32,68.32 -105.95,56.91 -218.47,75.71 -337.57,56.26 -65.17,-18.97 -129.47,-40.43 -192.9,-64.3 -45.58,-29.96 -60.31,-71.49 -44.21,-124.58 20.31,-12.84 41.74,-23.55 64.3,-32.15 49.57,20.09 99.12,40.19 148.69,60.28 69.67,5.36 139.32,5.36 208.98,0 33.91,-8.13 56.68,-28.23 68.32,-60.28 5.36,-40.19 5.36,-80.38 0,-120.57 -20.09,-14.73 -40.19,-29.47 -60.28,-44.2 -83.06,-24.11 -166.12,-48.23 -249.17,-72.34 -72.48,-27.37 -122.05,-76.93 -148.69,-148.69 -5.36,-69.67 -5.36,-139.32 0,-208.98 19.1,-28.84 39.2,-56.97 60.28,-84.39 37.51,-18.76 75.01,-37.52 112.52,-56.27 96.46,-5.36 192.91,-5.36 289.36,0 40.19,13.4 80.37,26.79 120.56,40.19 14.66,5.3 25.38,14.68 32.15,28.13z"/>
   <path class="fil24" d="M6304.66 7301.13c-24.12,0 -48.23,0 -72.34,0 0,10.71 0,21.43 0,32.15 -1.02,72.41 -3.69,144.75 -8.04,217.01 128.63,-1.34 257.23,0 385.8,4.02 47.58,38.44 52.94,82.65 16.08,132.62 -112.17,12.42 -224.7,17.78 -337.58,16.08 -18.75,0 -37.51,0 -56.26,0 0,10.71 0,21.43 0,32.15 -1.02,72.41 -3.69,144.74 -8.04,217.01 139.35,-1.34 278.66,0 417.95,4.02 47.54,39.86 52.89,85.41 16.08,136.64 -179.51,5.38 -359.02,5.38 -538.52,0 -12.39,-11.01 -23.11,-23.07 -32.15,-36.17 0.31,-10.1 -3.7,-18.14 -12.05,-24.11 -4.02,-270.59 -5.37,-541.19 -4.02,-811.8 10.66,-41.17 37.46,-63.94 80.37,-68.32 150.04,-5.36 300.07,-5.36 450.11,0 19.42,13.07 39.52,25.13 60.28,36.17 5.58,36.39 -1.12,69.88 -20.1,100.47 -112.36,8.75 -224.89,12.77 -337.57,12.06z"/>
   <path class="fil22" d="M7478.14 7148.41c91.13,-1.34 182.23,0 273.28,4.02 99.69,29.97 176.02,90.25 229.07,180.85 24.11,103.16 -14.79,143.35 -116.55,120.56 -35.8,-43.48 -70.63,-87.68 -104.49,-132.62 -81.88,-33.49 -164.94,-36.17 -249.16,-8.04 -25.16,17.11 -47.93,37.2 -68.32,60.28 -13.4,40.19 -26.79,80.38 -40.19,120.57 -5.36,91.09 -5.36,182.19 0,273.27 12.81,46.53 30.22,90.73 52.25,132.62 25.86,22.33 55.33,38.4 88.41,48.23 53.59,5.36 107.16,5.36 160.75,0 74.94,-42.52 133.89,-101.46 176.83,-176.83 32.15,-5.36 64.3,-5.36 96.45,0 6.67,6.7 13.42,13.4 20.09,20.1 -1.53,40.22 -6.91,80.41 -16.07,120.56 -59.81,105.2 -149.57,170.8 -269.26,196.92 -119.1,19.45 -231.63,0.65 -337.58,-56.26 -19.35,-18.37 -39.44,-35.78 -60.28,-52.25 -34.35,-66 -66.5,-132.98 -96.45,-200.93 -24.12,-150.03 -13.4,-297.39 32.15,-442.07 29.56,-48.4 63.05,-93.95 100.47,-136.64 39.45,-31.68 82.31,-55.8 128.6,-72.34z"/>
   <path class="fil26" d="M8394.42 7148.41c88.49,-1.34 176.91,0 265.24,4.02 37.54,13.4 74.99,26.79 112.53,40.19 38.82,44.21 77.72,88.41 116.54,132.62 17.68,50.32 33.76,101.23 48.23,152.71 5.38,101.82 5.38,203.62 0,305.43 -21.38,99.37 -68.24,183.76 -140.66,253.18 -156.41,92.28 -317.16,100.31 -482.26,24.12 -33.51,-28.13 -66.95,-56.27 -100.47,-84.4 -29.01,-60.68 -55.78,-122.31 -80.37,-184.86 -5.39,-107.17 -5.39,-214.34 0,-321.51 18.73,-53.58 37.54,-107.16 56.26,-160.74 38.82,-38.85 77.73,-77.71 116.55,-116.55 31.34,-12.58 60.84,-27.31 88.41,-44.21zm96.45 128.6c48.79,2.75 97.02,9.45 144.68,20.1 35.92,27.85 69.36,58.66 100.47,92.43 58.75,152.83 58.75,305.54 0,458.14 -62.13,105.28 -154.57,144.13 -277.3,116.55 -88.89,-47.63 -143.79,-121.31 -164.77,-221.04 -5.38,-80.37 -5.38,-160.75 0,-241.12 18.73,-42.87 37.54,-85.74 56.26,-128.61 39.87,-44.17 86.81,-76.32 140.66,-96.45z"/>
   <path class="fil27" d="M9688.47 8096.84c-3.78,-11.33 -11.82,-16.63 -24.12,-16.07 -137.92,-179.45 -263.87,-367 -377.76,-562.63 -0.48,-4.36 -3.14,-7.04 -8.04,-8.03 -8.04,74.82 -10.69,149.84 -8.04,225.05 3.14,112.88 -0.88,225.41 -12.05,337.57 -13.5,14.87 -28.29,28.29 -44.21,40.19 -31.83,-7.55 -63.98,-14.23 -96.45,-20.09 -4.02,-4.02 -8.04,-8.04 -12.05,-12.06 -5.39,-300.07 -5.39,-600.14 0,-900.21 19.53,-27.59 46.29,-38.31 80.37,-32.15 28.94,-4.12 53.05,3.92 72.34,24.12 24.11,29.47 48.22,58.93 72.34,88.41 100.47,163.49 204.95,324.24 313.46,482.25 5.63,-187.53 11.01,-375.08 16.08,-562.63 9.4,-9.38 18.72,-18.75 28.13,-28.13 34.8,-5.36 69.68,-5.36 104.48,0 9.41,9.38 18.73,18.75 28.14,28.13 5.38,294.72 5.38,589.42 0,884.14 -16.24,17.52 -33.6,33.59 -52.25,48.22 -26.44,-7.07 -53.2,-12.46 -80.37,-16.08z"/>
   <path class="fil0" d="M10580.64 7285.05c-142.03,0 -283.97,0 -425.99,0 -2.66,89.85 0.08,178.27 8.03,265.24 128.6,-1.34 257.2,0 385.81,4.02 31.1,29.42 40.42,65.59 28.13,108.51 -8.36,9.72 -17.76,17.76 -28.13,24.11 -131.26,0 -262.59,0 -393.84,0 -2.66,89.85 0.08,178.27 8.03,265.24 136.64,-1.34 273.28,0 409.92,4.02 31.99,11.88 45.41,34.66 40.19,68.32 5.7,30.3 -4.99,51.68 -32.15,64.3 -176.83,1.36 -353.66,0 -530.48,-4.02 -12.06,-12.06 -24.11,-24.11 -36.17,-36.17 -4.02,-286.66 -5.39,-573.33 -4.02,-860.02 15.03,-22.26 36.41,-34.32 64.3,-36.17 155.37,-5.36 310.81,-5.36 466.18,0 67.35,27.54 80.78,71.75 40.19,132.62z"/>
   <path class="fil28" d="M11087 7453.84c34.81,-18.75 61.65,-45.55 80.38,-80.38 49.11,-74.63 100.07,-148.31 152.71,-221.03 44.85,-6.48 89.06,-5.13 132.62,4.02 2.17,43.63 -3.13,86.49 -16.07,128.6 -66.23,86.99 -130.53,175.4 -192.91,265.24 -10.2,23.84 -19.53,47.95 -28.13,72.34 93,134.94 184.07,271.58 273.28,409.92 -9.72,20.73 -20.41,40.83 -32.15,60.28 -25.96,5.7 -51.44,12.37 -76.35,20.09 -34.81,-29.5 -69.69,-58.91 -104.49,-88.41 -52.33,-77.93 -104.57,-155.63 -156.74,-233.09 1.29,-13.66 -0.08,-27.06 -4.02,-40.19 -5.78,4.37 -9.8,9.74 -12.05,16.07 -21.14,25.17 -43.89,49.28 -68.32,72.34 -57.15,86.63 -117.43,171.03 -180.85,253.19 -11.81,5.14 -22.5,11.81 -32.15,20.09 -31.51,-8.84 -63.65,-14.15 -96.45,-16.08 -6.75,-29.49 -10.77,-58.97 -12.05,-88.41 81.17,-127.47 168.22,-250.71 261.22,-369.72 -5.87,-30.57 -15.19,-60.04 -28.13,-88.42 -78.61,-100.06 -150.95,-204.55 -217.02,-313.46 0.08,-27.31 5.47,-54.1 16.08,-80.38 38.17,-9.12 77,-10.46 116.54,-4.02 83.99,94.56 158.98,195.02 225.05,301.41z"/>
   <path class="fil23" d="M11866.64 7148.41c88.5,-1.34 176.91,0 265.25,4.02 42.83,18.75 85.76,37.51 128.6,56.27 30.78,36.16 61.65,72.33 92.43,108.5 74.27,190.87 79.65,383.77 16.07,578.71 -97.65,167.5 -243.61,238.55 -438.04,212.99 -168.79,-34.8 -274.57,-135.28 -317.49,-301.41 -5.38,-123.24 -5.38,-246.48 0,-369.72 34.64,-142.46 119.04,-238.91 253.18,-289.36zm345.62 707.31c-16.07,10.71 -29.5,24.11 -40.19,40.19 -21.46,16.07 -40.18,34.82 -56.26,56.26 -93.4,31.98 -179.08,19.92 -257.2,-36.17 -28.29,-28.59 -53.77,-59.4 -76.36,-92.43 -37.29,-131.21 -37.29,-262.49 0,-393.84 21.22,-33.27 43.97,-65.42 68.32,-96.45 188.56,-100.12 318.53,-49.21 389.82,152.71 4.26,53.57 8.28,107.15 12.06,160.75 -8.28,70.64 -21.7,140.3 -40.19,208.98z"/>
   <path class="fil29" d="M12807.04 7301.13c-24.11,0 -48.22,0 -72.34,0 0,10.71 0,21.43 0,32.15 -1.04,72.41 -3.7,144.75 -8.03,217.01 128.6,-1.34 257.2,0 385.8,4.02 47.66,39.39 52.97,83.6 16.07,132.62 -136.64,0 -273.27,0 -409.91,0 -2.65,89.85 0.08,178.27 8.04,265.24 139.36,-1.34 278.66,0 417.95,4.02 47.5,39.86 52.89,85.41 16.07,136.64 -179.48,5.38 -359.04,5.38 -538.51,0 -12.38,-11.01 -23.07,-23.07 -32.16,-36.17 0.33,-10.1 -3.69,-18.14 -12.05,-24.11 -4.02,-275.95 -5.39,-551.9 -4.02,-827.87 7.88,-33.29 29.34,-50.71 64.3,-52.25 155.37,-5.36 310.81,-5.36 466.18,0 19.45,13.07 39.54,25.13 60.28,36.17 5.55,36.39 -1.12,69.88 -20.09,100.47 -112.37,8.75 -224.89,12.77 -337.58,12.06z"/>
   <path class="fil23" d="M13932.3 7662.82c-0.57,12.27 4.74,20.31 16.07,24.11 8.76,14.94 15.52,31.02 20.1,48.23 39.22,201.76 -39.79,326.32 -237.11,373.74 -152.87,22.19 -293.53,-8.6 -421.97,-92.43 -38.9,-111.12 -2.73,-147.29 108.5,-108.51 91.87,42.37 188.32,55.77 289.36,40.19 25.48,-14.73 50.87,-29.47 76.35,-44.21 9.33,-37.17 12.06,-74.68 8.04,-112.52 -20.09,-20.1 -40.19,-40.19 -60.28,-60.28 -84.88,-29.27 -170.64,-56.06 -257.2,-80.38 -43.89,-30.44 -85.36,-63.93 -124.58,-100.47 -8.04,-21.44 -16.08,-42.86 -24.12,-64.3 -5.38,-64.3 -5.38,-128.6 0,-192.9 24.36,-50.14 60.52,-88.98 108.51,-116.55 19.77,-12.55 41.15,-20.59 64.3,-24.11 96.45,-5.36 192.9,-5.36 289.35,0 40.19,13.4 80.38,26.79 120.57,40.19 54.65,45.37 60.04,94.93 16.07,148.69 -105.29,-29.6 -212.43,-44.34 -321.5,-44.2 -30.3,6.98 -59.8,16.35 -88.42,28.13 -7.23,30.36 -12.53,61.17 -16.07,92.43 0.72,27.06 8.76,51.17 24.11,72.34 110.84,31.59 220.72,66.41 329.54,104.49 28.14,21.45 54.9,44.22 80.38,68.32z"/>
   <path class="fil30" d="M10009.97 7188.6c-1.37,286.69 0,573.36 4.02,860.02 12.06,12.06 24.11,24.11 36.17,36.17 176.82,4.02 353.65,5.38 530.48,4.02 -178.12,9.32 -357.67,10.69 -538.52,4.02 -12.05,-12.06 -24.11,-24.12 -36.17,-36.17 -6.67,-290.71 -5.3,-580.07 4.02,-868.06z"/>
   <path class="fil31" d="M12573.95 7204.68c-1.37,275.97 0,551.92 4.02,827.87 8.36,5.97 12.38,14.01 12.05,24.11 -7.71,-3.62 -14.38,-9 -20.09,-16.08 -6.67,-279.99 -5.3,-558.62 4.02,-835.9z"/>
   <path class="fil32" d="M3089.63 7220.75c-1.34,270.61 0,541.21 4.02,811.8 17.42,17.41 34.83,34.8 52.24,52.24 131.26,4.02 262.54,5.38 393.84,4.02 -132.57,9.32 -266.54,10.69 -401.87,4.02 -17.42,-17.44 -34.83,-34.81 -52.25,-52.25 -6.68,-274.63 -5.33,-547.91 4.02,-819.83z"/>
   <path class="fil33" d="M5460.71 7220.75c7.92,33.23 10.59,68.06 8.04,104.49 -8.04,0 -16.08,0 -24.11,0 14.74,-32.26 20.1,-67.09 16.07,-104.49z"/>
   <path class="fil34" d="M6071.57 7220.75c-1.35,270.61 0,541.21 4.02,811.8 8.35,5.97 12.36,14.01 12.05,24.11 -7.7,-3.62 -14.4,-9 -20.09,-16.08 -6.68,-274.63 -5.34,-547.91 4.02,-819.83z"/>
   <path class="fil35" d="M10580.64 7285.05c-137.93,8.02 -277.22,10.69 -417.96,8.04 0,85.74 0,171.47 0,257.2 -7.95,-86.97 -10.69,-175.39 -8.03,-265.24 142.02,0 283.96,0 425.99,0z"/>
   <path class="fil36" d="M6304.66 7301.13c-19.68,7.82 -41.12,10.49 -64.31,8.04 1.91,10.37 -0.77,18.41 -8.03,24.11 0,-10.72 0,-21.44 0,-32.15 24.11,0 48.22,0 72.34,0z"/>
   <path class="fil37" d="M12807.04 7301.13c-19.69,7.82 -41.07,10.49 -64.3,8.04 1.93,10.37 -0.8,18.41 -8.04,24.11 0,-10.72 0,-21.44 0,-32.15 24.12,0 48.23,0 72.34,0z"/>
   <path class="fil38" d="M1562.5 7301.13c13.4,0 26.79,0 40.18,0 0,13.39 0,26.79 0,40.18 -7.5,-8.58 -10.19,-19.29 -8.04,-32.14 -12.85,2.15 -23.56,-0.54 -32.14,-8.04z"/>
   <path class="fil39" d="M11167.38 7373.46c-18.73,34.83 -45.57,61.63 -80.38,80.38 24.12,-29.47 50.88,-56.26 80.38,-80.38z"/>
   <path class="fil40" d="M9286.59 7518.14c-5.39,72.34 -10.69,144.68 -16.08,217.02 -2.65,-75.21 0,-150.23 8.04,-225.05 4.9,0.99 7.56,3.67 8.04,8.03z"/>
   <path class="fil41" d="M13932.3 7662.82c11.33,3.8 16.63,11.84 16.07,24.11 -11.33,-3.8 -16.64,-11.84 -16.07,-24.11z"/>
   <path class="fil42" d="M10548.49 7686.93c-127.16,8.01 -255.76,10.69 -385.81,8.04 0,85.73 0,171.46 0,257.2 -7.95,-86.97 -10.69,-175.39 -8.03,-265.24 131.25,0 262.58,0 393.84,0z"/>
   <path class="fil43" d="M13128.54 7686.93c-132.54,8.01 -266.52,10.69 -401.87,8.04 0,85.73 0,171.46 0,257.2 -7.96,-86.97 -10.69,-175.39 -8.04,-265.24 136.64,0 273.27,0 409.91,0z"/>
   <path class="fil44" d="M6288.58 7703.01c-14.19,7.72 -30.26,10.4 -48.23,8.03 1.91,10.38 -0.77,18.42 -8.03,24.12 0,-10.72 0,-21.44 0,-32.15 18.75,0 37.51,0 56.26,0z"/>
   <path class="fil45" d="M11119.15 7791.42c-5.38,-8.04 -10.69,-16.08 -16.07,-24.12 2.25,-6.33 6.27,-11.7 12.05,-16.07 3.94,13.13 5.31,26.53 4.02,40.19z"/>
   <path class="fil46" d="M12212.26 7855.72c-5.38,21.44 -18.73,34.83 -40.19,40.19 10.69,-16.08 24.12,-29.48 40.19,-40.19z"/>
   <path class="fil46" d="M12172.07 7895.91c-10.69,26.79 -29.49,45.54 -56.26,56.26 16.08,-21.44 34.8,-40.19 56.26,-56.26z"/>
   <path class="fil47" d="M9664.35 8080.77c12.3,-0.56 20.34,4.74 24.12,16.07 -12.3,0.57 -20.34,-4.74 -24.12,-16.07z"/>
  </g>
 </g>
</svg>
