<?xml version="1.0" encoding="UTF-8"?>
<!DOCTYPE svg PUBLIC "-//W3C//DTD SVG 1.1//EN" "http://www.w3.org/Graphics/SVG/1.1/DTD/svg11.dtd">
<!-- Creator: CorelDRAW -->
<svg xmlns="http://www.w3.org/2000/svg" xml:space="preserve" width="56.5708mm" height="15.7766mm" version="1.1" style="shape-rendering:geometricPrecision; text-rendering:geometricPrecision; image-rendering:optimizeQuality; fill-rule:evenodd; clip-rule:evenodd"
viewBox="0 0 5657.08 1577.66"
 xmlns:xlink="http://www.w3.org/1999/xlink"
 xmlns:xodm="http://www.corel.com/coreldraw/odm/2003">
 <defs>
  <style type="text/css">
   <![CDATA[
    .fil0 {fill:#FEFEFE}
    .fil3 {fill:#FEFEFE;fill-opacity:0.658824}
    .fil2 {fill:#FEFEFE;fill-opacity:0.752941}
    .fil1 {fill:#FEFEFE;fill-opacity:0.878431}
   ]]>
  </style>
 </defs>
 <g id="Camada_x0020_1">
  <metadata id="CorelCorpID_0Corel-Layer"/>
  <g id="_1450652486896">
   <g id="Logo_CDR.cdr">
    <path class="fil0" d="M2537.37 479.65c1.34,-1.04 1.84,-2.52 1.48,-4.43 154.39,0 308.79,0 463.17,0 -1.94,42.07 -5.64,83.99 -11.1,125.78 -0.55,1.35 -1.29,2.59 -2.22,3.7 -97.66,0.74 -195.33,0.98 -292.99,0.74 -0.8,40.6 -3.76,81.04 -8.88,121.33 88.3,-0.49 176.6,0 264.88,1.48 1.18,2.14 2.17,4.36 2.96,6.66 -3.5,40.25 -7.45,80.45 -11.84,120.6 -90.24,1.82 -180.5,2.81 -270.8,2.96 -4.27,58.82 -9.69,117.52 -16.28,176.1 72.26,1.47 144.77,1.97 217.53,1.47 0.31,-2.48 -0.67,-3.96 -2.96,-4.43 -21.2,-24.41 -44.14,-47.1 -68.81,-68.07 -3.08,-3.8 -5.78,-7.74 -8.14,-11.84 0.51,-1.24 1.5,-1.74 2.96,-1.48 34.42,24.62 69.45,48.55 105.07,71.77 13.12,8.18 27.42,12.37 42.91,12.58 0.99,5.92 1.97,11.83 2.96,17.75 162.99,96.3 332.17,180.89 507.56,253.78 407.38,162.19 827.14,205.6 1259.27,130.22 184.41,-34.01 364.94,-82.36 541.6,-145.02 99.45,-34.95 198.11,-71.95 295.95,-110.98 32.23,-4.23 59.12,5.88 80.65,30.34 16.69,30.66 16.69,61.24 0,91.74 -7.58,6.15 -14.73,12.81 -21.46,19.98 -355.59,155.73 -727.51,242.55 -1115.74,260.44 -293.96,11.07 -581.52,-26.43 -862.7,-112.46 -130.86,-44.22 -257.13,-98.97 -378.82,-164.26 -45.13,-26.76 -90.02,-53.88 -134.66,-81.39 -19.1,-13.23 -37.85,-26.79 -56.23,-40.69 -0.7,-2.08 -2.18,-3.07 -4.44,-2.96 -39.29,-27.45 -77.26,-56.55 -113.94,-87.3 -0.09,-0.81 -0.58,-1.3 -1.48,-1.48 -1.41,2.28 -1.91,4.75 -1.48,7.4 -0.71,20.99 -3.18,41.71 -7.4,62.15 -153.41,0 -306.8,0 -460.2,0 0,-2.96 0,-5.92 0,-8.88 2.05,-44.47 5.26,-88.86 9.61,-133.18 9.03,-85.29 17.66,-170.63 25.9,-256 -0.46,-4.49 -1.2,-8.93 -2.22,-13.32 -3.17,-3.7 -6.87,-6.91 -11.1,-9.62 -79.67,-50.93 -159.07,-102.22 -238.24,-153.89 -31.45,-19.55 -63.26,-38.54 -95.45,-56.97 -10.93,115.9 -21.79,231.82 -32.55,347.74 -6.36,52.22 -12.03,104.51 -17.02,156.86 95.7,0 191.38,0 287.08,0 -3.33,42.8 -8.26,85.23 -14.8,127.26 -151.43,0 -302.87,0 -454.29,0 0,-3.95 0,-7.9 0,-11.84 -0.01,-16.31 0.73,-32.59 2.22,-48.83 19.53,-207.28 40.01,-414.45 61.41,-621.51 1.33,-1.04 1.84,-2.52 1.48,-4.43 2.37,0.39 4.34,-0.1 5.92,-1.48 17.74,-1.05 35.5,-1.54 53.27,-1.48 3.49,0.24 6.94,-0.01 10.36,-0.74 -0.8,-1.06 -1.79,-1.81 -2.96,-2.22 -92.37,-52.11 -186.57,-101.19 -282.63,-147.24 -73,-31.56 -146.99,-60.66 -221.97,-87.3 -272.79,-88.58 -551.48,-114.23 -836.06,-76.95 -118.21,15.45 -235.61,35.67 -352.19,60.67 -94.94,22.75 -189.64,46.42 -284.11,71.03 -32.01,3.35 -58.89,-6.77 -80.65,-30.34 -15.72,-29.5 -16.71,-59.59 -2.96,-90.26 8.27,-11.24 18.38,-20.36 30.34,-27.38 170.57,-45.36 343.21,-80.88 517.91,-106.54 78.63,-10.92 157.55,-18.81 236.77,-23.68 324.26,-21.1 634.02,35.63 929.29,170.17 41.74,20.63 83.66,40.85 125.78,60.67 146.51,78.65 287.59,165.46 423.21,260.44 84.94,61.26 169.03,123.65 252.3,187.19 5.78,-70.14 12.44,-140.18 19.97,-210.13z"/>
    <path class="fil0" d="M813.45 50.52c300.53,-15.86 588.59,36.18 864.18,156.12 168.09,73.17 326.91,161.46 476.49,264.88 -4.36,1.66 -8.79,2.15 -13.32,1.48 -38.45,-19.72 -75.94,-40.93 -112.46,-63.63 -109.24,-61.52 -221.7,-116.77 -337.39,-165.74 -92.01,-35.93 -185.73,-66.51 -281.15,-91.74 -178.61,-41.97 -359.64,-58.24 -543.08,-48.83 -127.69,8.13 -254.45,23.91 -380.3,47.35 -122.52,24.53 -244.35,51.9 -365.5,82.12 -0.71,-19.1 -4.9,-37.35 -12.57,-54.75 -1.14,-3.84 -0.9,-7.54 0.74,-11.09 115.24,-27.39 231.16,-52.06 347.74,-73.99 118.36,-19.97 237.23,-34.03 356.62,-42.18z"/>
    <path class="fil0" d="M43.97 173.34c23.2,-2.05 38.25,8.31 45.14,31.08 3.56,16.47 0.36,31.27 -9.62,44.39 -9.09,6.47 -18.96,7.7 -29.6,3.7 -10.22,-9.72 -17.37,-21.31 -21.45,-34.77 -0.76,-9.53 0.22,-18.9 2.96,-28.12 4.51,-5.24 8.7,-10.67 12.57,-16.28z"/>
    <path class="fil0" d="M5649.31 725.3c0,26.14 0,52.28 0,78.42 -4.63,57.04 -17.71,112.28 -39.21,165.74 -60.29,126.8 -160.66,196.1 -301.13,207.9 -19.24,0.99 -38.48,0.99 -57.71,0 -53.33,-3.14 -103.16,-17.94 -149.46,-44.39 -71.6,-50.69 -111.81,-119.99 -120.6,-207.91 -7.09,-75.63 0.8,-149.62 23.68,-221.96 14.51,-39.23 33.75,-75.73 57.71,-109.5 18.98,-19.98 37.98,-39.96 56.97,-59.93 77.4,-56.87 164.22,-81.04 260.44,-72.51 55.46,2.51 106.76,18.3 153.89,47.35 14.5,12.03 28.56,24.61 42.18,37.73 29.19,33.71 49.91,72.19 62.15,115.43 4.41,21.3 8.1,42.51 11.09,63.63zm-347.74 -136.14c23.19,-0.25 46.38,0 69.55,0.74 27.66,7.93 50.59,22.98 68.81,45.13 6.91,13.81 13.8,27.62 20.71,41.43 4.16,15.13 7.61,30.42 10.36,45.88 6.36,67.9 -0.04,134.49 -19.24,199.76 -7.39,14.8 -14.79,29.6 -22.19,44.4 -11.31,15.5 -22.89,30.79 -34.77,45.87 -29.38,23.56 -62.92,36.38 -100.63,38.47 -18.56,-0.5 -36.8,-3.21 -54.75,-8.14 -13.33,-7.64 -26.16,-16.03 -38.47,-25.15 -24.75,-29.74 -39.78,-64.02 -45.14,-102.84 -3.28,-53.67 -0.32,-106.94 8.88,-159.82 11.56,-41.36 29.82,-79.34 54.75,-113.94 21.99,-26.25 49.37,-43.52 82.13,-51.79z"/>
    <path class="fil0" d="M2062.37 469.3c1.17,0.41 2.16,1.16 2.96,2.22 -3.42,0.73 -6.87,0.98 -10.36,0.74 2.47,-0.99 4.93,-1.98 7.4,-2.96z"/>
    <path class="fil0" d="M261.5 475.22c-57.71,0 -115.42,0 -173.13,0 0,5.92 0,11.83 0,17.75 -1.46,-6.11 -1.95,-12.53 -1.48,-19.23 58.46,-0.5 116.66,0 174.61,1.48z"/>
    <path class="fil0" d="M561.89 475.22c57.96,-1.97 116.17,-1.97 174.61,0 -0.18,0.89 -0.67,1.39 -1.48,1.48 -57.45,-1.48 -115.17,-1.98 -173.13,-1.48z"/>
    <path class="fil0" d="M959.95 475.22c31.32,-0.99 62.88,-1.48 94.7,-1.48 32.08,0 63.65,0.98 94.71,2.96 -63.03,-1.47 -126.17,-1.97 -189.41,-1.48z"/>
    <path class="fil0" d="M1622.88 475.22c-56.72,0 -113.45,0 -170.17,0 0.35,1.91 -0.15,3.39 -1.48,4.43 0,-1.97 0,-3.94 0,-5.91 57.47,-0.5 114.68,0 171.65,1.48z"/>
    <path class="fil0" d="M3002.02 475.22c-154.38,0 -308.78,0 -463.17,0 0.36,1.91 -0.14,3.39 -1.48,4.43 0,-1.97 0,-3.94 0,-5.91 155.13,-0.5 310.01,0 464.65,1.48z"/>
    <path class="fil0" d="M261.5 475.22c3.64,9.67 6.84,19.54 9.62,29.59 31.79,142.96 63.12,286.01 93.96,429.13 0.99,3.95 1.98,3.95 2.96,0 14.47,-31.29 28.53,-62.86 42.18,-94.7 50.22,-121.64 100.78,-242.99 151.67,-364.02 57.96,-0.5 115.68,0 173.13,1.48 -91.34,208.67 -182.84,417.31 -274.49,625.94 -8.48,20.4 -18.1,40.13 -28.86,59.19 -60.5,0.96 -120.68,-0.03 -180.53,-2.96 -55.18,-221.72 -109.44,-443.68 -162.77,-665.9 0,-5.92 0,-11.83 0,-17.75 57.71,0 115.42,0 173.13,0z"/>
    <path class="fil0" d="M959.95 475.22c63.24,-0.49 126.38,0.01 189.41,1.48 4.73,11.97 8.43,24.3 11.1,36.99 39.48,167.81 79.44,335.52 119.86,503.12 11.08,47.28 21.68,94.63 31.81,142.06 -58.18,2.95 -116.88,3.93 -176.09,2.96 -8.85,-45.73 -19.21,-91.11 -31.08,-136.14 -71.02,-1.97 -142.05,-1.97 -213.08,0 -18.99,45.86 -38.72,91.23 -59.19,136.14 -56.98,0.49 -113.7,-0.01 -170.17,-1.48 99.45,-228.37 198.6,-456.75 297.43,-685.13zm71.03 196.8c1.91,1.17 3.64,2.65 5.18,4.44 15.93,68.81 30.72,137.87 44.39,207.17 0.86,5.48 0.61,10.9 -0.74,16.28 -46.43,0.68 -92.79,-0.06 -139.1,-2.22 2.5,-11.46 6.2,-22.56 11.1,-33.3 26.85,-64.03 53.24,-128.16 79.17,-192.37z"/>
    <path class="fil0" d="M1622.88 475.22c-0.37,15.79 -1.11,31.58 -2.22,47.35 -17.5,170.63 -34.52,341.3 -51.05,512 94.7,0 189.41,0 284.11,0 -0.75,37.12 -3.46,74.11 -8.13,110.98 -0.63,5.76 -1.86,11.18 -3.7,16.28 -152.42,0 -304.84,0 -457.25,0 0,-1.48 0,-2.96 0,-4.44 22,-225.94 44.2,-451.85 66.59,-677.74 1.33,-1.04 1.83,-2.52 1.48,-4.43 56.72,0 113.45,0 170.17,0z"/>
    <path class="fil0" d="M3355.68 1161.83c-55.24,0 -110.49,0 -165.73,0 0,-12.34 0,-24.67 0,-37 15,-152.9 30.04,-305.81 45.13,-458.72 1.45,-19.95 4.16,-39.68 8.14,-59.2 -68.07,-1.78 -136.14,-3.26 -204.21,-4.43 1.35,-41.21 5.3,-82.15 11.84,-122.83 3.45,-1.72 6.91,-3.45 10.36,-5.17 183,-0.99 365.99,-0.99 548.99,0 4.93,0.9 9.86,1.64 14.8,2.22 -0.27,40.6 -2.98,81.04 -8.14,121.34 -0.55,1.35 -1.29,2.59 -2.22,3.7 -67.58,0.74 -135.15,0.98 -202.73,0.74 -17.71,185.48 -35.7,370.94 -54.01,556.39 -0.41,1.35 -1.15,2.34 -2.22,2.96z"/>
    <path class="fil0" d="M3713.78 473.74c44.4,-0.25 88.79,0 133.18,0.74 4.93,0.9 9.86,1.64 14.8,2.22 0.25,10.37 0,20.72 -0.74,31.07 -12.62,127.28 -25.45,254.54 -38.47,381.78 -0.99,26.63 -0.99,53.27 0,79.91 3.45,11.34 6.91,22.68 10.36,34.03 5.38,7.61 11.07,15.01 17.01,22.2 11.35,5.67 22.69,11.34 34.04,17.01 12.99,1.64 26.06,2.38 39.21,2.22 11.1,-0.24 22.2,-0.49 33.3,-0.74 11.83,-3.45 23.67,-6.9 35.51,-10.35 10.58,-8.12 20.7,-16.76 30.34,-25.9 7.56,-11.68 13.98,-24.01 19.23,-36.99 3.95,-16.77 7.89,-33.55 11.84,-50.32 15.73,-147.93 30.78,-295.91 45.13,-443.92 4.47,-0.45 8.91,-1.19 13.32,-2.22 46.36,-0.99 92.74,-0.99 139.1,0 5.43,0.81 10.86,1.55 16.28,2.22 -0.31,16.29 -1.05,32.57 -2.22,48.83 -13.41,134.15 -26.73,268.32 -39.96,402.49 -4.44,20.23 -8.88,40.45 -13.31,60.67 -16.67,47.89 -43.56,89.08 -80.65,123.56 -65.53,46.25 -138.52,67.21 -219.01,62.89 -63.26,4.01 -122.45,-9.55 -177.57,-40.69 -8.94,-8.45 -18.3,-16.34 -28.11,-23.68 -19.03,-18.04 -33.09,-39.49 -42.18,-64.37 -5.37,-16.53 -9.81,-33.3 -13.32,-50.31 -0.99,-31.07 -0.99,-62.15 0,-93.22 13.92,-141.56 27.72,-283.12 41.44,-424.7 7.22,-1.85 14.38,-3.33 21.45,-4.43z"/>
    <path class="fil0" d="M4406.31 473.74c96.68,-0.25 193.36,0 290.04,0.74 46.96,-0.08 91.85,9.29 134.66,28.11 15.95,11.02 30.01,24.09 42.17,39.22 17.3,33.19 22.71,68.21 16.28,105.06 -7.86,40.13 -26.36,74.41 -55.5,102.84 -15.38,10.94 -31.16,21.3 -47.35,31.08 -1.83,1.7 -3.31,3.68 -4.44,5.92 36.38,7.94 67.7,24.96 93.97,51.05 24.35,31.8 34.71,67.81 31.07,108.02 -6.82,77.07 -43.07,135.52 -108.76,175.35 -14.8,7.4 -29.59,14.8 -44.39,22.2 -24.09,5.8 -48.26,11.23 -72.51,16.28 -22.18,1.37 -44.38,2.36 -66.59,2.96 -91.6,1.23 -183.11,0.98 -274.5,-0.74 -1.45,-4.06 -2.19,-8.25 -2.22,-12.58 22.1,-222.15 43.55,-444.36 64.37,-666.63 0.36,-3.43 1.59,-6.38 3.7,-8.88zm155.38 124.3c33.54,-0.25 67.09,0 100.62,0.74 36.85,5.53 54.61,26.98 53.27,64.37 -1.24,11.9 -2.97,23.74 -5.17,35.51 -13.63,27.88 -36.08,43.91 -67.33,48.09 -31.08,0.74 -62.15,0.99 -93.23,0.74 0.76,-50.14 4.69,-99.96 11.84,-149.45zm-23.68 263.39c37.5,-0.24 74.98,0 112.47,0.74 11.89,1.66 23.73,3.63 35.51,5.92 8.14,5.31 16.53,10.24 25.15,14.8 11.87,10.38 19.02,23.45 21.46,39.21 5.33,42.79 -9.22,76.58 -43.65,101.37 -17.76,7.23 -36,12.66 -54.75,16.28 -37.97,0.74 -75.96,0.98 -113.94,0.74 -0.26,-14.32 0,-28.62 0.74,-42.92 4.43,-40.94 8.87,-81.88 13.31,-122.82 0.3,-4.77 1.53,-9.21 3.7,-13.32z"/>
    <path class="fil0" d="M2001.7 473.74c-1.58,1.38 -3.55,1.87 -5.92,1.48 0.36,1.91 -0.15,3.39 -1.48,4.43 0,-1.97 0,-3.94 0,-5.91 2.47,0 4.93,0 7.4,0z"/>
    <path class="fil0" d="M2165.95 482.62c0.09,-0.81 0.58,-1.3 1.48,-1.48 39.76,22.58 77.73,47.74 113.94,75.46 -2.69,3.57 -5.65,3.82 -8.87,0.74 -35.41,-21.52 -70.19,-43.96 -104.33,-67.33 -0.29,-2.78 -1.03,-5.25 -2.22,-7.39z"/>
    <path class="fil0" d="M365.08 933.94c0.99,0 1.98,0 2.96,0 -0.98,3.95 -1.97,3.95 -2.96,0z"/>
    <path class="fil0" d="M2796.33 950.22c-1.46,-0.26 -2.45,0.24 -2.96,1.48 -2.88,-1.12 -4.11,-3.09 -3.7,-5.92 2.45,1.33 4.66,2.81 6.66,4.44z"/>
    <path class="fil0" d="M2870.32 1031.61c2.29,0.47 3.27,1.95 2.96,4.43 -72.76,0.5 -145.27,0 -217.53,-1.47 72.02,0.24 144.03,0 216.05,-0.74 -0.83,-0.57 -1.32,-1.31 -1.48,-2.22z"/>
    <path class="fil0" d="M2944.31 1093.76c-0.99,1.97 -1.97,3.94 -2.96,5.92 -0.43,-2.65 0.07,-5.12 1.48,-7.4 0.9,0.18 1.39,0.67 1.48,1.48z"/>
    <path class="fil0" d="M251.14 1158.87c59.85,2.93 120.03,3.92 180.53,2.96 -59.92,1.47 -120.1,1.97 -180.53,1.48 0,-1.48 0,-2.96 0,-4.44z"/>
    <path class="fil0" d="M662.52 1160.35c56.47,1.47 113.19,1.97 170.17,1.48 -56.98,1.97 -114.19,1.97 -171.65,0 0.18,-0.9 0.67,-1.4 1.48,-1.48z"/>
    <path class="fil0" d="M1312.13 1158.87c1.34,1.05 1.83,2.53 1.48,4.44 -59.44,0.49 -118.63,-0.01 -177.57,-1.48 59.21,0.97 117.91,-0.01 176.09,-2.96z"/>
    <path class="fil0" d="M1384.64 1157.39c0,1.48 0,2.96 0,4.44 152.41,0 304.83,0 457.25,0 -152.67,1.47 -305.58,1.97 -458.73,1.48 -0.4,-2.37 0.1,-4.34 1.48,-5.92z"/>
    <path class="fil0" d="M1930.67 1149.99c0,3.94 0,7.89 0,11.84 151.42,0 302.86,0 454.29,0 -151.68,1.47 -303.61,1.97 -455.77,1.48 -0.46,-4.76 0.03,-9.2 1.48,-13.32z"/>
    <path class="fil0" d="M2473.75 1152.95c0,2.96 0,5.92 0,8.88 153.4,0 306.79,0 460.2,0 -153.64,1.47 -307.54,1.97 -461.68,1.48 -0.45,-3.79 0.04,-7.24 1.48,-10.36z"/>
    <path class="fil0" d="M3189.95 1124.83c0,12.33 0,24.66 0,37 55.24,0 110.49,0 165.73,0 -55.49,1.47 -111.22,1.97 -167.21,1.48 -0.49,-13.1 0.01,-25.92 1.48,-38.48z"/>
    <path class="fil0" d="M3058.25 1181.06c2.26,-0.11 3.74,0.88 4.44,2.96 -2.27,0.11 -3.74,-0.88 -4.44,-2.96z"/>
    <path class="fil0" d="M5569.41 1212.14c6.98,0.01 13.88,0.75 20.71,2.22 7.83,7.82 14.49,16.45 19.98,25.89 6.88,20.8 2.19,38.32 -14.06,52.53 -21.63,2.85 -36.18,-6.28 -43.65,-27.37 -1.29,-8.87 -1.78,-17.75 -1.48,-26.64 2.47,-5.42 4.93,-10.85 7.4,-16.27 4.23,-2.97 7.93,-6.42 11.1,-10.36z"/>
    <path class="fil0" d="M5511.7 1241.73c2.47,0 4.92,0 7.39,0 2.05,18.7 7.23,36.45 15.54,53.27 1.84,5.87 0.11,10.06 -5.18,12.58 -267,111.27 -543.72,186.24 -830.14,224.92 -66.49,6.78 -133.08,12.21 -199.77,16.28 -375.57,18.47 -734.66,-49.1 -1077.27,-202.72 -43.86,-20.95 -87.27,-42.65 -130.22,-65.11 -1.96,-0.99 -1.96,-1.98 0,-2.96 2.96,-0.99 5.92,-0.99 8.88,0 229.51,107.07 469.72,178.1 720.65,213.08 170.79,20.07 341.95,24.02 513.47,11.84 114.67,-10.27 228.11,-28.02 340.35,-53.27 167.06,-39.79 330.83,-90.1 491.28,-150.94 48.65,-18.59 97,-37.58 145.02,-56.97z"/>
    <path class="fil0" d="M2179.27 1272.81c12.17,1.41 24.26,3.38 36.26,5.92 2.96,-1.98 5.91,-3.95 8.88,-5.92 3.16,0.92 6.36,1.66 9.61,2.22 1.72,1.49 2.7,3.46 2.96,5.92 -0.74,5.18 -1.48,10.35 -2.22,15.53 -4.86,3.55 -10.04,6.51 -15.53,8.88 -7.48,-1.74 -14.88,-3.71 -22.2,-5.92 -7.89,2.23 -15.79,3.95 -23.68,5.18 -4.39,-1.43 -6.86,-4.39 -7.4,-8.88 0.67,-4.69 1.41,-9.38 2.22,-14.05 3.98,-2.76 7.68,-5.72 11.1,-8.88z"/>
    <path class="fil0" d="M632.92 1323.12c-21.75,-0.39 -43.45,0.1 -65.11,1.48 1.13,-1.14 2.61,-1.88 4.44,-2.22 20.48,-1.22 40.7,-0.98 60.67,0.74z"/>
    <path class="fil0" d="M286.66 1357.15c0,-2.46 0,-4.93 0,-7.39 -2.47,0 -4.93,0 -7.4,0 -11.89,0.14 -23.73,-0.6 -35.52,-2.22 -2.25,-4.29 -4.22,-8.73 -5.92,-13.32 2.88,-4.37 6.34,-8.32 10.36,-11.84 36.5,-0.99 73,-0.99 109.51,0 7.88,2.44 11.82,7.87 11.83,16.28 -1.59,3.19 -3.57,6.15 -5.92,8.88 -14.29,1.46 -28.6,2.69 -42.91,3.7 -0.03,47.41 -1.26,94.76 -3.7,142.05 -2.58,2.16 -5.29,4.13 -8.14,5.92 -5.86,-1.39 -11.78,-2.62 -17.75,-3.7 -0.74,-0.74 -1.48,-1.48 -2.22,-2.22 -1.4,-45.37 -2.13,-90.75 -2.22,-136.14z"/>
    <path class="fil0" d="M396.16 1321.64c6.43,-0.25 12.84,0 19.24,0.74 1.72,1.73 3.45,3.45 5.17,5.18 1.08,40.44 2.07,80.89 2.96,121.34 1.23,5.42 3.45,10.35 6.66,14.8 8.18,5 17.06,6.97 26.64,5.92 18.49,0.98 30.57,-7.41 36.25,-25.16 0.79,-39.52 2.27,-78.98 4.44,-118.38 3.55,-3.72 7.99,-5.2 13.32,-4.44 6.28,-1.13 11.21,0.84 14.8,5.92 0.98,41.92 0.98,83.85 0,125.78 -8.68,24.46 -25.7,39.51 -51.05,45.13 -20.22,3.14 -39.45,0.18 -57.71,-8.88 -10.52,-9.5 -18.65,-20.6 -24.42,-33.29 -0.99,-43.41 -0.99,-86.82 0,-130.22 1.55,-1.29 2.78,-2.77 3.7,-4.44z"/>
    <path class="fil0" d="M632.92 1323.12c27.22,0.35 42.51,13.91 45.87,40.69 0.1,18.05 -6.31,33.34 -19.23,45.88 5.67,4.68 11.34,9.37 17.01,14.05 8.74,22.57 5.53,43.04 -9.62,61.41 -7.75,3.64 -15.64,6.84 -23.67,9.62 -24.18,0.25 -48.34,0 -72.51,-0.74 -3.21,-3.21 -6.41,-6.41 -9.62,-9.62 -0.74,-49.81 -0.98,-99.63 -0.74,-149.45 1.91,-3.87 4.37,-7.33 7.4,-10.36 21.66,-1.38 43.36,-1.87 65.11,-1.48zm-42.91 25.16c13.32,-0.25 26.64,0 39.95,0.74 5.8,2.27 10.98,5.48 15.54,9.61 0.98,8.88 0.98,17.76 0,26.64 -4.19,3.21 -8.39,6.41 -12.58,9.62 -14.79,0.74 -29.59,0.98 -44.39,0.74 -0.46,-15.91 0.03,-31.69 1.48,-47.35zm0 73.98c14.31,-0.24 28.61,0 42.91,0.74 5.8,2.28 10.98,5.49 15.54,9.62 0.99,7.89 0.99,15.79 0,23.68 -4.19,4.19 -8.39,8.38 -12.58,12.58 -15.78,0.74 -31.56,0.98 -47.35,0.74 -0.46,-15.91 0.03,-31.69 1.48,-47.36z"/>
    <path class="fil0" d="M754.26 1321.64c15.79,-0.25 31.58,0 47.35,0.74 6.42,2.47 12.83,4.93 19.24,7.4 5.99,6.8 12.16,13.46 18.5,19.98 13.65,27.53 18.09,56.63 13.32,87.3 -3.66,10.47 -7.61,20.83 -11.84,31.08 -19.79,25.03 -45.69,35.14 -77.69,30.33 -16.78,-2.84 -30.84,-10.48 -42.17,-22.93 -6.25,-11.5 -11.67,-23.34 -16.28,-35.52 -0.99,-19.73 -0.99,-39.46 0,-59.19 2.84,-16.19 9.5,-30.5 19.98,-42.91 9.24,-6.83 19.1,-12.25 29.59,-16.28zm14.8 23.68c11.02,-0.3 21.37,1.92 31.07,6.65 4.25,4.75 8.93,8.94 14.06,12.58 3.25,7.28 6.21,14.68 8.88,22.2 1.37,15.89 0.88,31.68 -1.48,47.35 -3.25,7.28 -6.21,14.68 -8.88,22.2 -12.69,14.92 -28.72,20.09 -48.09,15.54 -16.65,-7.84 -26.76,-20.91 -30.33,-39.22 -2.95,-22.89 -0.48,-45.09 7.39,-66.59 8.22,-8.5 17.34,-15.41 27.38,-20.71z"/>
    <path class="fil0" d="M996.94 1334.96c0.74,6.88 -0.24,13.3 -2.96,19.23 -3.79,0.71 -7.49,1.7 -11.09,2.96 -17.89,-7.62 -36.39,-9.84 -55.5,-6.65 -4.34,0.4 -8.03,2.12 -11.1,5.17 -4.44,14.29 -0.25,24.89 12.58,31.82 15.29,4.44 30.58,8.88 45.88,13.32 29.59,18.1 36.74,43.01 21.45,74.73 -3.35,5 -7.54,9.2 -12.58,12.57 -19.5,10.48 -40.22,13.94 -62.15,10.36 -11.99,-3.49 -23.83,-7.44 -35.51,-11.84 -8.39,-5.51 -11.1,-13.16 -8.14,-22.93 3.74,-2.37 7.69,-4.34 11.84,-5.92 9.13,3.7 18.25,7.4 27.37,11.1 12.83,0.98 25.65,0.98 38.48,0 6.24,-1.5 10.43,-5.2 12.58,-11.1 0.98,-7.4 0.98,-14.8 0,-22.2 -3.7,-2.71 -7.4,-5.43 -11.1,-8.14 -15.29,-4.44 -30.58,-8.88 -45.87,-13.32 -13.35,-5.03 -22.47,-14.16 -27.38,-27.37 -0.99,-12.83 -0.99,-25.65 0,-38.47 3.52,-5.31 7.22,-10.49 11.1,-15.54 6.9,-3.45 13.81,-6.91 20.71,-10.36 17.76,-0.99 35.52,-0.99 53.28,0 7.4,2.47 14.79,4.93 22.19,7.4 2.7,0.97 4.68,2.7 5.92,5.18z"/>
    <path class="fil0" d="M1152.32 1349.76c-4.44,0 -8.88,0 -13.32,0 0,1.97 0,3.94 0,5.91 -0.19,13.34 -0.68,26.65 -1.48,39.96 23.68,-0.25 47.36,0 71.03,0.74 8.76,7.07 9.74,15.21 2.96,24.41 -20.65,2.29 -41.37,3.28 -62.15,2.96 -3.45,0 -6.91,0 -10.36,0 0,1.98 0,3.95 0,5.92 -0.19,13.33 -0.68,26.65 -1.48,39.96 25.65,-0.25 51.3,0 76.95,0.74 8.75,7.33 9.73,15.72 2.96,25.15 -33.05,0.99 -66.1,0.99 -99.15,0 -2.28,-2.02 -4.25,-4.24 -5.92,-6.66 0.06,-1.86 -0.68,-3.34 -2.22,-4.44 -0.74,-49.81 -0.98,-99.63 -0.74,-149.45 1.97,-7.58 6.9,-11.77 14.8,-12.58 27.62,-0.99 55.25,-0.99 82.87,0 3.57,2.41 7.27,4.63 11.1,6.66 1.02,6.7 -0.21,12.86 -3.7,18.5 -20.69,1.61 -41.41,2.35 -62.15,2.22z"/>
    <path class="fil0" d="M1368.36 1321.64c16.78,-0.25 33.55,0 50.31,0.74 18.36,5.52 32.41,16.61 42.18,33.29 4.44,19 -2.72,26.4 -21.46,22.2 -6.59,-8 -13,-16.14 -19.24,-24.42 -15.07,-6.16 -30.36,-6.65 -45.87,-1.48 -4.63,3.15 -8.82,6.85 -12.58,11.1 -2.46,7.4 -4.93,14.8 -7.4,22.2 -0.98,16.77 -0.98,33.54 0,50.31 2.36,8.57 5.57,16.7 9.62,24.42 4.76,4.11 10.19,7.07 16.28,8.88 9.87,0.98 19.73,0.98 29.6,0 13.79,-7.83 24.65,-18.68 32.55,-32.56 5.92,-0.99 11.84,-0.99 17.76,0 1.23,1.23 2.47,2.47 3.7,3.7 -0.29,7.41 -1.28,14.81 -2.96,22.2 -11.01,19.36 -27.54,31.44 -49.57,36.25 -21.93,3.58 -42.65,0.12 -62.15,-10.36 -3.57,-3.38 -7.27,-6.58 -11.1,-9.62 -6.33,-12.15 -12.25,-24.48 -17.76,-36.99 -4.44,-27.62 -2.47,-54.75 5.92,-81.39 5.44,-8.91 11.61,-17.29 18.5,-25.15 7.26,-5.84 15.15,-10.28 23.67,-13.32z"/>
    <path class="fil0" d="M1537.05 1321.64c16.3,-0.25 32.58,0 48.84,0.74 6.91,2.47 13.8,4.93 20.71,7.4 7.15,8.14 14.31,16.28 21.46,24.41 3.26,9.27 6.22,18.64 8.88,28.12 0.99,18.75 0.99,37.49 0,56.23 -3.94,18.3 -12.56,33.83 -25.9,46.61 -28.79,16.99 -58.39,18.47 -88.78,4.44 -6.17,-5.18 -12.33,-10.36 -18.5,-15.54 -5.34,-11.17 -10.27,-22.51 -14.8,-34.03 -0.99,-19.73 -0.99,-39.46 0,-59.19 3.45,-9.87 6.91,-19.73 10.36,-29.59 7.15,-7.16 14.31,-14.31 21.46,-21.46 5.77,-2.32 11.2,-5.03 16.27,-8.14zm17.76 23.68c8.98,0.5 17.86,1.74 26.64,3.7 6.61,5.12 12.77,10.8 18.5,17.01 10.81,28.14 10.81,56.25 0,84.35 -11.44,19.38 -28.46,26.53 -51.06,21.46 -16.36,-8.77 -26.47,-22.34 -30.33,-40.7 -0.99,-14.79 -0.99,-29.59 0,-44.39 3.45,-7.89 6.91,-15.79 10.36,-23.68 7.34,-8.13 15.98,-14.05 25.89,-17.75z"/>
    <path class="fil0" d="M1775.3 1496.25c-0.7,-2.09 -2.18,-3.06 -4.44,-2.96 -25.4,-33.04 -48.58,-67.56 -69.55,-103.58 -0.09,-0.8 -0.58,-1.3 -1.48,-1.48 -1.48,13.78 -1.97,27.59 -1.48,41.43 0.58,20.79 -0.16,41.5 -2.22,62.15 -2.49,2.74 -5.21,5.21 -8.14,7.4 -5.86,-1.39 -11.78,-2.62 -17.76,-3.7 -0.74,-0.74 -1.48,-1.48 -2.22,-2.22 -0.99,-55.24 -0.99,-110.49 0,-165.73 3.6,-5.08 8.53,-7.05 14.8,-5.92 5.33,-0.76 9.77,0.72 13.32,4.44 4.44,5.43 8.88,10.85 13.32,16.28 18.5,30.1 37.73,59.69 57.71,88.78 1.03,-34.52 2.02,-69.05 2.96,-103.58 1.73,-1.73 3.44,-3.45 5.18,-5.18 6.4,-0.99 12.83,-0.99 19.23,0 1.73,1.73 3.45,3.45 5.18,5.18 0.99,54.26 0.99,108.51 0,162.77 -2.99,3.23 -6.18,6.19 -9.62,8.88 -4.86,-1.3 -9.79,-2.29 -14.79,-2.96z"/>
    <path class="fil0" d="M1939.55 1346.8c-26.15,0 -52.28,0 -78.43,0 -0.49,16.54 0.02,32.82 1.48,48.83 23.68,-0.25 47.35,0 71.03,0.74 5.73,5.41 7.44,12.07 5.18,19.98 -1.54,1.78 -3.27,3.26 -5.18,4.43 -24.16,0 -48.34,0 -72.51,0 -0.49,16.55 0.02,32.82 1.48,48.84 25.16,-0.25 50.31,0 75.47,0.74 5.89,2.18 8.36,6.38 7.4,12.57 1.05,5.58 -0.92,9.52 -5.92,11.84 -32.55,0.25 -65.11,0 -97.66,-0.74 -2.22,-2.22 -4.44,-4.44 -6.66,-6.66 -0.74,-52.77 -1,-105.55 -0.74,-158.33 2.76,-4.1 6.7,-6.32 11.84,-6.66 28.6,-0.99 57.22,-0.99 85.82,0 12.4,5.07 14.87,13.21 7.4,24.42z"/>
    <path class="fil0" d="M2032.77 1377.87c6.41,-3.45 11.35,-8.39 14.8,-14.8 9.04,-13.74 18.43,-27.3 28.12,-40.69 8.26,-1.19 16.39,-0.95 24.41,0.74 0.4,8.03 -0.57,15.92 -2.95,23.68 -12.2,16.01 -24.04,32.29 -35.52,48.83 -1.88,4.39 -3.6,8.83 -5.18,13.32 17.12,24.84 33.89,50 50.31,75.46 -1.79,3.82 -3.75,7.52 -5.92,11.1 -4.78,1.05 -9.47,2.28 -14.05,3.7 -6.41,-5.43 -12.83,-10.84 -19.24,-16.28 -9.63,-14.34 -19.25,-28.65 -28.86,-42.91 0.24,-2.51 -0.01,-4.98 -0.74,-7.4 -1.06,0.81 -1.8,1.8 -2.21,2.96 -3.9,4.63 -8.09,9.07 -12.58,13.32 -10.52,15.95 -21.62,31.49 -33.3,46.61 -2.17,0.95 -4.14,2.18 -5.92,3.7 -5.8,-1.63 -11.72,-2.6 -17.75,-2.96 -1.25,-5.43 -1.99,-10.86 -2.22,-16.28 14.94,-23.46 30.97,-46.15 48.09,-68.06 -1.08,-5.63 -2.8,-11.06 -5.18,-16.28 -14.47,-18.42 -27.79,-37.66 -39.95,-57.71 0.01,-5.03 1,-9.96 2.96,-14.8 7.02,-1.68 14.17,-1.93 21.45,-0.74 15.46,17.41 29.27,35.9 41.43,55.49z"/>
    <path class="fil0" d="M2176.31 1321.64c16.29,-0.25 32.57,0 48.84,0.74 7.88,3.45 15.78,6.91 23.67,10.36 5.67,6.66 11.35,13.32 17.02,19.97 13.67,35.14 14.66,70.66 2.96,106.55 -17.98,30.84 -44.85,43.92 -80.65,39.21 -31.07,-6.41 -50.55,-24.9 -58.45,-55.49 -0.99,-22.69 -0.99,-45.38 0,-68.07 6.38,-26.23 21.92,-43.98 46.61,-53.27zm63.63 130.22c-2.96,1.97 -5.43,4.44 -7.4,7.4 -3.95,2.96 -7.39,6.41 -10.36,10.36 -17.19,5.88 -32.96,3.66 -47.35,-6.66 -5.21,-5.27 -9.9,-10.94 -14.06,-17.02 -6.86,-24.16 -6.86,-48.33 0,-72.51 3.91,-6.12 8.1,-12.04 12.58,-17.76 34.72,-18.43 58.65,-9.05 71.77,28.12 0.78,9.86 1.53,19.73 2.22,29.59 -1.52,13.01 -3.99,25.83 -7.4,38.48z"/>
    <path class="fil0" d="M2349.44 1349.76c-4.43,0 -8.87,0 -13.31,0 0,1.97 0,3.94 0,5.91 -0.2,13.34 -0.69,26.65 -1.48,39.96 23.67,-0.25 47.35,0 71.03,0.74 8.77,7.25 9.75,15.39 2.95,24.41 -25.15,0 -50.31,0 -75.46,0 -0.49,16.55 0.01,32.82 1.48,48.84 25.65,-0.25 51.3,0 76.94,0.74 8.75,7.33 9.74,15.72 2.96,25.15 -33.04,0.99 -66.1,0.99 -99.14,0 -2.28,-2.02 -4.25,-4.24 -5.92,-6.66 0.06,-1.86 -0.68,-3.34 -2.22,-4.44 -0.74,-50.8 -0.99,-101.6 -0.74,-152.41 1.45,-6.13 5.4,-9.34 11.84,-9.62 28.6,-0.99 57.22,-0.99 85.83,0 3.58,2.41 7.28,4.63 11.09,6.66 1.03,6.7 -0.2,12.86 -3.7,18.5 -20.68,1.61 -41.4,2.35 -62.15,2.22z"/>
    <path class="fil0" d="M2556.61 1416.35c-0.1,2.25 0.87,3.73 2.96,4.43 1.61,2.75 2.86,5.71 3.7,8.88 7.22,37.15 -7.33,60.08 -43.65,68.81 -28.15,4.09 -54.04,-1.58 -77.69,-17.02 -7.16,-20.45 -0.5,-27.11 19.98,-19.97 16.91,7.8 34.67,10.26 53.27,7.4 4.69,-2.72 9.36,-5.43 14.05,-8.14 1.72,-6.85 2.23,-13.75 1.48,-20.72 -3.69,-3.7 -7.39,-7.4 -11.09,-11.1 -15.63,-5.39 -31.42,-10.32 -47.35,-14.8 -8.09,-5.6 -15.72,-11.77 -22.94,-18.49 -1.48,-3.95 -2.96,-7.89 -4.44,-11.84 -0.99,-11.84 -0.99,-23.68 0,-35.51 4.48,-9.24 11.14,-16.39 19.98,-21.46 3.64,-2.31 7.57,-3.79 11.83,-4.44 17.76,-0.99 35.52,-0.99 53.27,0 7.4,2.47 14.8,4.93 22.2,7.4 10.06,8.35 11.06,17.48 2.96,27.37 -19.38,-5.45 -39.11,-8.16 -59.19,-8.13 -5.58,1.28 -11.01,3.01 -16.28,5.17 -1.33,5.59 -2.3,11.27 -2.96,17.02 0.14,4.98 1.62,9.42 4.44,13.32 20.41,5.82 40.64,12.23 60.67,19.24 5.18,3.95 10.11,8.14 14.8,12.58z"/>
    <path class="fil0" d="M1834.49 1329.04c-0.26,52.78 0,105.56 0.74,158.33 2.22,2.22 4.44,4.44 6.66,6.66 32.55,0.74 65.11,0.99 97.66,0.74 -32.79,1.72 -65.85,1.97 -99.14,0.74 -2.22,-2.22 -4.44,-4.44 -6.66,-6.66 -1.23,-53.52 -0.98,-106.79 0.74,-159.81z"/>
    <path class="fil0" d="M2306.53 1332c-0.25,50.81 0,101.61 0.74,152.41 1.54,1.1 2.28,2.58 2.22,4.44 -1.42,-0.66 -2.65,-1.65 -3.7,-2.96 -1.23,-51.54 -0.97,-102.84 0.74,-153.89z"/>
    <path class="fil0" d="M560.41 1334.96c-0.24,49.82 0,99.64 0.74,149.45 3.21,3.21 6.41,6.41 9.62,9.62 24.17,0.74 48.33,0.99 72.51,0.74 -24.41,1.72 -49.07,1.97 -73.99,0.74 -3.21,-3.21 -6.41,-6.41 -9.62,-9.62 -1.23,-50.56 -0.98,-100.87 0.74,-150.93z"/>
    <path class="fil0" d="M996.94 1334.96c1.46,6.12 1.95,12.53 1.48,19.23 -1.48,0 -2.96,0 -4.44,0 2.72,-5.93 3.7,-12.35 2.96,-19.23z"/>
    <path class="fil0" d="M1109.4 1334.96c-0.24,49.82 0,99.64 0.74,149.45 1.54,1.1 2.28,2.58 2.22,4.44 -1.41,-0.66 -2.65,-1.65 -3.7,-2.96 -1.23,-50.56 -0.98,-100.87 0.74,-150.93z"/>
    <path class="fil0" d="M1939.55 1346.8c-25.39,1.47 -51.04,1.96 -76.95,1.48 0,15.78 0,31.56 0,47.35 -1.46,-16.01 -1.97,-32.29 -1.48,-48.83 26.15,0 52.28,0 78.43,0z"/>
    <path class="fil1" d="M1152.32 1349.76c-3.63,1.44 -7.57,1.93 -11.84,1.48 0.35,1.91 -0.14,3.39 -1.48,4.43 0,-1.97 0,-3.94 0,-5.91 4.44,0 8.88,0 13.32,0z"/>
    <path class="fil2" d="M2349.44 1349.76c-3.62,1.44 -7.56,1.93 -11.83,1.48 0.35,1.91 -0.15,3.39 -1.48,4.43 0,-1.97 0,-3.94 0,-5.91 4.44,0 8.88,0 13.31,0z"/>
    <path class="fil3" d="M279.26 1349.76c2.47,0 4.93,0 7.4,0 0,2.46 0,4.93 0,7.39 -1.39,-1.58 -1.88,-3.55 -1.48,-5.91 -2.37,0.39 -4.34,-0.1 -5.92,-1.48z"/>
    <path class="fil0" d="M2047.57 1363.07c-3.45,6.41 -8.39,11.35 -14.8,14.8 4.45,-5.42 9.37,-10.36 14.8,-14.8z"/>
    <path class="fil0" d="M1701.31 1389.71c-0.99,13.32 -1.97,26.64 -2.96,39.95 -0.49,-13.84 0,-27.65 1.48,-41.43 0.9,0.18 1.39,0.68 1.48,1.48z"/>
    <path class="fil0" d="M2556.61 1416.35c2.09,0.69 3.06,2.17 2.96,4.43 -2.09,-0.7 -3.06,-2.18 -2.96,-4.43z"/>
    <path class="fil0" d="M1933.63 1420.78c-23.41,1.48 -47.09,1.97 -71.03,1.48 0,15.79 0,31.57 0,47.36 -1.46,-16.02 -1.97,-32.29 -1.48,-48.84 24.17,0 48.35,0 72.51,0z"/>
    <path class="fil0" d="M2408.63 1420.78c-24.4,1.48 -49.06,1.97 -73.98,1.48 0,15.79 0,31.57 0,47.36 -1.47,-16.02 -1.97,-32.29 -1.48,-48.84 25.15,0 50.31,0 75.46,0z"/>
    <path class="fil0" d="M1149.36 1423.74c-2.62,1.43 -5.57,1.92 -8.88,1.48 0.35,1.91 -0.14,3.39 -1.48,4.44 0,-1.97 0,-3.94 0,-5.92 3.45,0 6.91,0 10.36,0z"/>
    <path class="fil0" d="M2038.69 1440.02c-0.99,-1.48 -1.96,-2.96 -2.95,-4.44 0.41,-1.16 1.15,-2.15 2.21,-2.96 0.73,2.42 0.98,4.89 0.74,7.4z"/>
    <path class="fil0" d="M2239.94 1451.86c-0.99,3.95 -3.45,6.41 -7.4,7.4 1.97,-2.96 4.44,-5.43 7.4,-7.4z"/>
    <path class="fil0" d="M2232.54 1459.26c-1.97,4.93 -5.43,8.38 -10.36,10.36 2.97,-3.95 6.41,-7.4 10.36,-10.36z"/>
    <path class="fil0" d="M1770.86 1493.29c2.26,-0.1 3.74,0.87 4.44,2.96 -2.27,0.11 -3.75,-0.87 -4.44,-2.96z"/>
   </g>
  </g>
 </g>
</svg>
