<?xml version="1.0" encoding="UTF-8"?>
<!DOCTYPE svg PUBLIC "-//W3C//DTD SVG 1.1//EN" "http://www.w3.org/Graphics/SVG/1.1/DTD/svg11.dtd">
<!-- Creator: CorelDRAW -->
<svg xmlns="http://www.w3.org/2000/svg" xml:space="preserve" width="51.9006mm" height="12.6152mm" version="1.1" style="shape-rendering:geometricPrecision; text-rendering:geometricPrecision; image-rendering:optimizeQuality; fill-rule:evenodd; clip-rule:evenodd"
viewBox="0 0 5190.06 1261.52"
 xmlns:xlink="http://www.w3.org/1999/xlink"
 xmlns:xodm="http://www.corel.com/coreldraw/odm/2003">
 <defs>
  <style type="text/css">
   <![CDATA[
    .fil3 {fill:#383E37;fill-opacity:0.894118}
    .fil2 {fill:#383E37;fill-opacity:0.929412}
    .fil5 {fill:#383E37;fill-opacity:0.933333}
    .fil6 {fill:#383E37;fill-opacity:0.937255}
    .fil1 {fill:#383E37;fill-opacity:0.941176}
    .fil7 {fill:#7AC200;fill-opacity:0.941176}
    .fil4 {fill:#383E37;fill-opacity:0.949020}
    .fil0 {fill:#7AC200;fill-opacity:0.960784}
   ]]>
  </style>
 </defs>
 <g id="Camada_x0020_1">
  <metadata id="CorelCorpID_0Corel-Layer"/>
  <g id="_2086256440688">
   <g>
    <path class="fil0" d="M565.13 3.67c265.75,-10.76 468.22,94.83 607.41,316.75 113.46,220.38 107.66,437.35 -17.4,650.92 -165.03,233.77 -390.71,324.85 -677.03,273.25 -176.32,-45.87 -309.76,-147.39 -400.3,-304.57 133.53,-0.79 262.33,-25.15 386.38,-73.1 2.32,1.16 4.64,2.32 6.96,3.48 -3.24,7.99 -6.14,16.11 -8.7,24.36 -28.7,60.88 -58.28,121.21 -88.76,181.01 -0.86,10.51 3.79,16.89 13.92,19.14 14.02,1.16 27.94,0 41.77,-3.48 216.2,-55.34 414.61,-147 595.23,-274.98 41.16,-32.01 78.87,-67.4 113.12,-106.17 5.08,-9.98 6.24,-20.42 3.48,-31.33 -96.7,-232.36 -251.59,-413.94 -464.69,-544.75 -30.88,-15.52 -62.21,-30.02 -93.98,-43.51 -11.79,2.92 -16.43,10.46 -13.92,22.62 12.45,107.87 15.93,215.77 10.44,323.72 60.97,4.6 122.46,6.92 184.48,6.96 4.29,4.12 4.29,8.18 0,12.19 -107.67,28.66 -217.31,41.42 -328.94,38.29 -88.42,1.4 -176.02,-6.15 -262.8,-22.63 -85.69,-17.71 -116.44,-68.18 -92.25,-151.42 110.65,-183 272.51,-288.59 485.58,-316.75z"/>
   </g>
   <g>
    <path class="fil1" d="M4373.19 351.75c40.62,0 81.21,0 121.83,0 0,187.97 0,375.93 0,563.9 -40.62,0 -81.21,0 -121.83,0 0.59,-15.13 0,-30.21 -1.74,-45.25 -55.59,47.09 -118.8,60.43 -189.71,40.03 -89.35,-41.3 -134.6,-111.49 -135.75,-210.59 1.7,-101.96 49.29,-172.16 142.71,-210.59 62.94,-15.72 120.96,-5.28 174.04,31.32 2.48,4.37 5.37,8.43 8.71,12.19 1.74,-60.33 2.33,-120.66 1.74,-181.01zm-125.31 243.66c73.41,-2.61 114.03,32.78 121.83,106.17 -8.6,74.72 -50.37,108.37 -125.31,100.94 -57.75,-24.39 -81.53,-67.9 -71.36,-130.53 13.99,-36.61 38.95,-62.14 74.84,-76.58z"/>
   </g>
   <g>
    <path class="fil2" d="M5062.4 351.75c40.62,0 81.2,0 121.83,0 0,187.97 0,375.93 0,563.9 -40.63,0 -81.21,0 -121.83,0 0,-187.97 0,-375.93 0,-563.9z"/>
   </g>
   <g>
    <path class="fil1" d="M1553.7 355.23c90.51,-0.58 181.01,0 271.5,1.74 128.02,22.55 181.98,98.55 161.86,228 -18.54,81.19 -69.01,129.34 -151.41,144.45 -53.37,1.74 -106.74,2.33 -160.12,1.74 0,61.5 0,122.99 0,184.49 -40.61,0 -81.22,0 -121.83,0 0,-186.81 0,-373.61 0,-560.42zm121.83 104.43c47.82,-1.55 95.4,0.19 142.71,5.22 48.05,21.29 64.87,57.84 50.47,109.65 -8.7,22.62 -24.36,38.29 -46.99,46.99 -48.55,4.9 -97.28,6.64 -146.19,5.22 0,-55.69 0,-111.39 0,-167.08z"/>
   </g>
   <g>
    <path class="fil3" d="M2114.11 358.71c66.24,0.7 91.19,33.18 74.84,97.47 -32.27,41.54 -68.23,45.02 -107.9,10.44 -27.8,-48.29 -16.77,-84.26 33.06,-107.91z"/>
   </g>
   <g>
    <path class="fil3" d="M3882.39 358.71c66.03,0.52 90.99,33.01 74.84,97.47 -29,37.27 -63.22,43.07 -102.69,17.4 -24.12,-27.93 -27.01,-58.09 -8.7,-90.5 10.44,-11.27 22.62,-19.39 36.55,-24.37z"/>
   </g>
   <g>
    <path class="fil4" d="M3255.83 480.54c60.67,-6.56 114.04,9.69 160.12,48.73 57.68,-46.3 122.67,-59.65 194.93,-40.02 60.39,25.19 100.42,68.7 120.09,130.53 5.01,98.51 6.75,197.13 5.22,295.87 -39.44,0 -78.91,0 -118.35,0 0.59,-87.03 0,-174.05 -1.74,-261.06 -19.25,-60.4 -56.95,-76.06 -113.13,-47 -11.76,11.38 -20.46,24.73 -26.1,40.03 -1.74,89.34 -2.33,178.68 -1.74,268.03 -40.62,0 -81.21,0 -121.83,0 0.59,-90.51 0,-181.01 -1.74,-271.51 -16.19,-43.77 -46.92,-59.44 -92.25,-46.99 -19.14,7.54 -32.47,20.89 -40.03,40.03 -5.08,92.67 -6.82,185.5 -5.22,278.47 -39.43,0 -78.91,0 -118.35,0 -1.63,-99.96 0.11,-199.75 5.23,-299.35 26.31,-74.5 77.97,-119.76 154.89,-135.76z"/>
   </g>
   <g>
    <path class="fil5" d="M2444.79 487.5c42.93,0 85.87,0 128.8,0 0,33.65 0,67.3 0,100.95 -29.03,-0.58 -58.04,0 -87.03,1.74 -30.88,6.49 -52.34,24.48 -64.39,53.95 -5.13,90.28 -6.87,180.78 -5.22,271.51 -39.45,0 -78.9,0 -118.35,0 -0.58,-87.03 0,-174.05 1.74,-261.06 12.76,-87.1 60.91,-142.79 144.45,-167.09z"/>
   </g>
   <g>
    <path class="fil6" d="M2667.57 487.5c58.02,-0.58 116.05,0 174.04,1.75 77.07,22.52 124.06,73 140.98,151.41 1.74,91.66 2.33,183.32 1.74,274.99 -38.33,0.58 -76.62,0 -114.87,-1.74 -2.19,-10.89 -4.53,-21.92 -6.96,-33.07 -24.06,20.72 -51.9,32.9 -83.54,36.55 -133.09,10.82 -188.2,-48.93 -165.34,-179.26 27.77,-48.45 70.12,-73.4 127.05,-74.84 41.77,-1.74 83.54,-2.32 125.31,-1.74 -5.29,-37.22 -26.18,-61.01 -62.66,-71.36 -45.25,-1.74 -90.49,-2.32 -135.75,-1.74 0,-33.65 0,-67.3 0,-100.95zm83.54 257.59c38.29,0 76.58,0 114.87,0 1.84,37.08 -14.38,63.18 -48.73,78.32 -25.62,11.4 -51.14,11.4 -76.58,0 -19.96,-13.91 -26.34,-33.06 -19.15,-57.44 7.78,-10.79 17.64,-17.75 29.59,-20.88z"/>
   </g>
   <g>
    <path class="fil6" d="M4637.73 487.5c58.03,-0.58 116.05,0 174.05,1.75 77.13,22.58 124.12,73.05 140.97,151.41 1.74,91.66 2.33,183.32 1.74,274.99 -39.44,0 -78.91,0 -118.35,0 0.59,-12.82 0,-25.58 -1.74,-38.29 -33.49,31.28 -73.51,45.2 -120.09,41.77 -102.58,-4.55 -148.42,-57.92 -137.49,-160.12 21.86,-62.29 66.52,-94.2 134.01,-95.72 41.81,-0.58 83.58,-2.32 125.31,-5.22 -7.1,-35.54 -27.99,-58.16 -62.65,-67.88 -45.26,-1.74 -90.51,-2.32 -135.76,-1.74 0,-33.65 0,-67.3 0,-100.95zm83.54 257.59c38.29,0 76.58,0 114.87,0 1.88,37.07 -14.38,63.17 -48.73,78.32 -28.47,12.49 -56.32,11.33 -83.54,-3.48 -26.66,-33.05 -20.85,-58 17.4,-74.84z"/>
   </g>
   <g>
    <path class="fil2" d="M2068.86 539.72c40.61,0 81.22,0 121.83,0 0,125.31 0,250.62 0,375.93 -40.61,0 -81.22,0 -121.83,0 0,-125.31 0,-250.62 0,-375.93z"/>
   </g>
   <g>
    <path class="fil2" d="M3837.14 539.72c40.62,0 81.2,0 121.83,0 0,125.31 0,250.62 0,375.93 -40.63,0 -81.21,0 -121.83,0 0,-125.31 0,-250.62 0,-375.93z"/>
   </g>
   <g>
    <path class="fil7" d="M554.69 564.08c4,1.02 6.32,3.92 6.96,8.71 -6.79,38.35 -16.07,76.06 -27.84,113.12 2.9,1.16 5.8,2.32 8.7,3.48 59.1,-3.62 117.69,-11.16 175.78,-22.62 55.78,-12.21 111.47,-24.39 167.08,-36.55 -0.21,7.28 -3.69,12.5 -10.44,15.66 -141.06,67.51 -289.58,110.44 -445.55,128.79 -75.72,9.72 -151.72,16.1 -228,19.15 -47.92,0.06 -94.91,-6.32 -140.97,-19.15 -28.22,-11.77 -47.36,-32.07 -57.43,-60.91 -4.74,-40.44 -6.48,-81.06 -5.23,-121.83 58.14,10 116.73,15.81 175.79,17.4 112.56,-5.15 224.53,-16.18 335.9,-33.06 15.93,-2.53 31.01,-6.59 45.25,-12.19z"/>
   </g>
  </g>
 </g>
</svg>
