<?xml version="1.0" encoding="UTF-8"?>
<!DOCTYPE svg PUBLIC "-//W3C//DTD SVG 1.1//EN" "http://www.w3.org/Graphics/SVG/1.1/DTD/svg11.dtd">
<!-- Creator: CorelDRAW -->
<svg xmlns="http://www.w3.org/2000/svg" xml:space="preserve" width="42.3332mm" height="42.3332mm" version="1.1" style="shape-rendering:geometricPrecision; text-rendering:geometricPrecision; image-rendering:optimizeQuality; fill-rule:evenodd; clip-rule:evenodd"
viewBox="0 0 4233.32 4233.32"
 xmlns:xlink="http://www.w3.org/1999/xlink"
 xmlns:xodm="http://www.corel.com/coreldraw/odm/2003"
 zoomAndPan="magnify">
 <defs>
  <style type="text/css">
   <![CDATA[
    .fil1 {fill:none;fill-rule:nonzero}
    .fil0 {fill:#2576CC;fill-rule:nonzero}
   ]]>
  </style>
    <clipPath id="id0" style="clip-rule:nonzero">
     <path d="M1789.11 2883.61l146.82 0 0 146.82 -146.82 0 0 -146.82zm0 0z"/>
    </clipPath>
 </defs>
 <g id="Camada_x0020_1">
  <metadata id="CorelCorpID_0Corel-Layer"/>
  <g id="_2613869152240">
   <path class="fil0" d="M2116.66 -0.01c-34.66,0 -69.27,0.83 -103.87,2.55 -34.61,1.66 -69.15,4.21 -103.62,7.65 -34.48,3.38 -68.83,7.58 -103.11,12.68 -34.28,5.1 -68.38,11.03 -102.35,17.78 -33.96,6.75 -67.8,14.34 -101.38,22.75 -33.59,8.41 -66.98,17.65 -100.12,27.72 -33.14,10.07 -66.02,20.91 -98.64,32.56 -32.63,11.67 -64.94,24.16 -96.93,37.41 -31.99,13.26 -63.67,27.28 -95.02,42.12 -31.29,14.79 -62.19,30.34 -92.78,46.72 -30.53,16.31 -60.67,33.39 -90.37,51.17 -29.69,17.84 -59.01,36.32 -87.81,55.57 -28.81,19.24 -57.1,39.19 -84.88,59.84 -27.85,20.64 -55.13,41.93 -81.96,63.92 -26.76,21.98 -52.96,44.6 -78.64,67.86 -25.68,23.26 -50.72,47.16 -75.26,71.63 -24.47,24.47 -48.37,49.58 -71.63,75.26 -23.26,25.68 -45.88,51.88 -67.86,78.64 -21.99,26.77 -43.28,54.1 -63.92,81.89 -20.65,27.85 -40.6,56.14 -59.84,84.95 -19.25,28.8 -37.72,58.05 -55.57,87.81 -17.78,29.7 -34.86,59.84 -51.17,90.37 -16.38,30.58 -31.93,61.49 -46.72,92.78 -14.84,31.35 -28.86,63.03 -42.11,95.02 -13.26,31.98 -25.75,64.3 -37.41,96.93 -11.66,32.62 -22.5,65.5 -32.57,98.64 -10.07,33.14 -19.31,66.53 -27.72,100.12 -8.41,33.58 -16,67.42 -22.75,101.38 -6.75,33.97 -12.68,68.07 -17.78,102.35 -5.09,34.28 -9.3,68.63 -12.68,103.11 -3.44,34.47 -5.99,69.01 -7.65,103.62 -1.72,34.6 -2.55,69.2 -2.55,103.87 0,34.6 0.83,69.27 2.55,103.81 1.66,34.6 4.21,69.14 7.65,103.62 3.38,34.47 7.59,68.89 12.68,103.11 5.1,34.28 11.03,68.44 17.78,102.41 6.75,33.96 14.34,67.74 22.75,101.32 8.41,33.65 17.65,66.98 27.72,100.18 10.07,33.13 20.91,66.02 32.57,98.64 11.72,32.57 24.15,64.88 37.41,96.93 13.25,31.99 27.27,63.67 42.11,94.96 14.79,31.35 30.41,62.26 46.72,92.78 16.31,30.59 33.39,60.73 51.17,90.43 17.85,29.69 36.39,58.95 55.63,87.75 19.25,28.8 39.19,57.1 59.78,84.95 20.64,27.85 42,55.12 63.92,81.88 21.98,26.83 44.6,53.03 67.86,78.71 23.26,25.68 47.16,50.72 71.63,75.26 24.54,24.47 49.58,48.37 75.26,71.63 25.68,23.26 51.94,45.88 78.71,67.8 26.76,21.99 54.04,43.34 81.89,63.92 27.84,20.65 56.14,40.59 84.94,59.84 28.81,19.24 58.06,37.79 87.75,55.57 29.76,17.84 59.84,34.92 90.43,51.23 30.53,16.31 61.5,31.87 92.78,46.72 31.29,14.78 62.97,28.86 94.96,42.12 32.05,13.25 64.36,25.68 96.93,37.34 32.62,11.66 65.5,22.56 98.64,32.63 33.2,10 66.53,19.24 100.18,27.66 33.58,8.41 67.36,16.06 101.32,22.81 34.03,6.75 68.13,12.62 102.41,17.71 34.22,5.1 68.64,9.37 103.11,12.75 34.48,3.38 69.02,5.93 103.62,7.65 34.54,1.65 69.21,2.55 103.81,2.55 34.67,0 69.27,-0.9 103.87,-2.55 34.61,-1.72 69.15,-4.27 103.62,-7.65 34.48,-3.44 68.83,-7.65 103.11,-12.75 34.29,-5.09 68.38,-11.02 102.35,-17.77 33.96,-6.76 67.8,-14.34 101.39,-22.75 33.58,-8.42 66.97,-17.66 100.11,-27.72 33.13,-10.08 66.02,-20.91 98.65,-32.57 32.62,-11.66 64.94,-24.15 96.93,-37.41 31.98,-13.25 63.66,-27.27 95.01,-42.12 31.29,-14.78 62.2,-30.34 92.78,-46.71 30.53,-16.32 60.67,-33.39 90.37,-51.17 29.76,-17.85 59.01,-36.39 87.81,-55.64 28.81,-19.24 57.11,-39.12 84.89,-59.77 27.85,-20.65 55.12,-41.93 81.95,-63.92 26.76,-21.98 52.96,-44.61 78.64,-67.87 25.68,-23.26 50.73,-47.15 75.26,-71.63 24.47,-24.53 48.37,-49.57 71.63,-75.26 23.26,-25.68 45.88,-51.87 67.86,-78.7 21.99,-26.76 43.28,-54.04 63.92,-81.89 20.65,-27.84 40.53,-56.14 59.78,-84.94 19.25,-28.81 37.79,-58.06 55.63,-87.75 17.78,-29.7 34.86,-59.84 51.17,-90.43 16.32,-30.53 31.93,-61.5 46.72,-92.79 14.78,-31.29 28.86,-62.96 42.12,-94.95 13.25,-32.05 25.68,-64.37 37.34,-96.93 11.66,-32.63 22.56,-65.51 32.63,-98.64 10,-33.21 19.24,-66.54 27.66,-100.18 8.47,-33.59 16.06,-67.36 22.81,-101.33 6.75,-34.03 12.68,-68.12 17.72,-102.41 5.09,-34.22 9.36,-68.63 12.74,-103.11 3.38,-34.47 5.93,-69.01 7.65,-103.62 1.66,-34.54 2.55,-69.2 2.55,-103.8 -0.06,-34.67 -0.96,-69.27 -2.68,-103.88 -1.72,-34.54 -4.33,-69.08 -7.77,-103.55 -3.45,-34.41 -7.71,-68.83 -12.81,-103.05 -5.1,-34.22 -11.09,-68.38 -17.85,-102.28 -6.81,-33.96 -14.4,-67.74 -22.81,-101.32 -8.48,-33.59 -17.71,-66.98 -27.78,-100.12 -10.07,-33.14 -20.97,-65.96 -32.7,-98.58 -11.66,-32.57 -24.15,-64.88 -37.4,-96.87 -13.26,-31.99 -27.34,-63.59 -42.13,-94.95 -14.84,-31.29 -30.39,-62.19 -46.77,-92.72 -16.31,-30.53 -33.39,-60.67 -51.24,-90.36 -17.78,-29.7 -36.32,-58.88 -55.56,-87.69 -19.25,-28.81 -39.2,-57.1 -59.84,-84.89 -20.65,-27.84 -41.94,-55.12 -63.92,-81.88 -21.99,-26.77 -44.55,-52.96 -67.81,-78.64 -23.26,-25.62 -47.16,-50.73 -71.62,-75.2 -24.54,-24.47 -49.58,-48.37 -75.27,-71.62 -25.62,-23.26 -51.87,-45.89 -78.63,-67.88 -26.77,-21.92 -54.05,-43.26 -81.83,-63.85 -27.85,-20.64 -56.14,-40.59 -84.88,-59.84 -28.81,-19.24 -58.06,-37.79 -87.75,-55.57 -29.7,-17.84 -59.84,-34.92 -90.37,-51.23 -30.52,-16.38 -61.43,-31.93 -92.72,-46.78 -31.29,-14.78 -62.96,-28.86 -94.95,-42.12 -31.99,-13.25 -64.23,-25.75 -96.86,-37.41 -32.57,-11.72 -65.45,-22.56 -98.59,-32.69 -33.14,-10.07 -66.46,-19.31 -100.05,-27.72 -33.58,-8.47 -67.36,-16.06 -101.32,-22.88 -33.97,-6.75 -68.07,-12.74 -102.35,-17.84 -34.22,-5.1 -68.57,-9.37 -103.04,-12.81 -34.48,-3.44 -68.96,-5.99 -103.56,-7.71 -34.6,-1.78 -69.21,-2.68 -103.81,-2.68zm0 4004.31c-30.91,0 -61.81,-0.77 -92.65,-2.3 -30.85,-1.46 -61.63,-3.76 -92.41,-6.82 -30.72,-2.99 -61.37,-6.75 -91.96,-11.34 -30.52,-4.52 -60.98,-9.81 -91.25,-15.8 -30.34,-6.06 -60.48,-12.81 -90.43,-20.33 -29.95,-7.52 -59.71,-15.74 -89.28,-24.66 -29.57,-8.99 -58.88,-18.68 -88.01,-29.13 -29.06,-10.39 -57.86,-21.47 -86.41,-33.33 -28.55,-11.78 -56.78,-24.34 -84.69,-37.53 -27.91,-13.19 -55.51,-27.08 -82.78,-41.68 -27.21,-14.53 -54.11,-29.76 -80.62,-45.63 -26.51,-15.93 -52.57,-32.43 -78.25,-49.58 -25.68,-17.14 -50.92,-34.98 -75.77,-53.33 -24.79,-18.42 -49.14,-37.41 -73.03,-57.04 -23.9,-19.56 -47.29,-39.77 -70.17,-60.48 -22.87,-20.77 -45.24,-42.05 -67.1,-63.91 -21.86,-21.86 -43.14,-44.23 -63.85,-67.11 -20.78,-22.88 -40.92,-46.26 -60.54,-70.16 -19.63,-23.9 -38.62,-48.24 -56.98,-73.03 -18.41,-24.79 -36.19,-50.09 -53.4,-75.77 -17.14,-25.68 -33.65,-51.75 -49.51,-78.26 -15.93,-26.51 -31.17,-53.34 -45.69,-80.61 -14.6,-27.28 -28.43,-54.81 -41.68,-82.78 -13.19,-27.91 -25.68,-56.14 -37.54,-84.69 -11.79,-28.55 -22.93,-57.36 -33.33,-86.42 -10.38,-29.12 -20.13,-58.43 -29.06,-88 -8.98,-29.57 -17.2,-59.33 -24.72,-89.28 -7.52,-29.95 -14.27,-60.1 -20.33,-90.43 -5.99,-30.27 -11.28,-60.67 -15.8,-91.25 -4.53,-30.59 -8.35,-61.18 -11.35,-91.96 -3.05,-30.72 -5.28,-61.56 -6.81,-92.41 -1.53,-30.84 -2.3,-61.75 -2.3,-92.59 0,-30.91 0.77,-61.81 2.3,-92.66 1.53,-30.84 3.76,-61.62 6.81,-92.4 3,-30.72 6.82,-61.37 11.35,-91.96 4.52,-30.52 9.81,-60.98 15.8,-91.25 6.06,-30.34 12.81,-60.42 20.33,-90.43 7.52,-29.95 15.74,-59.71 24.72,-89.28 8.93,-29.57 18.61,-58.89 29.06,-87.94 10.4,-29.13 21.48,-57.93 33.33,-86.48 11.79,-28.55 24.35,-56.78 37.54,-84.7 13.19,-27.9 27.08,-55.5 41.68,-82.77 14.52,-27.21 29.76,-54.11 45.62,-80.62 15.93,-26.44 32.44,-52.57 49.58,-78.25 17.14,-25.68 34.93,-50.92 53.34,-75.78 18.42,-24.78 37.41,-49.13 57.04,-73.02 19.56,-23.84 39.76,-47.22 60.48,-70.17 20.77,-22.87 42.05,-45.24 63.91,-67.1 21.86,-21.8 44.23,-43.08 67.1,-63.85 22.88,-20.78 46.27,-40.92 70.17,-60.54 23.83,-19.57 48.17,-38.56 73.03,-56.98 24.79,-18.41 50.02,-36.19 75.71,-53.33 25.74,-17.21 51.8,-33.72 78.31,-49.58 26.51,-15.87 53.34,-31.1 80.62,-45.7 27.21,-14.53 54.8,-28.42 82.71,-41.67 27.98,-13.19 56.21,-25.69 84.76,-37.54 28.49,-11.79 57.35,-22.94 86.41,-33.33 29.06,-10.38 58.44,-20.07 87.95,-29.06 29.56,-8.98 59.32,-17.2 89.34,-24.72 29.95,-7.52 60.09,-14.27 90.37,-20.27 30.33,-6.05 60.72,-11.34 91.31,-15.86 30.53,-4.53 61.18,-8.29 91.96,-11.35 30.72,-3.05 61.5,-5.29 92.41,-6.81 30.84,-1.53 61.68,-2.3 92.59,-2.3 30.9,0 61.75,0.77 92.59,2.3 30.91,1.52 61.69,3.76 92.41,6.81 30.78,3 61.43,6.82 91.95,11.35 30.59,4.52 60.99,9.81 91.32,15.8 30.27,6.06 60.41,12.81 90.37,20.33 30.01,7.52 59.77,15.74 89.34,24.72 29.57,8.93 58.88,18.61 87.94,29.06 29.12,10.39 57.93,21.48 86.48,33.33 28.49,11.79 56.78,24.35 84.69,37.54 27.91,13.19 55.51,27.08 82.72,41.67 27.27,14.53 54.16,29.77 80.61,45.63 26.51,15.87 52.64,32.44 78.32,49.58 25.68,17.14 50.92,34.93 75.71,53.34 24.85,18.42 49.19,37.41 73.09,57.04 23.83,19.56 47.22,39.76 70.17,60.47 22.87,20.78 45.24,42.06 67.1,63.92 21.79,21.79 43.14,44.16 63.85,67.1 20.78,22.88 40.91,46.27 60.54,70.1 19.56,23.9 38.56,48.24 56.97,73.09 18.42,24.8 36.2,50.03 53.34,75.71 17.21,25.69 33.71,51.81 49.58,78.26 15.93,26.51 31.1,53.4 45.69,80.61 14.6,27.28 28.42,54.87 41.68,82.78 13.19,27.91 25.68,56.15 37.53,84.7 11.8,28.54 22.94,57.35 33.33,86.47 10.45,29.06 20.14,58.38 29.06,87.95 8.99,29.56 17.21,59.32 24.73,89.27 7.52,30.02 14.27,60.1 20.33,90.43 5.99,30.27 11.28,60.73 15.8,91.26 4.53,30.58 8.35,61.24 11.34,91.96 3.06,30.78 5.36,61.56 6.82,92.4 1.53,30.84 2.3,61.75 2.3,92.66 0,30.84 -0.83,61.75 -2.36,92.59 -1.59,30.84 -3.89,61.62 -6.95,92.34 -3.06,30.72 -6.82,61.37 -11.41,91.89 -4.52,30.59 -9.87,60.99 -15.93,91.26 -6.05,30.27 -12.81,60.41 -20.33,90.36 -7.52,29.95 -15.8,59.71 -24.78,89.29 -8.99,29.5 -18.68,58.81 -29.13,87.87 -10.38,29.06 -21.54,57.86 -33.39,86.41 -11.79,28.56 -24.34,56.72 -37.54,84.63 -13.25,27.91 -27.14,55.51 -41.74,82.72 -14.53,27.27 -29.76,54.1 -45.62,80.61 -15.94,26.45 -32.44,52.58 -49.58,78.2 -17.21,25.68 -34.99,50.91 -53.41,75.77 -18.35,24.78 -37.4,49.13 -56.97,72.96 -19.63,23.9 -39.76,47.29 -60.54,70.17 -20.71,22.87 -41.99,45.24 -63.85,67.03 -21.79,21.86 -44.16,43.15 -67.04,63.86 -22.88,20.77 -46.27,40.91 -70.16,60.54 -23.84,19.56 -48.18,38.62 -72.97,56.97 -24.85,18.42 -50.09,36.2 -75.77,53.4 -25.62,17.14 -51.75,33.65 -78.19,49.58 -26.51,15.87 -53.34,31.1 -80.62,45.63 -27.21,14.59 -54.8,28.48 -82.71,41.74 -27.92,13.19 -56.08,25.75 -84.63,37.53 -28.55,11.86 -57.35,23.01 -86.41,33.4 -29.06,10.45 -58.38,20.14 -87.88,29.12 -29.57,8.99 -59.33,17.27 -89.28,24.79 -29.96,7.52 -60.1,14.27 -90.36,20.33 -30.28,6.05 -60.67,11.41 -91.26,15.93 -30.53,4.59 -61.18,8.35 -91.89,11.41 -30.72,3.05 -61.5,5.35 -92.35,6.94 -30.84,1.53 -61.75,2.36 -92.59,2.36l0 0.07zm0 0z"/>
   <path class="fil0" d="M3076.38 1139.54c-24.73,-0.06 -49.2,2.3 -73.48,7.08 -24.28,4.78 -47.79,11.92 -70.67,21.35 -22.82,9.43 -44.55,21.09 -65.06,34.85 -20.53,13.77 -39.51,29.38 -56.98,46.91l-935.62 935.69 -451.5 -451.88c-8.67,-8.79 -17.78,-17.21 -27.28,-25.11 -9.56,-7.9 -19.43,-15.36 -29.7,-22.3 -10.19,-6.95 -20.77,-13.32 -31.67,-19.25 -10.89,-5.93 -22.05,-11.21 -33.46,-16.06 -11.4,-4.78 -23,-8.99 -34.86,-12.68 -11.85,-3.63 -23.83,-6.69 -35.94,-9.18 -12.1,-2.48 -24.34,-4.33 -36.64,-5.61 -12.36,-1.21 -24.66,-1.91 -37.09,-1.91 -12.36,-0.06 -24.72,0.51 -37.02,1.66 -12.36,1.21 -24.6,3 -36.71,5.35 -12.17,2.36 -24.15,5.36 -36,8.93 -11.86,3.56 -23.52,7.7 -34.99,12.42 -11.41,4.72 -22.62,10 -33.52,15.8 -10.96,5.87 -21.54,12.17 -31.86,19.06 -10.26,6.88 -20.2,14.21 -29.83,22.11 -9.56,7.84 -18.73,16.13 -27.46,24.86 -8.73,8.79 -17.01,17.97 -24.92,27.53 -7.84,9.55 -15.17,19.5 -22.05,29.82 -6.88,10.26 -13.19,20.9 -19.05,31.86 -5.8,10.9 -11.09,22.11 -15.74,33.52 -4.72,11.47 -8.86,23.13 -12.43,34.99 -3.57,11.85 -6.56,23.83 -8.92,36 -2.42,12.11 -4.14,24.35 -5.35,36.71 -1.15,12.3 -1.72,24.66 -1.66,37.02 0.06,12.43 0.7,24.73 1.98,37.09 1.27,12.3 3.12,24.54 5.6,36.65 2.49,12.1 5.55,24.08 9.18,35.94 3.63,11.85 7.9,23.45 12.68,34.86 4.84,11.4 10.2,22.55 16.06,33.45 5.93,10.83 12.36,21.41 19.31,31.68 6.94,10.25 14.34,20.13 22.3,29.63 7.91,9.49 16.25,18.6 25.11,27.33l717.81 717.76c8.74,8.73 17.85,16.94 27.34,24.78 9.56,7.84 19.44,15.17 29.7,21.99 10.19,6.88 20.77,13.19 31.61,18.99 10.89,5.8 21.98,11.09 33.39,15.81 11.41,4.71 22.94,8.85 34.73,12.42 11.79,3.57 23.77,6.56 35.81,8.99 12.11,2.36 24.29,4.2 36.52,5.41 12.3,1.21 24.6,1.79 36.9,1.79 12.3,0 24.59,-0.58 36.83,-1.79 12.3,-1.21 24.47,-3.05 36.51,-5.41 12.12,-2.43 24.03,-5.42 35.82,-8.99 11.79,-3.57 23.39,-7.71 34.79,-12.42 11.35,-4.72 22.5,-10.01 33.33,-15.81 10.9,-5.8 21.41,-12.11 31.68,-18.99 10.26,-6.82 20.13,-14.15 29.63,-21.99 9.56,-7.84 18.67,-16.05 27.4,-24.78l1201.5 -1201.63c13.06,-13.06 25.1,-27.08 36.13,-41.93 11.02,-14.85 20.9,-30.46 29.63,-46.77 8.73,-16.32 16.19,-33.14 22.43,-50.6 6.25,-17.4 11.15,-35.18 14.72,-53.34 3.64,-18.17 5.93,-36.46 6.82,-54.93 0.9,-18.48 0.45,-36.97 -1.4,-55.32 -1.78,-18.42 -4.91,-36.64 -9.43,-54.55 -4.52,-17.97 -10.26,-35.49 -17.4,-52.57 -7.07,-17.08 -15.36,-33.58 -24.85,-49.46 -9.5,-15.86 -20.14,-30.97 -31.87,-45.24 -11.72,-14.34 -24.46,-27.65 -38.17,-40.09 -13.7,-12.42 -28.29,-23.76 -43.65,-34.09 -15.36,-10.26 -31.42,-19.37 -48.18,-27.27 -16.69,-7.9 -33.9,-14.53 -51.62,-19.89 -17.71,-5.41 -35.74,-9.43 -54.03,-12.17 -18.29,-2.67 -36.71,-4.08 -55.19,-4.08zm104.06 480.37l-1201.68 1201.69c-6.95,6.63 -14.47,12.49 -22.5,17.72 -8.09,5.16 -16.57,9.56 -25.49,13.12 -8.92,3.57 -18.1,6.25 -27.53,8.03 -9.43,1.85 -18.92,2.74 -28.55,2.74 -9.56,0 -19.12,-0.89 -28.48,-2.74 -9.43,-1.78 -18.61,-4.46 -27.53,-8.03 -8.92,-3.56 -17.4,-7.96 -25.49,-13.12 -8.1,-5.23 -15.62,-11.09 -22.56,-17.72l-717.81 -718.13c-6.82,-6.82 -12.94,-14.27 -18.29,-22.31 -5.42,-8.03 -9.94,-16.5 -13.64,-25.42 -3.7,-8.92 -6.5,-18.16 -8.41,-27.66 -1.85,-9.43 -2.81,-19.05 -2.81,-28.68 0,-9.68 0.96,-19.24 2.81,-28.74 1.91,-9.49 4.71,-18.67 8.41,-27.66 3.7,-8.92 8.22,-17.39 13.57,-25.42 5.35,-8.03 11.47,-15.49 18.29,-22.3 6.88,-6.89 14.28,-12.94 22.31,-18.36 8.09,-5.35 16.57,-9.88 25.49,-13.57 8.92,-3.7 18.16,-6.5 27.59,-8.41 9.49,-1.85 19.05,-2.81 28.74,-2.81 9.68,0 19.25,0.9 28.74,2.81 9.5,1.91 18.67,4.65 27.6,8.34 8.98,3.76 17.46,8.29 25.48,13.64 8.03,5.36 15.49,11.47 22.31,18.29l532.81 532.75c5.3,5.29 11.09,10.07 17.34,14.28 6.24,4.14 12.81,7.71 19.75,10.57 6.95,2.88 14.15,5.04 21.48,6.51 7.39,1.46 14.85,2.22 22.37,2.22 7.52,0 14.97,-0.76 22.3,-2.22 7.39,-1.47 14.53,-3.63 21.48,-6.51 6.94,-2.86 13.57,-6.43 19.82,-10.57 6.24,-4.21 12.04,-8.99 17.33,-14.28l1016.62 -1016.3c6.95,-6.69 14.47,-12.62 22.56,-17.78 8.03,-5.23 16.57,-9.63 25.49,-13.2 8.86,-3.56 18.04,-6.3 27.47,-8.09 9.43,-1.84 18.99,-2.74 28.55,-2.74 9.62,0 19.12,0.9 28.55,2.74 9.43,1.79 18.6,4.53 27.53,8.09 8.92,3.57 17.4,7.97 25.49,13.2 8.09,5.16 15.61,11.09 22.49,17.78 6.82,6.81 12.94,14.27 18.29,22.3 5.36,8.03 9.88,16.51 13.57,25.49 3.7,8.92 6.51,18.1 8.42,27.6 1.85,9.49 2.8,19.05 2.8,28.74 0,9.62 -0.95,19.24 -2.8,28.67 -1.91,9.5 -4.72,18.74 -8.42,27.66 -3.69,8.92 -8.21,17.4 -13.57,25.43 -5.35,8.02 -11.47,15.48 -18.29,22.36zm0 0z"/>
   <g>
   </g>
   <g style="clip-path:url(#id0)">
    <g>
     <path class="fil0" d="M1928.67 2939.94c-0.45,-2.49 -0.51,-4.97 -0.13,-7.46 0.32,-4.08 0.64,-8.35 -1.46,-11.98 -2.11,-3.63 -6,-5.48 -9.76,-7.26 -2.29,-0.89 -4.39,-2.17 -6.24,-3.76 -1.59,-1.85 -2.87,-3.95 -3.76,-6.25 -1.78,-3.76 -3.63,-7.64 -7.33,-9.81 -3.57,-2.11 -7.84,-1.72 -11.92,-1.4 -2.48,0.38 -4.97,0.32 -7.45,-0.13 -2.29,-0.83 -4.33,-1.98 -6.25,-3.51 -3.25,-2.23 -7.01,-4.84 -11.34,-4.84 -4.33,0 -8.09,2.61 -11.34,4.84 -1.91,1.53 -4.02,2.68 -6.25,3.51 -2.49,0.45 -4.97,0.51 -7.45,0.13 -4.08,-0.32 -8.35,-0.64 -11.98,1.46 -3.64,2.11 -5.48,5.99 -7.27,9.75 -0.89,2.3 -2.17,4.4 -3.76,6.25 -1.91,1.59 -4.01,2.87 -6.31,3.76 -3.76,1.78 -7.58,3.63 -9.75,7.32 -2.1,3.57 -1.72,7.84 -1.4,11.92 0.38,2.49 0.32,4.97 -0.13,7.46 -0.83,2.29 -1.97,4.33 -3.5,6.24 -2.3,3.25 -4.85,7.01 -4.85,11.35 0,4.33 2.55,8.09 4.85,11.34 1.53,1.91 2.67,3.95 3.5,6.25 0.45,2.48 0.51,4.97 0.13,7.45 -0.32,4.08 -0.7,8.35 1.4,11.98 2.17,3.64 6.05,5.48 9.75,7.27 2.36,0.89 4.4,2.16 6.31,3.76 1.59,1.91 2.87,3.95 3.76,6.31 1.79,3.69 3.63,7.58 7.27,9.75 3.63,2.1 7.9,1.72 11.98,1.4 2.48,-0.38 4.96,-0.32 7.45,0.13 2.3,0.82 4.34,1.97 6.25,3.5 3.25,2.3 7.01,4.84 11.34,4.84 4.33,0 8.09,-2.54 11.34,-4.84 1.92,-1.53 3.96,-2.68 6.25,-3.5 2.48,-0.45 4.97,-0.51 7.45,-0.13 4.08,0.32 8.35,0.7 11.99,-1.4 3.63,-2.17 5.48,-6.06 7.26,-9.75 0.89,-2.36 2.17,-4.4 3.76,-6.31 1.91,-1.6 3.95,-2.87 6.31,-3.76 3.69,-1.79 7.58,-3.63 9.75,-7.27 2.1,-3.63 1.72,-7.9 1.4,-11.98 -0.38,-2.48 -0.32,-4.97 0.13,-7.45 0.83,-2.3 1.97,-4.34 3.5,-6.25 2.3,-3.25 4.85,-7.01 4.85,-11.34 0,-4.34 -2.55,-8.1 -4.85,-11.35 -1.53,-1.91 -2.67,-3.95 -3.5,-6.24zm-1.08 25.81c-1.92,2.36 -3.32,5.03 -4.27,7.96 -0.64,3.06 -0.77,6.19 -0.32,9.31 0.25,3.38 0.57,6.62 -0.7,8.73 -1.28,2.17 -4.21,3.57 -7.33,5.03 -2.87,1.22 -5.48,2.81 -7.84,4.85 -2.04,2.35 -3.7,4.97 -4.84,7.83 -1.47,3.13 -2.87,6.12 -5.04,7.33 -2.1,1.28 -5.35,1.02 -8.73,0.7 -3.12,-0.44 -6.24,-0.31 -9.37,0.32 -2.86,0.96 -5.54,2.42 -7.96,4.27 -2.87,2.04 -5.55,3.89 -8.16,3.89 -2.61,0 -5.35,-1.85 -8.22,-3.89 -2.36,-1.85 -5.03,-3.31 -7.97,-4.27 -1.53,-0.38 -3.05,-0.57 -4.65,-0.57 -1.59,0 -3.12,0.13 -4.65,0.25 -3.38,0.32 -6.63,0.58 -8.73,-0.7 -2.17,-1.21 -3.57,-4.2 -5.03,-7.33 -1.21,-2.86 -2.81,-5.48 -4.85,-7.83 -2.36,-2.04 -4.97,-3.63 -7.84,-4.85 -3.12,-1.46 -6.12,-2.86 -7.32,-5.03 -1.28,-2.11 -1.02,-5.35 -0.71,-8.73 0.39,-3.12 0.32,-6.25 -0.31,-9.31 -0.96,-2.93 -2.43,-5.6 -4.27,-7.96 -2.04,-2.87 -3.89,-5.61 -3.89,-8.22 0,-2.62 1.85,-5.35 3.89,-8.23 1.84,-2.35 3.31,-5.03 4.27,-7.89 0.63,-3.13 0.7,-6.25 0.31,-9.37 -0.31,-3.38 -0.57,-6.63 0.71,-8.73 1.2,-2.17 4.2,-3.57 7.32,-5.04 2.87,-1.15 5.48,-2.8 7.84,-4.84 2.04,-2.36 3.64,-4.97 4.85,-7.84 1.46,-3.12 2.86,-6.12 5.03,-7.33 2.1,-1.27 5.35,-1.02 8.73,-0.7 3.12,0.45 6.25,0.32 9.3,-0.32 2.94,-0.95 5.61,-2.42 7.97,-4.27 2.87,-2.03 5.61,-3.88 8.22,-3.88 2.61,0 5.29,1.85 8.16,3.88 2.42,1.85 5.1,3.32 7.96,4.27 3.13,0.64 6.25,0.77 9.37,0.32 3.38,-0.25 6.63,-0.57 8.73,0.7 2.17,1.28 3.57,4.21 5.04,7.33 1.14,2.87 2.8,5.48 4.84,7.84 2.36,2.04 4.97,3.69 7.84,4.84 3.12,1.47 6.05,2.87 7.33,5.04 1.27,2.1 0.95,5.35 0.7,8.73 -0.45,3.12 -0.32,6.24 0.32,9.37 0.95,2.86 2.42,5.54 4.27,7.89 1.97,2.94 3.88,5.61 3.88,8.23 0,2.61 -1.91,5.35 -3.88,8.22zm0 0z"/>
    </g>
   </g>
   <path class="fil1" d="M1789.11 2883.61l146.82 0 0 146.82 -146.82 0 0 -146.82zm0 0z"/>
   <path class="fil0" d="M1863.03 2906.35c-6.82,0 -13.32,1.28 -19.63,3.89 -6.24,2.62 -11.78,6.31 -16.57,11.09 -4.84,4.78 -8.54,10.32 -11.09,16.64 -2.61,6.24 -3.88,12.8 -3.88,19.56 0,6.82 1.27,13.32 3.88,19.62 2.55,6.25 6.25,11.8 11.09,16.57 4.79,4.78 10.33,8.54 16.57,11.09 6.31,2.61 12.81,3.89 19.63,3.89 6.76,0 13.32,-1.28 19.57,-3.89 6.3,-2.55 11.85,-6.31 16.63,-11.09 4.78,-4.77 8.47,-10.32 11.08,-16.63 2.62,-6.24 3.89,-12.74 3.89,-19.56 0,-6.76 -1.27,-13.32 -3.89,-19.56 -2.61,-6.32 -6.3,-11.8 -11.08,-16.64 -4.85,-4.78 -10.33,-8.47 -16.63,-11.09 -6.25,-2.61 -12.81,-3.89 -19.57,-3.89zm0 96.87c-6.05,0 -11.92,-1.21 -17.46,-3.5 -5.61,-2.3 -10.58,-5.61 -14.85,-9.88 -4.27,-4.27 -7.58,-9.24 -9.87,-14.85 -2.3,-5.61 -3.51,-11.41 -3.51,-17.46 0,-6.06 1.21,-11.86 3.51,-17.46 2.29,-5.61 5.6,-10.52 9.87,-14.85 4.27,-4.27 9.24,-7.52 14.85,-9.88 5.54,-2.3 11.41,-3.44 17.46,-3.44 6.05,0 11.85,1.14 17.46,3.44 5.61,2.3 10.52,5.61 14.79,9.88 4.33,4.33 7.58,9.24 9.94,14.85 2.29,5.6 3.44,11.4 3.44,17.46 0,6.05 -1.15,11.85 -3.44,17.46 -2.36,5.61 -5.68,10.51 -9.94,14.78 -4.27,4.34 -9.18,7.59 -14.79,9.95 -5.61,2.29 -11.41,3.44 -17.46,3.5zm0 0z"/>
   <path class="fil0" d="M1886.23 2933.89c-2.49,0 -4.66,0.89 -6.44,2.67l-22.62 22.62 -10.9 -10.89c-1.78,-1.85 -3.95,-2.74 -6.5,-2.74 -2.49,0 -4.65,0.89 -6.43,2.67 -1.79,1.79 -2.68,3.96 -2.68,6.44 0,2.55 0.96,4.72 2.74,6.5l17.33 17.33c1.79,1.79 3.95,2.68 6.44,2.68 2.55,0 4.65,-0.89 6.43,-2.68l29.06 -29.06c2.87,-2.86 3.51,-6.18 1.98,-9.94 -1.53,-3.69 -4.34,-5.6 -8.41,-5.6zm2.55 11.66l-29.06 29.06c-1.72,1.59 -3.38,1.59 -5.04,0l-17.4 -17.4c-1.65,-1.66 -1.65,-3.38 0,-5.03 1.66,-1.66 3.38,-1.66 5.04,0l12.87 12.87c1.34,1.34 2.61,1.34 3.95,0l24.6 -24.6c1.66,-1.6 3.31,-1.6 5.04,0 1.65,1.72 1.65,3.38 0,5.1zm0 0z"/>
  </g>
 </g>
</svg>
