<svg xmlns="http://www.w3.org/2000/svg" xmlns:xlink="http://www.w3.org/1999/xlink" width="500" zoomAndPan="magnify" viewBox="0 0 375 374.999991" height="500" preserveAspectRatio="xMidYMid meet" version="1.0"><defs><clipPath id="326f2f7bf5"><path d="M 175 254 L 375 254 L 375 365.90625 L 175 365.90625 Z M 175 254 " clip-rule="nonzero"/></clipPath><clipPath id="d42df53ceb"><path d="M 110 160 L 113.523438 160 L 113.523438 162 L 110 162 Z M 110 160 " clip-rule="nonzero"/></clipPath><clipPath id="e94911a053"><path d="M 107.523438 158 L 110 158 L 110 162 L 107.523438 162 Z M 107.523438 158 " clip-rule="nonzero"/></clipPath><clipPath id="2ceeff8458"><path d="M 109 156.105469 L 113 156.105469 L 113 159 L 109 159 Z M 109 156.105469 " clip-rule="nonzero"/></clipPath><clipPath id="5c8cd5b5f1"><path d="M 111 158 L 113.523438 158 L 113.523438 161 L 111 161 Z M 111 158 " clip-rule="nonzero"/></clipPath><clipPath id="fd2f5fa1af"><path d="M 107.523438 160 L 111 160 L 111 162 L 107.523438 162 Z M 107.523438 160 " clip-rule="nonzero"/></clipPath><clipPath id="85030f98aa"><path d="M 108 156.105469 L 111 156.105469 L 111 159 L 108 159 Z M 108 156.105469 " clip-rule="nonzero"/></clipPath></defs><g clip-path="url(#326f2f7bf5)"><path fill="#2576cc" d="M 363.769531 267.570312 L 366.015625 266.273438 L 359.941406 255.742188 C 359.402344 254.808594 358.339844 254.304688 357.273438 254.484375 C 356.203125 254.65625 355.359375 255.472656 355.148438 256.535156 C 354.472656 259.921875 353.25 262.851562 351.613281 265.433594 C 348.761719 269.945312 344.605469 273.421875 339.878906 276.082031 C 332.792969 280.078125 324.453125 282.175781 317.917969 283.226562 C 314.648438 283.75 311.832031 284.019531 309.84375 284.15625 C 308.847656 284.226562 308.0625 284.261719 307.53125 284.28125 C 307.265625 284.289062 307.0625 284.292969 306.929688 284.300781 L 306.78125 284.304688 L 306.746094 284.304688 L 306.757812 284.304688 L 217.617188 284.304688 L 217.617188 271.570312 C 217.617188 270.472656 216.929688 269.492188 215.894531 269.128906 C 214.863281 268.757812 213.707031 269.082031 213.015625 269.933594 L 175.761719 315.679688 C 174.988281 316.632812 174.988281 318 175.761719 318.953125 L 213.015625 364.695312 C 213.707031 365.546875 214.863281 365.867188 215.894531 365.5 C 216.929688 365.132812 217.617188 364.152344 217.617188 363.058594 L 217.617188 348.535156 L 318.523438 348.535156 C 329.46875 348.535156 339.511719 346.195312 348.035156 341.753906 C 356.5625 337.320312 363.558594 330.765625 368.351562 322.460938 C 372.761719 314.828125 374.957031 306.324219 374.953125 297.550781 C 374.953125 287.21875 371.929688 276.515625 366.015625 266.273438 L 363.769531 267.570312 L 361.519531 268.867188 C 367.039062 278.425781 369.765625 288.238281 369.765625 297.550781 C 369.761719 305.464844 367.804688 313.027344 363.859375 319.867188 C 359.5625 327.300781 353.347656 333.136719 345.640625 337.152344 C 337.933594 341.164062 328.734375 343.34375 318.523438 343.34375 L 215.023438 343.34375 C 214.34375 343.34375 213.675781 343.621094 213.191406 344.105469 C 212.710938 344.585938 212.429688 345.253906 212.429688 345.941406 L 212.429688 355.761719 L 181.121094 317.316406 L 212.429688 278.863281 L 212.429688 286.898438 C 212.429688 287.578125 212.710938 288.246094 213.191406 288.730469 C 213.675781 289.214844 214.34375 289.492188 215.023438 289.492188 L 306.773438 289.492188 C 306.921875 289.484375 318.363281 289.429688 330.785156 285.542969 C 337 283.589844 343.476562 280.675781 348.894531 276.1875 C 351.601562 273.945312 354.039062 271.308594 356 268.207031 C 357.957031 265.109375 359.4375 261.558594 360.238281 257.550781 L 357.695312 257.039062 L 355.445312 258.335938 L 361.519531 268.867188 L 363.769531 267.570312 " fill-opacity="1" fill-rule="nonzero"/></g><path fill="#2576cc" d="M 130.957031 213.414062 L 133.375 212.480469 L 112.144531 157.449219 C 111.703125 156.300781 110.515625 155.621094 109.304688 155.824219 L 51.113281 165.464844 C 50.027344 165.644531 49.175781 166.488281 48.980469 167.566406 C 48.789062 168.644531 49.296875 169.734375 50.25 170.277344 L 60.835938 176.328125 L 8.90625 266.273438 C 2.992188 276.515625 -0.03125 287.21875 -0.0351562 297.550781 C -0.0351562 306.324219 2.160156 314.828125 6.566406 322.460938 C 11.070312 330.261719 17.527344 336.488281 25.359375 340.863281 C 33.195312 345.242188 42.402344 347.78125 52.445312 348.316406 C 53.238281 348.359375 54.023438 348.027344 54.542969 347.429688 C 55.0625 346.824219 55.28125 346.003906 55.128906 345.226562 C 54.414062 341.613281 54.101562 338.03125 54.101562 334.527344 C 54.09375 322.042969 58.117188 310.476562 62.171875 302.054688 C 64.199219 297.847656 66.230469 294.429688 67.746094 292.074219 C 68.503906 290.898438 69.128906 289.984375 69.5625 289.378906 C 69.78125 289.074219 69.949219 288.84375 70.058594 288.691406 L 70.1875 288.527344 L 70.214844 288.488281 L 70.21875 288.480469 L 70.414062 288.195312 L 116.585938 208.21875 L 129.671875 215.667969 C 130.625 216.210938 131.816406 216.09375 132.648438 215.382812 C 133.476562 214.664062 133.769531 213.503906 133.375 212.480469 L 130.957031 213.414062 L 132.238281 211.160156 L 116.914062 202.433594 C 115.675781 201.730469 114.097656 202.160156 113.386719 203.390625 L 65.917969 285.601562 L 68.167969 286.898438 L 66.113281 285.308594 C 66.035156 285.410156 61.777344 290.929688 57.5 299.804688 C 53.230469 308.679688 48.917969 320.929688 48.914062 334.527344 C 48.914062 338.339844 49.253906 342.261719 50.039062 346.226562 L 52.582031 345.726562 L 52.71875 343.136719 C 43.378906 342.636719 34.960938 340.28125 27.894531 336.335938 C 20.820312 332.378906 15.089844 326.839844 11.0625 319.867188 C 7.113281 313.027344 5.15625 305.464844 5.15625 297.550781 C 5.152344 288.234375 7.878906 278.425781 13.394531 268.867188 L 66.632812 176.664062 C 66.976562 176.066406 67.070312 175.359375 66.890625 174.691406 C 66.707031 174.023438 66.273438 173.457031 65.671875 173.113281 L 59.152344 169.390625 L 108.066406 161.285156 L 128.535156 214.347656 L 130.957031 213.414062 L 132.238281 211.160156 L 130.957031 213.414062 " fill-opacity="1" fill-rule="nonzero"/><path fill="#2576cc" d="M 283.386719 128.347656 L 285.636719 127.050781 L 234.949219 39.265625 C 229.484375 29.785156 222.433594 22.257812 214.328125 17.089844 C 206.226562 11.925781 197.046875 9.140625 187.457031 9.140625 C 177.867188 9.140625 168.695312 11.925781 160.59375 17.089844 C 152.484375 22.257812 145.4375 29.785156 139.972656 39.265625 L 135.273438 47.390625 C 134.71875 48.347656 134.832031 49.539062 135.546875 50.378906 C 136.269531 51.21875 137.429688 51.503906 138.457031 51.105469 C 141.105469 50.078125 143.667969 49.628906 146.183594 49.628906 C 151.257812 49.625 156.234375 51.480469 160.894531 54.417969 C 167.886719 58.816406 174.035156 65.621094 178.363281 71.324219 C 180.527344 74.175781 182.246094 76.746094 183.417969 78.59375 C 184 79.515625 184.449219 80.257812 184.75 80.769531 C 184.902344 81.019531 185.015625 81.214844 185.085938 81.34375 L 185.167969 81.488281 L 185.183594 81.523438 L 185.1875 81.527344 L 185.214844 81.566406 L 228.8125 157.089844 L 217.347656 163.761719 C 216.398438 164.316406 215.898438 165.40625 216.101562 166.484375 C 216.304688 167.5625 217.164062 168.394531 218.246094 168.566406 L 276.507812 177.777344 C 277.71875 177.964844 278.902344 177.28125 279.339844 176.128906 L 300.152344 120.921875 C 300.539062 119.894531 300.242188 118.734375 299.402344 118.027344 C 298.5625 117.316406 297.371094 117.210938 296.421875 117.761719 L 282.085938 126.105469 L 283.386719 128.347656 L 285.636719 127.050781 L 283.386719 128.347656 L 284.691406 130.589844 L 292.726562 125.917969 L 275.230469 172.320312 L 226.261719 164.582031 L 233.65625 160.277344 C 234.898438 159.554688 235.320312 157.980469 234.601562 156.738281 L 189.703125 78.972656 L 187.457031 80.269531 L 189.726562 79.015625 C 189.667969 78.914062 185 70.46875 177.324219 61.917969 C 173.484375 57.640625 168.886719 53.328125 163.660156 50.035156 C 158.441406 46.742188 152.542969 44.441406 146.183594 44.441406 C 143.042969 44.4375 139.808594 45.011719 136.574219 46.273438 L 137.519531 48.6875 L 139.765625 49.988281 L 144.460938 41.859375 C 149.566406 33.015625 156.054688 26.132812 163.378906 21.464844 C 170.710938 16.800781 178.871094 14.332031 187.457031 14.332031 C 196.046875 14.332031 204.210938 16.800781 211.539062 21.464844 C 218.867188 26.132812 225.355469 33.015625 230.460938 41.859375 L 281.140625 129.644531 C 281.488281 130.242188 282.054688 130.675781 282.722656 130.855469 C 283.390625 131.035156 284.09375 130.9375 284.691406 130.589844 L 283.386719 128.347656 " fill-opacity="1" fill-rule="nonzero"/><path fill="#2576cc" d="M 357.691406 257.050781 L 359.941406 255.75 L 313.617188 175.507812 C 312.898438 174.269531 311.3125 173.84375 310.074219 174.5625 L 258.941406 204.082031 C 258.351562 204.421875 257.90625 204.996094 257.734375 205.65625 C 257.554688 206.3125 257.648438 207.03125 257.992188 207.625 L 304.511719 288.195312 C 304.984375 289 305.835938 289.496094 306.773438 289.492188 C 306.921875 289.484375 318.363281 289.429688 330.785156 285.542969 C 336.996094 283.589844 343.476562 280.675781 348.890625 276.191406 C 351.597656 273.949219 354.035156 271.3125 355.996094 268.210938 C 357.957031 265.117188 359.4375 261.5625 360.238281 257.554688 C 360.359375 256.933594 360.257812 256.296875 359.941406 255.75 L 357.691406 257.050781 L 355.148438 256.539062 C 354.46875 259.925781 353.25 262.855469 351.613281 265.4375 C 348.757812 269.949219 344.605469 273.425781 339.878906 276.082031 C 332.792969 280.078125 324.449219 282.175781 317.917969 283.226562 C 314.648438 283.75 311.832031 284.023438 309.84375 284.15625 C 308.847656 284.226562 308.0625 284.261719 307.53125 284.28125 C 307.265625 284.289062 307.0625 284.292969 306.929688 284.300781 L 306.78125 284.304688 L 306.746094 284.304688 L 306.757812 286.898438 L 309.007812 285.601562 L 263.78125 207.273438 L 310.417969 180.347656 L 355.445312 258.34375 L 357.691406 257.050781 L 355.148438 256.539062 L 357.691406 257.050781 " fill-opacity="1" fill-rule="nonzero"/><path fill="#2576cc" d="M 68.167969 286.898438 L 66.113281 285.308594 C 66.035156 285.410156 61.777344 290.929688 57.5 299.804688 C 53.230469 308.679688 48.921875 320.929688 48.914062 334.527344 C 48.914062 338.339844 49.253906 342.261719 50.039062 346.226562 L 52.582031 345.726562 L 52.71875 343.136719 C 39.871094 342.445312 28.792969 338.265625 20.527344 331.226562 C 19.433594 330.300781 17.800781 330.429688 16.875 331.519531 C 15.941406 332.609375 16.070312 334.242188 17.15625 335.175781 C 27.261719 343.832031 40.929688 348.535156 56.394531 348.535156 L 162.777344 348.535156 C 163.460938 348.535156 164.128906 348.253906 164.609375 347.773438 C 165.09375 347.289062 165.367188 346.621094 165.367188 345.941406 L 165.367188 286.898438 C 165.367188 286.210938 165.09375 285.542969 164.609375 285.0625 C 164.128906 284.578125 163.460938 284.304688 162.777344 284.304688 L 68.167969 284.304688 C 67.359375 284.304688 66.605469 284.671875 66.113281 285.308594 L 68.167969 286.898438 L 68.167969 289.492188 L 160.179688 289.492188 L 160.179688 343.34375 L 56.394531 343.34375 C 41.964844 343.34375 29.578125 338.980469 20.535156 331.234375 C 20.007812 330.78125 19.335938 330.5625 18.644531 330.621094 C 17.953125 330.671875 17.324219 330.992188 16.875 331.519531 C 16.421875 332.046875 16.203125 332.71875 16.261719 333.40625 C 16.3125 334.101562 16.636719 334.730469 17.164062 335.179688 C 26.410156 343.050781 38.640625 347.582031 52.445312 348.316406 C 53.238281 348.359375 54.023438 348.027344 54.542969 347.429688 C 55.0625 346.824219 55.28125 346.003906 55.128906 345.226562 C 54.414062 341.613281 54.101562 338.03125 54.101562 334.527344 C 54.09375 322.042969 58.117188 310.476562 62.171875 302.054688 C 64.199219 297.847656 66.230469 294.429688 67.746094 292.074219 C 68.503906 290.898438 69.128906 289.984375 69.5625 289.378906 C 69.78125 289.074219 69.949219 288.84375 70.058594 288.691406 L 70.1875 288.527344 L 70.214844 288.488281 L 70.21875 288.480469 L 68.167969 286.898438 L 68.167969 289.492188 L 68.167969 286.898438 " fill-opacity="1" fill-rule="nonzero"/><path fill="#2576cc" d="M 137.527344 48.6875 L 135.28125 47.390625 L 86.027344 132.707031 C 85.308594 133.949219 85.734375 135.535156 86.972656 136.25 L 138.097656 165.769531 C 138.699219 166.117188 139.394531 166.207031 140.0625 166.027344 C 140.734375 165.851562 141.296875 165.421875 141.640625 164.820312 L 189.703125 81.566406 C 190.164062 80.78125 190.171875 79.808594 189.726562 79.015625 C 189.667969 78.914062 185 70.46875 177.324219 61.917969 C 173.484375 57.644531 168.886719 53.332031 163.660156 50.035156 C 158.445312 46.742188 152.542969 44.441406 146.1875 44.441406 C 143.046875 44.4375 139.816406 45.007812 136.585938 46.269531 C 136.035156 46.484375 135.574219 46.878906 135.28125 47.390625 L 137.527344 48.6875 L 138.46875 51.101562 C 141.109375 50.074219 143.671875 49.628906 146.1875 49.628906 C 151.257812 49.625 156.234375 51.480469 160.894531 54.417969 C 167.886719 58.816406 174.035156 65.621094 178.363281 71.324219 C 180.527344 74.175781 182.246094 76.746094 183.417969 78.59375 C 184 79.515625 184.449219 80.257812 184.75 80.769531 C 184.902344 81.019531 185.015625 81.214844 185.085938 81.34375 L 185.167969 81.488281 L 185.183594 81.523438 L 185.1875 81.527344 L 187.457031 80.269531 L 185.214844 78.972656 L 138.441406 159.980469 L 91.8125 133.054688 L 139.773438 49.984375 L 137.527344 48.6875 L 138.46875 51.101562 L 137.527344 48.6875 " fill-opacity="1" fill-rule="nonzero"/><g clip-path="url(#d42df53ceb)"><path fill="#2576cc" d="M 113.332031 160.238281 L 113.367188 160.214844 L 113.273438 160.046875 C 113.261719 160.03125 113.246094 160.023438 113.230469 160.027344 C 113.210938 160.03125 113.199219 160.042969 113.195312 160.058594 C 113.183594 160.113281 113.164062 160.160156 113.140625 160.203125 C 113.09375 160.273438 113.027344 160.332031 112.953125 160.371094 C 112.839844 160.4375 112.707031 160.46875 112.601562 160.488281 C 112.550781 160.496094 112.503906 160.5 112.472656 160.5 C 112.457031 160.503906 112.445312 160.503906 112.433594 160.503906 C 112.429688 160.503906 112.425781 160.503906 112.425781 160.503906 L 111 160.503906 L 111 160.300781 C 111 160.28125 110.988281 160.265625 110.972656 160.261719 C 110.957031 160.253906 110.9375 160.261719 110.925781 160.273438 L 110.332031 161.003906 C 110.320312 161.019531 110.320312 161.042969 110.332031 161.058594 L 110.925781 161.789062 C 110.9375 161.800781 110.957031 161.804688 110.972656 161.800781 C 110.988281 161.792969 111 161.777344 111 161.761719 L 111 161.53125 L 112.609375 161.53125 C 112.785156 161.53125 112.945312 161.492188 113.082031 161.421875 C 113.21875 161.351562 113.328125 161.246094 113.40625 161.113281 C 113.476562 160.992188 113.511719 160.855469 113.511719 160.714844 C 113.511719 160.550781 113.464844 160.378906 113.367188 160.214844 L 113.332031 160.238281 L 113.296875 160.257812 C 113.386719 160.410156 113.429688 160.566406 113.429688 160.714844 C 113.429688 160.84375 113.398438 160.960938 113.335938 161.070312 C 113.265625 161.191406 113.167969 161.285156 113.042969 161.347656 C 112.921875 161.410156 112.773438 161.445312 112.609375 161.445312 L 110.957031 161.445312 C 110.945312 161.445312 110.9375 161.449219 110.929688 161.457031 C 110.921875 161.464844 110.917969 161.476562 110.917969 161.488281 L 110.917969 161.644531 L 110.417969 161.03125 L 110.917969 160.417969 L 110.917969 160.546875 C 110.917969 160.554688 110.921875 160.566406 110.929688 160.574219 C 110.9375 160.582031 110.945312 160.585938 110.957031 160.585938 L 112.421875 160.585938 C 112.425781 160.585938 112.609375 160.585938 112.804688 160.523438 C 112.90625 160.492188 113.007812 160.445312 113.097656 160.375 C 113.140625 160.339844 113.179688 160.296875 113.210938 160.246094 C 113.242188 160.199219 113.265625 160.140625 113.277344 160.078125 L 113.234375 160.070312 L 113.199219 160.089844 L 113.296875 160.257812 L 113.332031 160.238281 " fill-opacity="1" fill-rule="nonzero"/></g><g clip-path="url(#e94911a053)"><path fill="#2576cc" d="M 109.617188 159.371094 L 109.652344 159.355469 L 109.316406 158.476562 C 109.308594 158.460938 109.289062 158.449219 109.269531 158.453125 L 108.339844 158.605469 C 108.324219 158.609375 108.308594 158.621094 108.304688 158.640625 C 108.304688 158.65625 108.3125 158.675781 108.328125 158.683594 L 108.496094 158.78125 L 107.667969 160.214844 C 107.570312 160.378906 107.523438 160.550781 107.523438 160.714844 C 107.523438 160.855469 107.558594 160.992188 107.628906 161.113281 C 107.699219 161.238281 107.804688 161.335938 107.929688 161.40625 C 108.054688 161.476562 108.203125 161.515625 108.363281 161.527344 C 108.375 161.527344 108.386719 161.523438 108.394531 161.511719 C 108.402344 161.503906 108.40625 161.488281 108.40625 161.476562 C 108.394531 161.417969 108.386719 161.363281 108.386719 161.304688 C 108.386719 161.105469 108.453125 160.921875 108.515625 160.789062 C 108.550781 160.71875 108.582031 160.664062 108.605469 160.628906 C 108.617188 160.609375 108.628906 160.59375 108.636719 160.585938 C 108.636719 160.578125 108.640625 160.578125 108.644531 160.574219 L 108.644531 160.570312 L 108.648438 160.566406 L 109.386719 159.289062 L 109.59375 159.40625 C 109.609375 159.417969 109.628906 159.414062 109.640625 159.402344 C 109.65625 159.390625 109.660156 159.375 109.652344 159.355469 L 109.617188 159.371094 L 109.636719 159.335938 L 109.390625 159.195312 C 109.371094 159.183594 109.347656 159.191406 109.335938 159.210938 L 108.578125 160.523438 L 108.613281 160.546875 L 108.578125 160.519531 C 108.578125 160.523438 108.511719 160.609375 108.441406 160.75 C 108.375 160.894531 108.304688 161.089844 108.304688 161.304688 C 108.304688 161.367188 108.3125 161.429688 108.324219 161.492188 L 108.363281 161.484375 L 108.367188 161.445312 C 108.21875 161.433594 108.082031 161.398438 107.96875 161.335938 C 107.855469 161.273438 107.765625 161.183594 107.699219 161.070312 C 107.636719 160.960938 107.605469 160.84375 107.605469 160.714844 C 107.605469 160.566406 107.648438 160.410156 107.738281 160.257812 L 108.589844 158.785156 C 108.59375 158.777344 108.59375 158.765625 108.59375 158.753906 C 108.589844 158.742188 108.582031 158.734375 108.574219 158.726562 L 108.46875 158.667969 L 109.25 158.539062 L 109.578125 159.386719 L 109.617188 159.371094 L 109.636719 159.335938 L 109.617188 159.371094 " fill-opacity="1" fill-rule="nonzero"/></g><g clip-path="url(#2ceeff8458)"><path fill="#2576cc" d="M 112.050781 158.011719 L 112.085938 157.992188 L 111.277344 156.589844 C 111.1875 156.441406 111.078125 156.320312 110.945312 156.238281 C 110.816406 156.15625 110.671875 156.109375 110.519531 156.109375 C 110.363281 156.109375 110.21875 156.15625 110.089844 156.238281 C 109.960938 156.320312 109.847656 156.441406 109.757812 156.589844 L 109.683594 156.71875 C 109.675781 156.734375 109.675781 156.753906 109.6875 156.769531 C 109.699219 156.78125 109.71875 156.785156 109.734375 156.78125 C 109.777344 156.761719 109.820312 156.757812 109.859375 156.757812 C 109.941406 156.757812 110.019531 156.785156 110.09375 156.832031 C 110.207031 156.902344 110.304688 157.011719 110.371094 157.101562 C 110.40625 157.148438 110.433594 157.1875 110.453125 157.21875 C 110.460938 157.234375 110.46875 157.246094 110.472656 157.253906 C 110.476562 157.257812 110.480469 157.261719 110.480469 157.261719 L 110.480469 157.265625 L 111.179688 158.472656 L 110.996094 158.578125 C 110.980469 158.585938 110.972656 158.605469 110.976562 158.621094 C 110.976562 158.640625 110.992188 158.652344 111.007812 158.65625 L 111.941406 158.804688 C 111.960938 158.804688 111.976562 158.792969 111.984375 158.777344 L 112.316406 157.894531 C 112.324219 157.878906 112.320312 157.859375 112.304688 157.847656 C 112.292969 157.835938 112.273438 157.835938 112.257812 157.84375 L 112.027344 157.976562 L 112.050781 158.011719 L 112.085938 157.992188 L 112.050781 158.011719 L 112.070312 158.050781 L 112.199219 157.976562 L 111.917969 158.714844 L 111.136719 158.59375 L 111.253906 158.523438 C 111.273438 158.511719 111.28125 158.488281 111.269531 158.46875 L 110.554688 157.226562 L 110.519531 157.246094 L 110.554688 157.226562 C 110.554688 157.222656 110.476562 157.089844 110.355469 156.953125 C 110.292969 156.882812 110.222656 156.816406 110.136719 156.761719 C 110.054688 156.710938 109.960938 156.671875 109.859375 156.671875 C 109.808594 156.671875 109.757812 156.683594 109.707031 156.703125 L 109.71875 156.742188 L 109.757812 156.761719 L 109.832031 156.632812 C 109.914062 156.492188 110.015625 156.382812 110.132812 156.308594 C 110.25 156.230469 110.378906 156.191406 110.519531 156.191406 C 110.65625 156.191406 110.785156 156.230469 110.902344 156.308594 C 111.019531 156.382812 111.121094 156.492188 111.203125 156.632812 L 112.015625 158.035156 C 112.019531 158.042969 112.027344 158.050781 112.039062 158.054688 C 112.050781 158.054688 112.0625 158.054688 112.070312 158.050781 L 112.050781 158.011719 " fill-opacity="1" fill-rule="nonzero"/></g><g clip-path="url(#5c8cd5b5f1)"><path fill="#2576cc" d="M 113.234375 160.070312 L 113.273438 160.046875 L 112.53125 158.765625 C 112.519531 158.746094 112.496094 158.738281 112.476562 158.75 L 111.660156 159.222656 C 111.648438 159.226562 111.644531 159.238281 111.640625 159.246094 C 111.636719 159.257812 111.636719 159.269531 111.644531 159.28125 L 112.386719 160.566406 C 112.394531 160.578125 112.40625 160.585938 112.421875 160.585938 C 112.425781 160.585938 112.609375 160.585938 112.804688 160.523438 C 112.90625 160.492188 113.007812 160.445312 113.09375 160.375 C 113.140625 160.339844 113.179688 160.296875 113.210938 160.246094 C 113.242188 160.199219 113.265625 160.140625 113.277344 160.078125 C 113.277344 160.066406 113.277344 160.054688 113.273438 160.046875 L 113.234375 160.070312 L 113.195312 160.058594 C 113.183594 160.113281 113.164062 160.160156 113.140625 160.203125 C 113.09375 160.273438 113.027344 160.332031 112.953125 160.371094 C 112.839844 160.4375 112.707031 160.46875 112.601562 160.488281 C 112.550781 160.496094 112.503906 160.5 112.472656 160.5 C 112.457031 160.503906 112.445312 160.503906 112.433594 160.503906 C 112.429688 160.503906 112.425781 160.503906 112.425781 160.503906 L 112.421875 160.503906 L 112.421875 160.546875 L 112.457031 160.523438 L 111.738281 159.273438 L 112.480469 158.84375 L 113.199219 160.089844 L 113.234375 160.070312 L 113.195312 160.058594 L 113.234375 160.070312 " fill-opacity="1" fill-rule="nonzero"/></g><g clip-path="url(#fd2f5fa1af)"><path fill="#2576cc" d="M 108.613281 160.546875 L 108.578125 160.519531 C 108.578125 160.523438 108.511719 160.609375 108.441406 160.75 C 108.375 160.894531 108.304688 161.089844 108.304688 161.304688 C 108.304688 161.367188 108.3125 161.429688 108.324219 161.492188 L 108.363281 161.484375 L 108.367188 161.445312 C 108.160156 161.433594 107.984375 161.367188 107.851562 161.253906 C 107.835938 161.238281 107.808594 161.242188 107.792969 161.257812 C 107.777344 161.273438 107.78125 161.300781 107.796875 161.316406 C 107.960938 161.453125 108.179688 161.53125 108.425781 161.53125 L 110.125 161.53125 C 110.132812 161.53125 110.144531 161.523438 110.152344 161.515625 C 110.160156 161.507812 110.164062 161.5 110.164062 161.488281 L 110.164062 160.546875 C 110.164062 160.535156 110.160156 160.523438 110.152344 160.515625 C 110.144531 160.507812 110.132812 160.503906 110.125 160.503906 L 108.613281 160.503906 C 108.601562 160.503906 108.589844 160.511719 108.578125 160.519531 L 108.613281 160.546875 L 108.613281 160.585938 L 110.082031 160.585938 L 110.082031 161.445312 L 108.425781 161.445312 C 108.195312 161.445312 107.996094 161.378906 107.851562 161.253906 C 107.84375 161.246094 107.832031 161.242188 107.820312 161.242188 C 107.8125 161.246094 107.800781 161.25 107.792969 161.257812 C 107.785156 161.265625 107.78125 161.277344 107.785156 161.289062 C 107.785156 161.300781 107.789062 161.308594 107.796875 161.316406 C 107.945312 161.441406 108.140625 161.515625 108.363281 161.527344 C 108.375 161.527344 108.386719 161.523438 108.394531 161.511719 C 108.402344 161.503906 108.40625 161.488281 108.40625 161.476562 C 108.394531 161.417969 108.386719 161.363281 108.386719 161.304688 C 108.386719 161.105469 108.453125 160.921875 108.515625 160.789062 C 108.550781 160.71875 108.582031 160.664062 108.605469 160.628906 C 108.617188 160.609375 108.628906 160.59375 108.636719 160.585938 C 108.636719 160.578125 108.640625 160.578125 108.644531 160.574219 L 108.644531 160.570312 L 108.613281 160.546875 L 108.613281 160.585938 L 108.613281 160.546875 " fill-opacity="1" fill-rule="nonzero"/></g><g clip-path="url(#85030f98aa)"><path fill="#2576cc" d="M 109.71875 156.742188 L 109.683594 156.71875 L 108.898438 158.082031 C 108.886719 158.101562 108.894531 158.128906 108.914062 158.140625 L 109.730469 158.609375 C 109.738281 158.617188 109.75 158.617188 109.761719 158.613281 C 109.773438 158.613281 109.78125 158.605469 109.785156 158.597656 L 110.554688 157.265625 C 110.5625 157.253906 110.5625 157.238281 110.554688 157.226562 C 110.554688 157.222656 110.476562 157.089844 110.355469 156.953125 C 110.292969 156.882812 110.222656 156.816406 110.136719 156.761719 C 110.054688 156.710938 109.960938 156.671875 109.859375 156.671875 C 109.808594 156.671875 109.757812 156.683594 109.707031 156.703125 C 109.695312 156.707031 109.6875 156.710938 109.683594 156.71875 L 109.71875 156.742188 L 109.734375 156.78125 C 109.777344 156.761719 109.820312 156.757812 109.859375 156.757812 C 109.941406 156.757812 110.019531 156.785156 110.09375 156.832031 C 110.207031 156.902344 110.304688 157.011719 110.371094 157.101562 C 110.40625 157.148438 110.433594 157.1875 110.453125 157.21875 C 110.460938 157.234375 110.46875 157.246094 110.472656 157.253906 C 110.476562 157.257812 110.480469 157.261719 110.480469 157.261719 L 110.480469 157.265625 L 110.519531 157.246094 L 110.480469 157.226562 L 109.734375 158.519531 L 108.992188 158.089844 L 109.757812 156.761719 L 109.71875 156.742188 L 109.734375 156.78125 L 109.71875 156.742188 " fill-opacity="1" fill-rule="nonzero"/></g></svg>