<svg xmlns="http://www.w3.org/2000/svg" xmlns:xlink="http://www.w3.org/1999/xlink" width="500" zoomAndPan="magnify" viewBox="0 0 375 374.999991" height="500" preserveAspectRatio="xMidYMid meet" version="1.0"><defs><clipPath id="14087656e1"><path d="M 58 0.460938 L 316.722656 0.460938 L 316.722656 317 L 58 317 Z M 58 0.460938 " clip-rule="nonzero"/></clipPath><clipPath id="79589d099b"><path d="M 144 345 L 231 345 L 231 374.710938 L 144 374.710938 Z M 144 345 " clip-rule="nonzero"/></clipPath><clipPath id="af961b125e"><path d="M 177.210938 176.757812 L 200.460938 176.757812 L 200.460938 205 L 177.210938 205 Z M 177.210938 176.757812 " clip-rule="nonzero"/></clipPath><clipPath id="2ca84f0e42"><path d="M 184 207 L 193 207 L 193 209.757812 L 184 209.757812 Z M 184 207 " clip-rule="nonzero"/></clipPath></defs><g clip-path="url(#14087656e1)"><path fill="#2576cc" d="M 187.496094 0.460938 C 116.457031 0.460938 58.007812 58.910156 58.007812 129.945312 C 57.953125 166.644531 73.6875 201.714844 101.171875 226.050781 C 110.332031 234.253906 115.558594 246 115.558594 258.253906 L 115.558594 302.597656 C 115.558594 310.519531 122.078125 316.984375 129.945312 316.984375 L 187.496094 316.984375 C 195.363281 316.984375 201.882812 310.519531 201.882812 302.597656 C 201.882812 294.671875 195.363281 288.207031 187.496094 288.207031 L 144.332031 288.207031 L 144.332031 258.253906 C 144.390625 237.796875 135.679688 218.292969 120.449219 204.636719 C 99.035156 185.753906 86.726562 158.496094 86.785156 129.945312 C 86.785156 129.890625 86.785156 129.890625 86.785156 129.890625 C 86.785156 74.644531 132.25 29.179688 187.496094 29.179688 C 242.742188 29.179688 288.207031 74.644531 288.207031 129.890625 C 288.207031 158.496094 276.011719 185.808594 254.65625 204.917969 C 239.539062 218.40625 230.828125 237.683594 230.65625 257.972656 C 230.65625 278.597656 230.65625 302.597656 230.65625 302.597656 C 230.65625 313.273438 240.378906 317.207031 245.269531 316.984375 C 249.992188 316.757812 259.433594 313.273438 259.433594 302.597656 C 259.433594 302.597656 259.433594 278.878906 259.433594 258.253906 C 259.488281 246.058594 264.714844 234.480469 273.820312 226.332031 C 301.191406 201.769531 316.871094 166.703125 316.871094 129.945312 C 316.871094 58.964844 258.476562 0.515625 187.496094 0.460938 " fill-opacity="1" fill-rule="nonzero"/></g><g clip-path="url(#79589d099b)"><path fill="#2576cc" d="M 216.269531 345.757812 L 158.722656 345.757812 C 150.851562 345.757812 144.332031 352.222656 144.332031 360.144531 C 144.332031 368.070312 150.851562 374.535156 158.722656 374.535156 L 216.269531 374.535156 C 224.140625 374.535156 230.65625 368.070312 230.65625 360.144531 C 230.65625 352.222656 224.140625 345.757812 216.269531 345.757812 " fill-opacity="1" fill-rule="nonzero"/></g><path fill="#2576cc" d="M 187.496094 259.433594 C 195.363281 259.433594 201.882812 252.914062 201.882812 245.046875 L 201.882812 199.296875 C 219.023438 193.230469 230.601562 176.929688 230.65625 158.722656 C 230.65625 150.851562 224.140625 144.332031 216.269531 144.332031 C 208.402344 144.332031 201.882812 150.851562 201.882812 158.722656 C 201.882812 166.589844 195.363281 173.109375 187.496094 173.109375 C 179.628906 173.109375 173.109375 166.589844 173.109375 158.722656 C 173.109375 150.851562 166.589844 144.332031 158.722656 144.332031 C 150.851562 144.332031 144.332031 150.851562 144.332031 158.722656 C 144.390625 176.929688 155.96875 193.230469 173.109375 199.296875 L 173.109375 245.046875 C 173.109375 252.914062 179.628906 259.433594 187.496094 259.433594 " fill-opacity="1" fill-rule="nonzero"/><g clip-path="url(#af961b125e)"><path fill="#2576cc" d="M 188.699219 176.757812 C 182.398438 176.757812 177.214844 181.941406 177.214844 188.242188 C 177.210938 191.496094 178.605469 194.605469 181.042969 196.765625 C 181.855469 197.492188 182.320312 198.535156 182.320312 199.621094 L 182.320312 203.550781 C 182.320312 204.253906 182.898438 204.828125 183.59375 204.828125 L 188.699219 204.828125 C 189.398438 204.828125 189.976562 204.253906 189.976562 203.550781 C 189.976562 202.851562 189.398438 202.277344 188.699219 202.277344 L 184.871094 202.277344 L 184.871094 199.621094 C 184.875 197.804688 184.105469 196.074219 182.753906 194.863281 C 180.855469 193.191406 179.761719 190.773438 179.765625 188.242188 C 179.765625 188.234375 179.765625 188.234375 179.765625 188.234375 C 179.765625 183.335938 183.800781 179.304688 188.699219 179.304688 C 193.597656 179.304688 197.632812 183.335938 197.632812 188.234375 C 197.632812 190.773438 196.550781 193.195312 194.65625 194.890625 C 193.316406 196.085938 192.542969 197.796875 192.527344 199.59375 C 192.527344 201.425781 192.527344 203.550781 192.527344 203.550781 C 192.527344 204.5 193.390625 204.847656 193.824219 204.828125 C 194.242188 204.808594 195.078125 204.5 195.078125 203.550781 C 195.078125 203.550781 195.078125 201.449219 195.078125 199.621094 C 195.085938 198.539062 195.546875 197.511719 196.355469 196.789062 C 198.78125 194.609375 200.171875 191.5 200.171875 188.242188 C 200.171875 181.945312 194.996094 176.761719 188.699219 176.757812 " fill-opacity="1" fill-rule="nonzero"/></g><g clip-path="url(#2ca84f0e42)"><path fill="#2576cc" d="M 191.25 207.378906 L 186.148438 207.378906 C 185.449219 207.378906 184.871094 207.953125 184.871094 208.65625 C 184.871094 209.359375 185.449219 209.933594 186.148438 209.933594 L 191.25 209.933594 C 191.949219 209.933594 192.527344 209.359375 192.527344 208.65625 C 192.527344 207.953125 191.949219 207.378906 191.25 207.378906 " fill-opacity="1" fill-rule="nonzero"/></g><path fill="#2576cc" d="M 188.699219 199.726562 C 189.398438 199.726562 189.976562 199.144531 189.976562 198.449219 L 189.976562 194.390625 C 191.496094 193.851562 192.523438 192.40625 192.527344 190.792969 C 192.527344 190.09375 191.949219 189.515625 191.25 189.515625 C 190.554688 189.515625 189.976562 190.09375 189.976562 190.792969 C 189.976562 191.492188 189.398438 192.070312 188.699219 192.070312 C 188 192.070312 187.421875 191.492188 187.421875 190.792969 C 187.421875 190.09375 186.84375 189.515625 186.148438 189.515625 C 185.449219 189.515625 184.871094 190.09375 184.871094 190.792969 C 184.875 192.40625 185.902344 193.851562 187.421875 194.390625 L 187.421875 198.449219 C 187.421875 199.144531 188 199.726562 188.699219 199.726562 " fill-opacity="1" fill-rule="nonzero"/></svg>